<svg id="Layer_1" data-name="Layer 1" xmlns="http://www.w3.org/2000/svg" viewBox="0 0 464.96 451"><defs><style>.cls-1{opacity:0.42;}</style></defs><title>blackLogo</title><path class="cls-1" d="M316.67,175.74c6.62,66.27-29.76,120.58-66.46,120.58S177,242,183.75,175.74C190.6,108.61,235.82,45.57,250.21,25a0,0,0,0,1,.07,0C264.6,45.57,309.82,107.24,316.67,175.74Z" transform="translate(-17.19 -25)"/><path class="cls-1" d="M181.08,180.1c65.07,14.18,105.48,65.56,94.14,100.47S200.93,333.42,140,306.51C78.27,279.25,32.3,216.77,17.2,196.74c0,0,0-.07,0-.07C41.19,189.39,113.81,165.45,181.08,180.1Z" transform="translate(-17.19 -25)"/><path class="cls-1" d="M140.57,313.39c33.59-57.5,94.94-80.06,124.64-58.49s27.3,87-17.11,136.62c-45,50.29-118.63,74.7-142.36,82.87a0,0,0,0,1-.06,0C106.17,449.3,105.84,372.84,140.57,313.39Z" transform="translate(-17.19 -25)"/><path class="cls-1" d="M248.47,391.09c-44.31-49.72-46.81-115-17.11-136.62S322.53,255.39,356,313c33.92,58.34,34.39,135.91,34.83,161a0,0,0,0,1-.06,0C367.1,465.79,294.28,442.48,248.47,391.09Z" transform="translate(-17.19 -25)"/><path class="cls-1" d="M359.3,307c-61,26.78-123.87,9-135.21-25.94s29-86.43,94.14-100.47c66-14.23,139.89,9.29,163.88,16.63a0,0,0,0,1,0,.07C467,217.21,422.34,279.26,359.3,307Z" transform="translate(-17.19 -25)"/><path class="cls-1" d="M245,175.45c37.14,40.24,40.13,93.92,16,112.08s-75,.56-103.33-46.3C129,193.75,127.48,130,126.76,109.35c0,0,0,0,0,0C146.39,115.72,206.6,133.85,245,175.45Z" transform="translate(-17.19 -25)"/><path class="cls-1" d="M158.12,245.42c49.75-22.9,101.72-9.15,111.55,19.39s-22.64,71.48-76,84c-54,12.64-115.15-5.63-135-11.32a0,0,0,0,1,0-.06C70.84,320.75,106.68,269.09,158.12,245.42Z" transform="translate(-17.19 -25)"/><path class="cls-1" d="M193.47,353c-6.4-54.39,22.74-99.58,52.92-100.1s61,43.62,56.37,98.19c-4.67,55.3-40.94,107.78-52.48,124.88,0,0,0,0-.06,0C238.15,459.29,200.09,409.24,193.47,353Z" transform="translate(-17.19 -25)"/><path class="cls-1" d="M306.79,350.63c-53.7-10.72-87.67-52.39-78.85-81.25s60.33-44.52,110.81-23.28c51.15,21.53,89.85,72.25,102.55,88.51,0,0,0,.05,0,.05C421.68,341,362.32,361.72,306.79,350.63Z" transform="translate(-17.19 -25)"/><path class="cls-1" d="M338,240.52C311.15,288.28,261,307.71,236.3,290.4s-23.69-71.13,12.11-112.57c36.28-42,96.47-63.13,115.86-70.19a0,0,0,0,1,.05,0C364.27,128.27,365.65,191.14,338,240.52Z" transform="translate(-17.19 -25)"/></svg>