<svg id="Layer_1" data-name="Layer 1" xmlns="http://www.w3.org/2000/svg" viewBox="0 0 1260.8 2518.48"><defs><style>.cls-1{fill:#a6a6a6;}.cls-2{fill:#bec3c7;}.cls-3{fill:#ecf0f1;}.cls-23,.cls-4{opacity:0.3;}.cls-23,.cls-45,.cls-46,.cls-5{fill:#fff;}.cls-6{fill:#d6c395;}.cls-7{fill:#f0dfb4;}.cls-8{fill:none;stroke:#000;stroke-miterlimit:10;stroke-width:4px;}.cls-9{fill:#c1392b;}.cls-10{fill:#27ae60;}.cls-11{fill:#2dcc70;}.cls-12{fill:#d85459;}.cls-13{fill:#ef727a;}.cls-14,.cls-30{fill:#e84c3c;}.cls-15{fill:#2980b9;}.cls-16{fill:#3598da;}.cls-17{fill:#7e8c8d;}.cls-18{fill:#95a4a5;}.cls-19{fill:#99aad5;}.cls-20{fill:#b7c9f1;}.cls-21{fill:#262626;}.cls-22{fill:#2b2b2b;}.cls-24{fill:#e67f22;}.cls-25{fill:#8f725e;}.cls-26{fill:#a38671;}.cls-27{fill:#345f41;}.cls-27,.cls-28,.cls-29,.cls-30,.cls-31,.cls-32,.cls-33,.cls-34{opacity:0.6;}.cls-28,.cls-41{fill:#9a59b5;}.cls-29,.cls-36{fill:#ffcd02;}.cls-31,.cls-37{fill:#d25400;}.cls-32{fill:#79302b;}.cls-33,.cls-43{fill:#a5c53a;}.cls-34,.cls-39{fill:#5165a3;}.cls-35{fill:#ffa800;}.cls-38{fill:#384c81;}.cls-40{fill:#8e44ad;}.cls-42{fill:#8fb021;}.cls-44{fill:#1a1a1c;}.cls-45{fill-rule:evenodd;}.cls-46{opacity:0.4;}</style></defs><title>iphoneX Flat theme</title><path class="cls-1" d="M872-774.46c0-81.95-8.4-132.91-60.28-183.76C761.62-1007.33,689.33-1009,664.85-1009H-166.48c-24.48,0-96.76,1.67-146.86,50.78-51.87,50.85-60.28,101.81-60.28,183.76V1275c0,82,8.41,132.9,60.28,183.76,50.1,49.1,122.38,50.78,146.86,50.77H664.85c24.48,0,96.77-1.67,146.86-50.77C863.59,1407.85,872,1356.9,872,1275Z" transform="translate(380.92 1009)"/><path class="cls-1" d="M-375.11-669.46a5.66,5.66,0,0,0-1.36.27v-.1c-.15,0-.28.14-.43.19a5.07,5.07,0,0,0-.89.38,5.14,5.14,0,0,0-.94.63,5.51,5.51,0,0,0-.67.6,5.32,5.32,0,0,0-.73,1.09,4.53,4.53,0,0,0-.36.64,5.72,5.72,0,0,0-.43,2.11v84.88a5.68,5.68,0,0,0,.43,2.11,4.53,4.53,0,0,0,.36.64,5.32,5.32,0,0,0,.73,1.09,6.49,6.49,0,0,0,.67.6,5.14,5.14,0,0,0,.94.63,4.67,4.67,0,0,0,.89.38c.15.05.28.15.43.19v-.1a5.66,5.66,0,0,0,1.36.27H-372v-96.5Z" transform="translate(380.92 1009)"/><path class="cls-1" d="M-375.11-489.34a5.67,5.67,0,0,0-1.36.28v-.1c-.15,0-.28.13-.43.18a6,6,0,0,0-.89.38,5.75,5.75,0,0,0-.94.64,4.78,4.78,0,0,0-.67.6,5,5,0,0,0-.73,1.08,4.13,4.13,0,0,0-.36.65,5.62,5.62,0,0,0-.43,2.1v171a5.72,5.72,0,0,0,.43,2.11,4.53,4.53,0,0,0,.36.64,5,5,0,0,0,.73,1.08,5.58,5.58,0,0,0,.67.61,4.86,4.86,0,0,0,.93.62,4.89,4.89,0,0,0,.91.39c.14.05.27.14.42.18V-307a5.66,5.66,0,0,0,1.36.27H-372V-489.34Z" transform="translate(380.92 1009)"/><path class="cls-1" d="M-372.87-258.41a5.67,5.67,0,0,0-1.36.28v-.1c-.15,0-.28.13-.43.18a6.44,6.44,0,0,0-.89.38,6.08,6.08,0,0,0-.95.64,6.07,6.07,0,0,0-.65.59,5.89,5.89,0,0,0-.74,1.1,4.89,4.89,0,0,0-.36.63,5.71,5.71,0,0,0-.42,2.11v171a5.71,5.71,0,0,0,.42,2.11,5.67,5.67,0,0,0,.36.63,5.89,5.89,0,0,0,.74,1.1,6.07,6.07,0,0,0,.65.59,6.08,6.08,0,0,0,.95.64,6.57,6.57,0,0,0,.9.38c.14.05.27.14.42.18v-.09a5.66,5.66,0,0,0,1.36.27h1.78V-258.41Z" transform="translate(380.92 1009)"/><path class="cls-1" d="M879.45-143.95a7.78,7.78,0,0,0,.43-2.48V-417.85a7.76,7.76,0,0,0-.43-2.47c0-.12-.06-.24-.11-.36a7.84,7.84,0,0,0-1.15-2.06L878-423a8.07,8.07,0,0,0-4.29-2.7h0a8.45,8.45,0,0,0-1.9-.24h-2.46v287.57h2.46a8,8,0,0,0,6.19-2.94l.2-.24a7.84,7.84,0,0,0,1.15-2.06C879.39-143.71,879.41-143.83,879.45-143.95Z" transform="translate(380.92 1009)"/><g id="Clock"><g id="BKG"><rect class="cls-2" x="409.49" y="283.35" width="179.95" height="179.95" rx="31.57" ry="31.57"/><rect class="cls-3" x="409.49" y="283.35" width="179.95" height="168.52" rx="31.57" ry="31.57"/></g><g id="Shadow" class="cls-4"><path d="M208.53-588.7v-5.4l-63.65-63.64-15.28-7.91L113.85-666,97-656.62l-8.53,15.9.67,16.56,8,15.15L149-557.13h28A31.66,31.66,0,0,0,208.53-588.7Z" transform="translate(380.92 1009)"/></g><g id="Icon"><circle cx="499.47" cy="373.33" r="34.37"/><circle class="cls-5" cx="499.47" cy="373.33" r="29.87"/><path d="M118.55-635a.63.63,0,0,1-.63-.63v-27.47a.63.63,0,0,1,.63-.63.63.63,0,0,1,.63.63v27.47A.63.63,0,0,1,118.55-635Z" transform="translate(380.92 1009)"/><path d="M118.55-635a.63.63,0,0,1-.45-.19.64.64,0,0,1,0-.89l11-10.94a.62.62,0,0,1,.89,0,.64.64,0,0,1,0,.89L119-635.23A.63.63,0,0,1,118.55-635Z" transform="translate(380.92 1009)"/></g></g><g id="Maps"><g id="BKG-2" data-name="BKG"><rect class="cls-6" x="410.44" y="581.35" width="179.95" height="179.95" rx="31.57" ry="31.57"/><rect class="cls-7" x="410.44" y="581.35" width="179.95" height="168.52" rx="31.57" ry="31.57"/></g><g id="Shadow-2" data-name="Shadow" class="cls-4"><path d="M209.47-290.7v-15.61l-55.68-55.83L85.2-313.2l54.08,54.07H177.9A31.66,31.66,0,0,0,209.47-290.7Z" transform="translate(380.92 1009)"/></g><g id="Icon-2" data-name="Icon"><polygon class="cls-5" points="466.12 646.82 466.12 695.75 483.27 703.26 483.27 639.39 466.12 646.82"/><polygon class="cls-5" points="483.27 639.39 483.27 703.26 500.42 695.75 500.42 646.82 483.27 639.39"/><polygon class="cls-5" points="500.42 646.82 500.42 695.75 517.56 703.26 517.56 639.39 500.42 646.82"/><polygon class="cls-5" points="517.56 639.39 517.56 703.26 534.71 695.75 534.71 646.82 517.56 639.39"/><polygon class="cls-3" points="467.52 648.82 467.52 693.75 483.27 700.23 483.27 642.75 467.52 648.82"/><polygon class="cls-2" points="483.27 642.75 483.27 700.23 500.42 693.75 500.42 648.82 483.27 642.75"/><polygon class="cls-2" points="533.31 648.82 533.31 693.75 517.56 700.23 517.56 642.75 533.31 648.82"/><polygon class="cls-3" points="517.56 642.75 517.56 700.23 500.42 693.75 500.42 648.82 517.56 642.75"/><g id="X_marks_the_spot" data-name="X marks the spot"><rect x="88.83" y="-329.56" width="3.8" height="1.26" transform="translate(622.32 986.21) rotate(-41.63)"/><rect x="93.29" y="-333.16" width="3.8" height="1.26" transform="translate(559.84 1012.07) rotate(-29.98)"/><rect x="114.1" y="-341.91" width="3.8" height="1.26" transform="translate(636.91 999.88) rotate(-41.63)"/><rect x="105.02" y="-331.83" width="1.26" height="3.8" transform="translate(411.77 1017.33) rotate(-5.29)"/><rect x="106.61" y="-335.82" width="3.8" height="1.26" transform="translate(630.97 996.44) rotate(-41.63)"/><rect x="108.98" y="-328.17" width="1.26" height="3.8" transform="translate(807.37 817.19) rotate(-85.57)"/><rect x="112.86" y="-329.03" width="3.8" height="1.26" transform="translate(684.67 972.66) rotate(-52.17)"/><rect x="114.12" y="-336.05" width="1.26" height="3.8" transform="translate(490.64 1028.12) rotate(-18.14)"/><rect x="110.57" y="-341.13" width="1.26" height="3.8" transform="translate(704.11 957.01) rotate(-54.58)"/><rect x="103.15" y="-340.22" width="3.8" height="1.26" transform="translate(510.7 1024.02) rotate(-21.18)"/><rect x="98.33" y="-336.83" width="3.8" height="1.26" transform="translate(669.07 969.05) rotate(-48.99)"/><rect x="134.14" y="-356.97" width="1.26" height="3.8" transform="translate(840.06 851.46) rotate(-79.45)"/><rect x="126.61" y="-355.04" width="3.8" height="1.26" transform="translate(556.41 1028.64) rotate(-27.09)"/><rect x="122.05" y="-351.11" width="3.8" height="1.26" transform="translate(716.45 964.19) rotate(-54.17)"/><rect x="118.28" y="-346.27" width="3.8" height="1.26" transform="translate(692.11 975.5) rotate(-50.64)"/><path class="cls-8" d="M140.77-342.5" transform="translate(380.92 1009)"/><path class="cls-8" d="M137.92-340" transform="translate(380.92 1009)"/><rect class="cls-9" x="140.02" y="-327.25" width="9.67" height="1.26" transform="translate(702.76 992.77) rotate(-53.61)"/><rect class="cls-9" x="144.23" y="-331.46" width="1.26" height="9.67" transform="translate(702.7 992.81) rotate(-53.6)"/><rect x="142.73" y="-334.95" width="1.26" height="3.8" transform="translate(513.47 1038.38) rotate(-21.58)"/><rect x="141.57" y="-341.2" width="1.26" height="3.8" transform="translate(412.12 1020.45) rotate(-5.18)"/><rect x="140.29" y="-347.44" width="1.26" height="3.8" transform="translate(509.18 1036.42) rotate(-20.24)"/><rect x="138.39" y="-353.25" width="1.26" height="3.8" transform="translate(504.97 1035.21) rotate(-19.32)"/></g></g></g><g id="Messages"><g id="BKG-3" data-name="BKG"><rect class="cls-10" x="924.68" y="2193.55" width="179.7" height="179.7" rx="31.53" ry="31.53"/><rect class="cls-11" x="924.68" y="2193.55" width="179.7" height="168.29" rx="31.53" ry="31.53"/></g><path id="Shadow-3" data-name="Shadow" class="cls-4" d="M723.46,1321.31v-7.58l-60-55-60.3,40.69-5.86,1.38,56.34,52h38.29A31.62,31.62,0,0,0,723.46,1321.31Z" transform="translate(380.92 1009)"/><path id="Icon-3" data-name="Icon" class="cls-5" d="M633.61,1247.67c-20.06,0-36.33,11.6-36.33,25.91,0,6.92,3.8,13.21,10,17.85-4.48,7-10,9.43-10,9.43,8.13,1,16.11-1.1,22-3.46a48.8,48.8,0,0,0,14.31,2.09c20.06,0,36.33-11.6,36.33-25.91S653.67,1247.67,633.61,1247.67Z" transform="translate(380.92 1009)"/></g><g id="Music"><g id="BKG-4" data-name="BKG"><rect class="cls-12" x="412.59" y="2193.76" width="179.7" height="179.7" rx="31.53" ry="31.53"/><rect class="cls-13" x="412.59" y="2193.76" width="179.7" height="168.29" rx="31.53" ry="31.53"/></g><path id="Shadow-4" data-name="Shadow" class="cls-4" d="M148.63,1241.06l-17.76,14.42-19,2.78-.52,16.87-1.68,20.94-15,9.36,50.22,47.62h35a31.62,31.62,0,0,0,31.53-31.53v-21.9Z" transform="translate(380.92 1009)"/><path id="Icon-4" data-name="Icon" class="cls-5" d="M150,1291a12.74,12.74,0,0,1-.47,3.47c-1,3.4-3.46,5.45-7.1,6.31a21.07,21.07,0,0,1-5.26.6,8.24,8.24,0,0,1-7.91-6.42,7.67,7.67,0,0,1,5.09-8.24,35,35,0,0,1,6.08-1.58c1-.19,2-.37,3.05-.6a2.65,2.65,0,0,0,2.36-2.81q0-11.2,0-22.42c0-1.46-.76-2-2.33-1.76-3.66.66-7.33,1.35-11,2l-16.19,3-.33.07c-1.77.36-2.24.89-2.24,2.59q0,13.86,0,27.72c0,1.51,0,3,0,4.53a11.91,11.91,0,0,1-1,4.88,9.26,9.26,0,0,1-6.67,5.16,24.5,24.5,0,0,1-4,.61c-4.19.22-8.11-1.77-9-6.16a7.39,7.39,0,0,1,4.7-8.48,32.63,32.63,0,0,1,6.56-1.71c.85-.17,1.71-.3,2.55-.49a2.86,2.86,0,0,0,2.6-3c0-2.4,0-27,0-36.94,0-2.51.92-3.55,3.57-4,6.64-1.24,29.12-5.39,33.73-6.22a4.58,4.58,0,0,1,.83-.08,2.12,2.12,0,0,1,2.19,1.52,5.12,5.12,0,0,1,.17,1.46q0,11.84,0,23.67S150.06,1283.2,150,1291Z" transform="translate(380.92 1009)"/></g><g id="Youtube"><g id="BKG-5" data-name="BKG"><rect class="cls-9" x="156.3" y="880.34" width="179.95" height="179.95" rx="31.57" ry="31.57"/><rect class="cls-14" x="156.3" y="880.34" width="179.95" height="168.52" rx="31.57" ry="31.57"/></g><path id="Shadow-5" data-name="Shadow" class="cls-4" d="M-46.77,19.58-105-38.69-111.88-37-163-7.2l-1.29,2.71,44.36,44.35h43.67A31.69,31.69,0,0,0-46.77,19.58Z" transform="translate(380.92 1009)"/><polygon id="Icon-5" data-name="Icon" class="cls-5" points="216.65 936.11 275.89 970.31 216.65 1004.51 216.65 936.11"/></g><g id="Safari"><g id="BKG-6" data-name="BKG"><rect class="cls-15" x="667.62" y="2193.55" width="179.7" height="179.7" rx="31.53" ry="31.53"/><rect class="cls-16" x="667.62" y="2193.55" width="179.7" height="168.29" rx="31.53" ry="31.53"/></g><path id="Shadow-6" data-name="Shadow" class="cls-4" d="M466.4,1321.31v-31.14L413.24,1240l-68.44,63.34-4.88,5.29,46.8,44.17h48.16A31.62,31.62,0,0,0,466.4,1321.31Z" transform="translate(380.92 1009)"/><g id="Icon-6" data-name="Icon"><polygon class="cls-3" points="749.61 2276.04 794.14 2249.08 765.34 2290.76 749.61 2276.04"/><polygon class="cls-14" points="749.67 2275.98 720.81 2317.72 765.4 2290.7 749.67 2275.98"/><ellipse class="cls-5" cx="757.47" cy="2283.4" rx="14" ry="13.11"/></g></g><g id="Phone"><g id="BKG-7" data-name="BKG"><rect class="cls-10" x="156.71" y="2193.76" width="179.7" height="179.7" rx="31.53" ry="31.53"/><rect class="cls-11" x="156.71" y="2193.76" width="179.7" height="168.29" rx="31.53" ry="31.53"/></g><path id="Shadow-7" data-name="Shadow" class="cls-4" d="M-44.5,1321.52v-23.37l-57.27-54.26-8.88,8.26-3.07,19.26-23.56,23.41-17.3-1.78-12.65,11.77,50.91,48.24H-76A31.62,31.62,0,0,0-44.5,1321.52Z" transform="translate(380.92 1009)"/><path id="Icon-7" data-name="Icon" class="cls-5" d="M-157.75,1308.73c2.34-.44,4.73-.71,7-1.34a59.31,59.31,0,0,0,24.09-12.79c4.89-4.37,9.74-8.78,14.32-13.43a50.63,50.63,0,0,0,14-26.09c.68-3.46.25-6.19-1-8.37-.18-.3-.37-.59-.58-.88-1.75-2.33-4.58-4-8.14-5.24a3.48,3.48,0,0,0-2.59.4,12.68,12.68,0,0,0-3.09,2.84c-2.36,3.05-4.66,6.15-6.8,9.34a12.28,12.28,0,0,0-1.54,4,4.4,4.4,0,0,0,1.26,4.24,22.19,22.19,0,0,1,1.6,1.89c2.36,3,2.43,5.31.12,8.37a30.91,30.91,0,0,1-3.3,3.67c-3.78,3.6-7.62,7.14-11.44,10.7-.54.51-1.11,1-1.7,1.46-5,3.89-7.36,4-12.35.11-2.55-2-5.19-2.31-7.77-.81a143.61,143.61,0,0,0-12.82,8.34c-2.75,2-2.67,3-1.08,6.07C-167.2,1305.85-163.66,1308.84-157.75,1308.73Z" transform="translate(380.92 1009)"/></g><g id="Settings"><g id="BKG-8" data-name="BKG"><rect class="cls-17" x="155.43" y="582.18" width="179.95" height="179.95" rx="31.57" ry="31.57"/><rect class="cls-18" x="155.43" y="582.18" width="179.95" height="168.52" rx="31.57" ry="31.57"/></g><path id="Shadow-8" data-name="Shadow" class="cls-4" d="M-45.54-289.86v-5.33l-66.41-66.41-15.28-7.91-15.75-.34-16.9,9.37-8.53,15.9.67,16.56,8,15.15,54.57,54.58h28A31.67,31.67,0,0,0-45.54-289.86Z" transform="translate(380.92 1009)"/><g id="Icon-8" data-name="Icon"><path class="cls-5" d="M-135.57-302.75a33.45,33.45,0,0,1-24.1-10,33,33,0,0,1-9.92-25.18,32.91,32.91,0,0,1,10-23,33.06,33.06,0,0,1,23.57-10,32.88,32.88,0,0,1,24.7,10,33.33,33.33,0,0,1,9.94,24.3A34.11,34.11,0,0,1-135.57-302.75Zm5.7-4.72h0c0-.47,0-.95,0-1.42a1,1,0,0,1,.7-1,1,1,0,0,1,1,.64c.33.66.65,1.32,1,2a3,3,0,0,0,.32.52.38.38,0,0,0,.31.09.34.34,0,0,0,.2-.24c0-.44,0-.88-.08-1.31s-.19-1-.25-1.55a1.19,1.19,0,0,1,.64-1.08,1,1,0,0,1,.93.38,4.17,4.17,0,0,1,.29.44c.44.69.88,1.38,1.34,2.06a.29.29,0,0,0,.44.12.34.34,0,0,0,.19-.43c-.08-.31-.19-.61-.27-.93-.14-.65-.29-1.3-.4-2a.82.82,0,0,1,.37-.92,1,1,0,0,1,1,.2,1.31,1.31,0,0,1,.32.3c.31.39.59.8.9,1.19a5.25,5.25,0,0,0,.73.76.59.59,0,0,0,.47.09s.12-.26.09-.38c-.08-.31-.21-.61-.32-.91-.22-.57-.46-1.14-.67-1.71a.88.88,0,0,1,.23-1.05,1.35,1.35,0,0,1,.92-.09,1.3,1.3,0,0,1,.55.4c.55.53,1.09,1.08,1.63,1.62.15.14.29.33.52.15a.39.39,0,0,0,.1-.55l-.39-.79-.87-1.73a.85.85,0,0,1,.17-1,1,1,0,0,1,1-.06c.32.2.62.45.92.68.49.37,1,.75,1.47,1.11a.39.39,0,0,0,.38,0,.45.45,0,0,0,.13-.37c0-.14-.14-.25-.22-.37-.45-.69-.9-1.37-1.36-2.05a1,1,0,0,1-.06-1.08c.18-.36.57-.25.88-.24a1.08,1.08,0,0,1,.49.15c.33.18.65.4,1,.59s.79.5,1.21.71a.53.53,0,0,0,.46,0c.2-.14.16-.36,0-.55a.74.74,0,0,0-.12-.13c-.46-.53-.93-1.05-1.39-1.59a2.58,2.58,0,0,1-.41-.57.82.82,0,0,1,0-.91,1,1,0,0,1,1-.28c.17.06.32.15.48.22l1.77.79a1.22,1.22,0,0,0,.49.15.5.5,0,0,0,.38-.14.43.43,0,0,0,0-.38,8.73,8.73,0,0,0-.68-.68c-.49-.47-1-.89-1.47-1.4s-.34-1.11.38-1.33a1,1,0,0,1,.5,0c.84.24,1.68.5,2.51.76.26.08.52.24.67-.12s-.1-.46-.34-.62c-.42-.27-.81-.57-1.21-.87s-.67-.47-1-.73a.88.88,0,0,1-.22-1,.66.66,0,0,1,.71-.42,6.12,6.12,0,0,1,1,.11c.66.12,1.31.28,2,.39a.52.52,0,0,0,.43-.2.35.35,0,0,0-.12-.53c-.14-.1-.31-.17-.46-.26-.67-.36-1.35-.71-2-1.09a1.06,1.06,0,0,1-.5-1,.89.89,0,0,1,.85-.53c.52,0,1.05,0,1.58.07s.93.07,1.4.09c.19,0,.38,0,.37-.26a.65.65,0,0,0-.2-.43,4.22,4.22,0,0,0-.71-.34c-.67-.29-1.35-.56-2-.87a.73.73,0,0,1,0-1.36,2.36,2.36,0,0,1,.91-.24c.59,0,1.18,0,1.77,0h.53a.43.43,0,0,0,.42-.47c0-.11-.19-.27-.33-.33a6.18,6.18,0,0,0-.84-.24c-.65-.19-1.3-.35-1.94-.56a1,1,0,0,1-.62-.79c0-.28.37-.7.74-.78s.75-.12,1.12-.19l1.72-.31c.22,0,.39-.1.39-.38s-.16-.33-.39-.37c-.66-.1-1.32-.22-2-.34a5.8,5.8,0,0,1-.94-.19.73.73,0,0,1-.58-.69.8.8,0,0,1,.48-.78,8.15,8.15,0,0,1,.83-.29l2-.55a.39.39,0,0,0,.35-.43c0-.28-.2-.4-.47-.41h-.62c-.62,0-1.24,0-1.86,0s-1.22-.48-1.18-.77a1.25,1.25,0,0,1,.87-1c.69-.25,1.36-.55,2-.82.11,0,.27,0,.32-.13a1.11,1.11,0,0,0,.2-.52c0-.23-.19-.27-.38-.26l-1.4.1c-.53,0-1,.08-1.58.07a.81.81,0,0,1-.78-.61,1,1,0,0,1,.33-.75,6.15,6.15,0,0,1,1.11-.71c.43-.25.89-.45,1.32-.7s.45-.48.32-.73-.45-.17-.7-.12c-.8.16-1.6.32-2.41.45a.88.88,0,0,1-1.06-.43c-.2-.47.12-.79.45-1.05.51-.4,1-.77,1.56-1.15.19-.13.38-.27.56-.42a.44.44,0,0,0,.15-.62c-.13-.21-.31-.2-.53-.12-.72.24-1.45.46-2.18.67a2.84,2.84,0,0,1-.86.12c-.48,0-.6-.19-.63-.66s.27-.74.58-1l1.57-1.41c.22-.2.46-.37.22-.74s-.47-.12-.68,0c-.59.25-1.17.54-1.76.8a7,7,0,0,1-.9.35.73.73,0,0,1-.77-.3.6.6,0,0,1-.06-.74,7.33,7.33,0,0,1,.45-.64c.51-.61,1-1.2,1.55-1.81.13-.15.24-.34,0-.55a.43.43,0,0,0-.56-.09l-.84.49c-.53.31-1,.64-1.6.93a.83.83,0,0,1-1-.1.9.9,0,0,1,0-1.14c.08-.12.19-.22.27-.34.43-.64.86-1.26,1.27-1.91a.57.57,0,0,0,0-.46.37.37,0,0,0-.54-.12,3,3,0,0,0-.38.23l-1,.82c-.3.24-.59.49-.91.7a1,1,0,0,1-1,.06c-.35-.18-.28-.56-.24-.87a2.3,2.3,0,0,1,.27-.65c.35-.68.72-1.34,1.08-2a.47.47,0,0,0-.17-.61c-.23-.21-.38-.05-.52.09-.59.54-1.16,1.09-1.74,1.63a2.87,2.87,0,0,1-.53.46c-.54.31-1,.06-1.05-.55a2.58,2.58,0,0,1,.11-.78,8.11,8.11,0,0,1,.31-.82c.2-.52.41-1,.6-1.55.09-.24,0-.38-.23-.5a.34.34,0,0,0-.47,0c-.12.13-.23.27-.34.41l-1.42,1.79a1,1,0,0,1-1,.4c-.19,0-.38-.35-.47-.58a1,1,0,0,1,0-.59c.16-.66.35-1.3.51-1.95a3,3,0,0,0,.1-.78.57.57,0,0,0-.29-.39c-.07-.05-.28,0-.36.13a3.77,3.77,0,0,0-.47.64c-.34.54-.67,1.1-1,1.64A1,1,0,0,1-126-363a.87.87,0,0,1-.47-1c0-.14,0-.29,0-.44.1-.57.22-1.15.3-1.72a1.88,1.88,0,0,0,0-.71.53.53,0,0,0-.33-.34.51.51,0,0,0-.43.17,7,7,0,0,0-.44.86c-.24.51-.45,1-.72,1.51a2,2,0,0,1-.56.66.52.52,0,0,1-.83-.19,2.16,2.16,0,0,1-.21-.83c0-.77,0-1.53,0-2.3,0-.53-.08-.69-.42-.74s-.42.34-.52.58c-.24.66-.45,1.33-.68,2s-.7,1.12-1,1-.65-.61-.7-1.31-.12-1.46-.18-2.19c0-.25-.09-.47-.38-.52s-.48.17-.55.45c-.11.45-.2.91-.3,1.37s-.23,1-.35,1.44a.69.69,0,0,1-.72.54c-.24,0-.49-.27-.67-.47a1.21,1.21,0,0,1-.19-.58c-.14-.69-.24-1.38-.41-2.06-.07-.29-.11-.68-.55-.69q-.39,0-.45.75c-.07.76-.13,1.52-.19,2.27a1.23,1.23,0,0,1-.65,1c-.26.07-.76-.26-.94-.67s-.24-.72-.36-1.08c-.18-.53-.34-1.06-.55-1.58a.52.52,0,0,0-.39-.27c-.21,0-.46.13-.47.43v.53c0,.68,0,1.36,0,2a2.56,2.56,0,0,1,0,.62.62.62,0,0,1-1,.4,1.7,1.7,0,0,1-.55-.64c-.38-.73-.72-1.48-1.07-2.22-.12-.24-.29-.39-.57-.3a.49.49,0,0,0-.31.57c0,.09,0,.18,0,.26.1.58.23,1.15.3,1.73a3.43,3.43,0,0,1,0,1.06.66.66,0,0,1-1.13.42,3.13,3.13,0,0,1-.61-.74c-.36-.54-.69-1.09-1-1.64-.16-.26-.29-.55-.67-.4s-.27.48-.24.76a1.25,1.25,0,0,0,.07.26c.19.67.37,1.35.56,2a1.13,1.13,0,0,1-.11.93c-.23.38-.4.48-.78.24a4.21,4.21,0,0,1-1-.87c-.47-.52-.89-1.09-1.34-1.63a.31.31,0,0,0-.46-.08c-.16.13-.35.23-.24.5s.28.77.42,1.15c.19.53.41,1,.59,1.57a1,1,0,0,1-.29,1,.86.86,0,0,1-.91-.13,3,3,0,0,1-.52-.48c-.49-.47-1-1-1.45-1.42-.18-.17-.36-.41-.68-.2s-.24.48-.09.76c.37.67.74,1.33,1.08,2s.25,1.24,0,1.39a1.16,1.16,0,0,1-1.3-.27l-1.66-1.31a1.46,1.46,0,0,0-.28-.21.5.5,0,0,0-.64.08c-.22.21-.06.37.05.54l1.33,2a2.75,2.75,0,0,1,.31.52.72.72,0,0,1-.82,1,2.28,2.28,0,0,1-.72-.31c-.53-.31-1-.66-1.57-1a1.67,1.67,0,0,0-.63-.27.65.65,0,0,0-.46.17c-.18.16-.05.32.06.46.36.43.74.84,1.09,1.27a8.17,8.17,0,0,1,.85,1.11c.36.61.08,1.08-.6,1.05a2.71,2.71,0,0,1-.92-.23c-.68-.29-1.34-.6-2-.91-.24-.12-.43-.14-.6.14a.42.42,0,0,0,.11.61l1,.94c.35.32.7.63,1,1a.9.9,0,0,1,.12,1c-.14.37-.52.33-.84.31a1.53,1.53,0,0,1-.42-.11l-1.76-.54a2.71,2.71,0,0,0-.67-.2.54.54,0,0,0-.43.2.56.56,0,0,0,0,.47,1.34,1.34,0,0,0,.4.34c.55.4,1.1.78,1.65,1.17s.79.85.63,1.23-.68.55-1.32.42-1.25-.29-1.88-.43a5.35,5.35,0,0,0-.7-.07.31.31,0,0,0-.3.43.82.82,0,0,0,.36.44c.61.36,1.25.66,1.84,1a4.21,4.21,0,0,1,.82.76c.2.23.13.46-.09.69-.46.5-1,.33-1.57.3l-2-.14c-.18,0-.36,0-.4.25a.39.39,0,0,0,.24.5l.73.31,1.87.74a1.08,1.08,0,0,1,.6.92c0,.23-.5.63-.85.66l-2.45.16a1.45,1.45,0,0,0-.52,0,.59.59,0,0,0-.29.38c0,.08.11.26.22.31a7.42,7.42,0,0,0,.9.32c.65.18,1.3.34,1.94.55a.79.79,0,0,1,.62.85c0,.44-.37.56-.68.71a.78.78,0,0,1-.26,0c-.72.11-1.45.22-2.16.35a2,2,0,0,0-.59.16.36.36,0,0,0,0,.63,2.27,2.27,0,0,0,.67.21c.57.09,1.16.14,1.74.22a2.92,2.92,0,0,1,.76.19.73.73,0,0,1,.53.73.85.85,0,0,1-.6.79c-.27.1-.56.17-.84.25-.62.17-1.24.34-1.85.53-.15.05-.26.2-.39.3a2.1,2.1,0,0,0,.43.5c.13.09.34.05.51.05.65,0,1.3,0,2,0a1.91,1.91,0,0,1,.75.17c.53.26.64.71.23,1.13a3.34,3.34,0,0,1-.94.62c-.62.27-1.25.5-1.88.73-.25.1-.41.23-.36.52s.28.35.53.33.47-.06.7-.07c.76,0,1.52-.11,2.28-.08a.64.64,0,0,1,.53,1.06,2,2,0,0,1-.63.58c-.55.34-1.13.63-1.69,1a2.54,2.54,0,0,0-.57.4.5.5,0,0,0-.06.4c0,.07.19.15.28.14a7.32,7.32,0,0,0,1.05-.09c.57-.11,1.14-.26,1.71-.38a1.43,1.43,0,0,1,1.1.41.92.92,0,0,1-.27,1,5.85,5.85,0,0,1-.54.45l-1.37,1a2.59,2.59,0,0,0-.51.48.29.29,0,0,0,.22.5,2.65,2.65,0,0,0,.68-.14l2.19-.65a1,1,0,0,1,1,.3.93.93,0,0,1-.09,1.06,7.4,7.4,0,0,1-.71.66l-1.42,1.31c-.14.13-.27.29-.1.45a.58.58,0,0,0,.45.15,4.3,4.3,0,0,0,.82-.31c.37-.17.73-.37,1.11-.53a4.49,4.49,0,0,1,1-.35.75.75,0,0,1,.83,1.11,1.83,1.83,0,0,1-.28.44l-1.27,1.46c-.16.18-.31.35-.45.54s-.18.29,0,.46.26.2.45.08c.35-.22.72-.41,1.07-.61.54-.3,1.06-.63,1.61-.89a.72.72,0,0,1,1,.4.94.94,0,0,1-.14,1c-.38.59-.79,1.17-1.18,1.75a3.05,3.05,0,0,0-.34.61.5.5,0,0,0,.11.39.4.4,0,0,0,.38,0c.34-.22.66-.47,1-.72s.86-.7,1.31-1a.86.86,0,0,1,1.07,0,1,1,0,0,1,.2,1,8.67,8.67,0,0,1-.5,1.12c-.25.5-.52,1-.78,1.47-.09.15-.22.31,0,.44s.35.25.55,0l.44-.43c.51-.5,1-1,1.51-1.5a1,1,0,0,1,1.12-.21,1,1,0,0,1,.31,1.16c-.08.25-.18.49-.27.74-.22.6-.45,1.2-.64,1.81,0,.14.08.32.12.48.16-.05.37-.05.47-.16.4-.46.77-.95,1.16-1.42.25-.3.5-.58.77-.85a.79.79,0,0,1,.91-.14.74.74,0,0,1,.45.79,4.17,4.17,0,0,1-.1.6c-.19.79-.4,1.58-.59,2.37a.38.38,0,0,0,.26.49c.25.1.31-.07.4-.21l1.26-2a1.85,1.85,0,0,1,.92-.78.49.49,0,0,1,.56.11.93.93,0,0,1,.31.79,13.63,13.63,0,0,1-.34,2.77c0,.18-.1.46.2.49a1.25,1.25,0,0,0,.54-.19s0-.1.07-.16c.31-.66.61-1.33.93-2a2.29,2.29,0,0,1,.38-.59.74.74,0,0,1,1.24.08,1.77,1.77,0,0,1,.26,1.42,15.34,15.34,0,0,0-.09,1.92.33.33,0,0,0,.38.38c.13,0,.26-.18.36-.31a1.15,1.15,0,0,0,.1-.33c.23-.67.44-1.33.69-2a2,2,0,0,1,.42-.65.74.74,0,0,1,1.2.16,1.46,1.46,0,0,1,.18.57c.08.61.15,1.22.18,1.83,0,.3.11.42.42.42s.55-.1.61-.48c.09-.57.22-1.14.36-1.7a1.09,1.09,0,0,1,.89-.85,1.12,1.12,0,0,1,.9.85,1,1,0,0,0,0,.17c.11.54.25,1.08.33,1.63,0,.31.18.36.46.38a.43.43,0,0,0,.49-.39,7.77,7.77,0,0,0,.08-1,11.74,11.74,0,0,1,.18-1.21.77.77,0,0,1,.73-.65.84.84,0,0,1,.86.5,3.54,3.54,0,0,1,.22.57l.66,1.9c.05.14.06.31.16.41a.54.54,0,0,0,.38.12c.06,0,.16-.16.17-.25C-129.86-306.53-129.87-307-129.87-307.47Z" transform="translate(380.92 1009)"/><path class="cls-5" d="M-156.82-337.53a20.54,20.54,0,0,1,6.23-14.4,22,22,0,0,1,3-2.52l-.68-1.15c-.56-.93-1.11-1.87-1.66-2.8-.1-.17-.19-.22-.41-.08-8,5.2-10.8,13.75-10.8,21.81,0,2.44-.78,10.8,10.83,21,.19.14.31.11.42-.06.27-.42.52-.85.78-1.28s.77-1.3,1.41-2.36a21.56,21.56,0,0,1-2.91-2.46A20.64,20.64,0,0,1-156.82-337.53Z" transform="translate(380.92 1009)"/><path class="cls-5" d="M-135.55-315.53a21.48,21.48,0,0,1-9.33-2.13c-.29.5-.51.9-.65,1.15-.54.94-1.08,1.88-1.61,2.83-.1.17-.09.27.13.39,8.51,4.41,17.29,2.57,24.3-1.43,2.11-1.21,9.76-4.68,12.9-19.83,0-.25-.07-.33-.27-.34-.49,0-1,0-1.49,0l-2.71-.05A21.34,21.34,0,0,1-135.55-315.53Z" transform="translate(380.92 1009)"/><path class="cls-5" d="M-122.8-359c-2.1-1.23-8.93-6.12-23.62-1.27-.23.1-.26.22-.16.4.23.44.46.88.7,1.31l1.32,2.38a21.13,21.13,0,0,1,8.71-2,20.55,20.55,0,0,1,15.43,6.27,20.62,20.62,0,0,1,6.15,13.54h1.32l3.25,0c.2,0,.29-.06.28-.32C-109.85-348.26-115.83-355-122.8-359Z" transform="translate(380.92 1009)"/><path class="cls-5" d="M-134.15-336.89a1.51,1.51,0,0,1-1.31,1.41,1.52,1.52,0,0,1-1.43-1.3,1.49,1.49,0,0,1,1.35-1.45A1.51,1.51,0,0,1-134.15-336.89Z" transform="translate(380.92 1009)"/><path class="cls-5" d="M-116.11-334.82a5.08,5.08,0,0,0-.52-.15l-.24-.06c-4.89-.1-11.41-.22-13.13-.24a8.46,8.46,0,0,0-3.63.41,5.78,5.78,0,0,0-2.83,2.37c-.81,1.41-4.13,7.26-6.56,11.55v.07a2.5,2.5,0,0,1-.06.38c-.12.49-.25,1-.37,1.48a.23.23,0,0,0,.16.3c.16.07.19,0,.25-.13.26-.42.52-.84.79-1.25a1.12,1.12,0,0,1,.58-.49.31.31,0,0,1,.35.06.62.62,0,0,1,.19.5,9.09,9.09,0,0,1-.21,1.73c0,.12-.07.29.12.31a.93.93,0,0,0,.34-.12s0-.07,0-.1c.2-.41.38-.83.58-1.24a1.57,1.57,0,0,1,.24-.37.47.47,0,0,1,.78,0,1.16,1.16,0,0,1,.16.89,9.71,9.71,0,0,0-.06,1.21c0,.15.09.26.24.24s.16-.12.22-.2a.74.74,0,0,0,.07-.21c.14-.41.27-.83.43-1.24a1.25,1.25,0,0,1,.26-.41.47.47,0,0,1,.75.1,1.18,1.18,0,0,1,.12.36c0,.38.08.76.11,1.14,0,.19.07.27.26.26s.34-.06.38-.29.14-.72.22-1.07a.69.69,0,0,1,.56-.53.7.7,0,0,1,.56.53.37.37,0,0,1,0,.11,9.07,9.07,0,0,1,.21,1c0,.2.12.23.29.25a.28.28,0,0,0,.31-.25c0-.2,0-.4,0-.6a6.63,6.63,0,0,1,.11-.76.47.47,0,0,1,.46-.4.52.52,0,0,1,.53.31,1.58,1.58,0,0,1,.14.36l.42,1.19c0,.08,0,.19.09.25a.38.38,0,0,0,.24.08s.1-.1.11-.16c0-.29,0-.59,0-.88h0c0-.3,0-.59,0-.89a.64.64,0,0,1,.44-.63.62.62,0,0,1,.64.4c.21.41.4.82.61,1.23a1.21,1.21,0,0,0,.2.33.21.21,0,0,0,.19.06.22.22,0,0,0,.12-.15,5.56,5.56,0,0,0-.05-.82c0-.33-.11-.65-.15-1a.73.73,0,0,1,.4-.67.59.59,0,0,1,.58.24,1.81,1.81,0,0,1,.18.27c.28.43.55.86.84,1.29a.18.18,0,0,0,.27.07.21.21,0,0,0,.12-.27c-.05-.19-.12-.38-.16-.58-.1-.4-.19-.81-.26-1.22a.51.51,0,0,1,.24-.58.65.65,0,0,1,.62.12,1.19,1.19,0,0,1,.2.19c.19.25.36.51.56.75a4,4,0,0,0,.45.47.37.37,0,0,0,.29.06s.08-.17.06-.24-.13-.38-.2-.57c-.14-.35-.28-.71-.41-1.07a.55.55,0,0,1,.13-.65.87.87,0,0,1,.58-.06.76.76,0,0,1,.35.25l1,1c.09.09.18.21.32.1a.26.26,0,0,0,.07-.35c-.09-.16-.17-.33-.25-.49-.18-.36-.36-.72-.55-1.08a.55.55,0,0,1,.11-.61.62.62,0,0,1,.66,0c.2.13.38.29.57.43s.61.47.92.69a.25.25,0,0,0,.24,0,.27.27,0,0,0,.08-.23.53.53,0,0,0-.13-.23c-.29-.43-.57-.86-.86-1.28a.64.64,0,0,1,0-.68c.11-.22.35-.16.55-.15a.65.65,0,0,1,.3.09c.21.12.41.25.61.38s.5.31.76.44a.33.33,0,0,0,.29,0c.12-.08.1-.22,0-.34l-.08-.08-.87-1a2.31,2.31,0,0,1-.25-.36.51.51,0,0,1,0-.57.64.64,0,0,1,.65-.17,2,2,0,0,1,.3.14l1.1.49a1.24,1.24,0,0,0,.31.1.33.33,0,0,0,.24-.1.27.27,0,0,0,0-.23,4.36,4.36,0,0,0-.43-.43c-.31-.29-.64-.56-.92-.87s-.21-.69.24-.84a.54.54,0,0,1,.31,0c.53.15,1.05.31,1.57.48.17.05.33.15.42-.08s-.06-.29-.21-.39-.51-.36-.76-.54-.42-.3-.61-.46a.54.54,0,0,1-.14-.61c0-.2.25-.26.44-.26a3.49,3.49,0,0,1,.65.06c.41.08.82.18,1.23.25A.34.34,0,0,0-117-330a.23.23,0,0,0-.07-.34c-.09-.06-.2-.11-.29-.16l-1.26-.68a.67.67,0,0,1-.31-.66.56.56,0,0,1,.53-.33c.33,0,.66,0,1,0l.87.05c.12,0,.24,0,.23-.16a.36.36,0,0,0-.12-.27,2.23,2.23,0,0,0-.44-.21c-.42-.18-.85-.35-1.26-.55a.45.45,0,0,1,0-.85,1.6,1.6,0,0,1,.57-.15c.37,0,.74,0,1.1,0h.33c.2,0,.26-.15.27-.29S-116-334.78-116.11-334.82Zm-6.83,3a10.8,10.8,0,0,1-2,4.77,10.21,10.21,0,0,1-3.86,3.13,8.87,8.87,0,0,1-3.89.93h-1.14a9.72,9.72,0,0,1-3.51-.81c-.16-.06-.15-.14-.08-.26l2.19-4c.43-.76.84-1.53,1.28-2.29a3.17,3.17,0,0,1,.63-.78,4.08,4.08,0,0,1,2.8-1.14c.89,0,1.79,0,2.69,0h0c.83,0,1.67,0,2.51,0s1.43.06,2.14.09C-123-332.11-122.9-332-122.94-331.81Z" transform="translate(380.92 1009)"/><path class="cls-5" d="M-143.46-354.72a5,5,0,0,0,.12.53l.06.23c2.36,4.3,5.5,10,6.34,11.51a8.46,8.46,0,0,0,2.17,2.94,5.65,5.65,0,0,0,3.46,1.28l13.28-.06.06,0a2.6,2.6,0,0,1,.36-.13c.49-.15,1-.28,1.47-.42a.25.25,0,0,0,.18-.3c0-.16-.13-.14-.24-.14-.49,0-1,0-1.48-.06a1.17,1.17,0,0,1-.71-.26.32.32,0,0,1-.12-.34.61.61,0,0,1,.34-.41,7.63,7.63,0,0,1,1.61-.68c.11,0,.28-.09.2-.26s-.18-.16-.27-.23-.07,0-.11,0l-1.37.11a1.23,1.23,0,0,1-.43,0,.47.47,0,0,1-.35-.7,1.09,1.09,0,0,1,.69-.58,10.8,10.8,0,0,0,1.07-.55.21.21,0,0,0,.09-.32c0-.07-.18-.09-.28-.1a.63.63,0,0,0-.22,0c-.43.08-.85.17-1.29.24a1.11,1.11,0,0,1-.48,0,.47.47,0,0,1-.29-.7.87.87,0,0,1,.26-.28c.3-.23.61-.46.93-.67.16-.1.2-.19.1-.35s-.22-.27-.45-.19-.69.24-1,.34a.67.67,0,0,1-.73-.22.7.7,0,0,1,.18-.75l.09-.06c.25-.23.5-.48.77-.69s.14-.21.07-.37a.27.27,0,0,0-.37-.14,5.29,5.29,0,0,0-.54.25,6.3,6.3,0,0,1-.72.28.49.49,0,0,1-.58-.19.54.54,0,0,1,0-.62,2.25,2.25,0,0,1,.24-.3c.27-.32.55-.64.83-.95,0-.07.14-.13.17-.21a.38.38,0,0,0-.05-.25.21.21,0,0,0-.19,0l-.77.43h0c-.26.14-.51.3-.77.43a.65.65,0,0,1-.77-.06.63.63,0,0,1,0-.76l.77-1.14a1.77,1.77,0,0,0,.19-.33.24.24,0,0,0,0-.2.22.22,0,0,0-.19,0,8.18,8.18,0,0,0-.69.45c-.26.2-.5.42-.76.62a.77.77,0,0,1-.79,0,.64.64,0,0,1-.08-.63,2,2,0,0,1,.15-.29l.7-1.37a.18.18,0,0,0-.08-.27.2.2,0,0,0-.29,0c-.14.14-.27.3-.42.43-.3.28-.61.57-.93.83a.52.52,0,0,1-.62.09.65.65,0,0,1-.2-.6.82.82,0,0,1,.06-.27c.12-.29.26-.57.37-.86a3.51,3.51,0,0,0,.19-.63.42.42,0,0,0-.1-.28s-.18,0-.24.07-.26.3-.39.45l-.72.9a.54.54,0,0,1-.64.2.83.83,0,0,1-.33-.47.69.69,0,0,1,0-.42c.12-.47.25-.93.37-1.39,0-.12.09-.26-.08-.33a.25.25,0,0,0-.33.12l-.3.46c-.23.33-.45.67-.67,1a.53.53,0,0,1-.58.21.61.61,0,0,1-.37-.55c0-.24,0-.47.08-.71s.11-.76.15-1.14a.28.28,0,0,0-.12-.21.32.32,0,0,0-.25.05.73.73,0,0,0-.13.23c-.23.46-.46.92-.68,1.38a.66.66,0,0,1-.57.37c-.25,0-.31-.23-.41-.4a.71.71,0,0,1-.07-.32c0-.23,0-.47,0-.71s0-.59,0-.88a.35.35,0,0,0-.15-.25c-.13-.06-.24,0-.3.16a.42.42,0,0,0,0,.1l-.42,1.25a2.09,2.09,0,0,1-.19.4.51.51,0,0,1-.5.27.65.65,0,0,1-.48-.48c0-.1,0-.21,0-.32l-.12-1.21a1.09,1.09,0,0,0-.08-.31c0-.07-.12-.16-.19-.16s-.17.08-.19.15a4.91,4.91,0,0,0-.16.58c-.1.41-.16.83-.3,1.23s-.49.52-.84.2a.5.5,0,0,1-.14-.27c-.13-.53-.26-1.07-.37-1.6,0-.17,0-.36-.28-.32s-.22.19-.23.37-.05.62-.09.93-.05.51-.09.76a.57.57,0,0,1-.46.43.41.41,0,0,1-.45-.26,5.46,5.46,0,0,1-.27-.6c-.14-.39-.25-.79-.4-1.19a.33.33,0,0,0-.24-.17.22.22,0,0,0-.25.23c0,.11,0,.22,0,.33,0,.48,0,1,0,1.43a.66.66,0,0,1-.42.6.58.58,0,0,1-.55-.29c-.17-.28-.3-.59-.45-.88s-.25-.53-.39-.79-.13-.2-.25-.12a.34.34,0,0,0-.17.24,2,2,0,0,0,0,.49c0,.46.12.91.16,1.36a.46.46,0,0,1-.72.46,1.44,1.44,0,0,1-.42-.43c-.21-.3-.38-.63-.57-.95l-.16-.28a.28.28,0,0,0-.39-.09C-143.45-355-143.48-354.82-143.46-354.72Zm6,4.42a10.8,10.8,0,0,1,5.13-.64,10.21,10.21,0,0,1,4.63,1.79,8.7,8.7,0,0,1,2.74,2.92l.57,1a9.72,9.72,0,0,1,1,3.45c0,.17,0,.2-.18.21l-4.53.06c-.87,0-1.75,0-2.62,0a3,3,0,0,1-1-.15,4.06,4.06,0,0,1-2.38-1.86c-.43-.79-.89-1.56-1.34-2.34h0c-.42-.73-.85-1.45-1.25-2.18s-.66-1.27-1-1.9C-137.7-350.13-137.64-350.23-137.45-350.3Z" transform="translate(380.92 1009)"/><path class="cls-5" d="M-146.95-321a4.64,4.64,0,0,0,.39-.38l.17-.17c2.51-4.2,5.85-9.8,6.72-11.29a8.5,8.5,0,0,0,1.44-3.35,5.81,5.81,0,0,0-.65-3.64c-.82-1.4-4.26-7.18-6.78-11.42l-.06,0-.3-.24-1.1-1.06a.24.24,0,0,0-.35,0c-.13.1-.05.19,0,.28l.69,1.31a1.13,1.13,0,0,1,.14.74.3.3,0,0,1-.23.27.6.6,0,0,1-.52-.07,8.39,8.39,0,0,1-1.4-1c-.09-.08-.23-.2-.33,0a1,1,0,0,0-.07.35s.05.06.07.09c.26.37.53.74.79,1.12a1.44,1.44,0,0,1,.2.39.46.46,0,0,1-.42.65,1.12,1.12,0,0,1-.85-.3,11,11,0,0,0-1-.65.21.21,0,0,0-.33.09.45.45,0,0,0,.06.29.75.75,0,0,0,.15.16c.29.33.59.65.87,1a1.17,1.17,0,0,1,.22.43.47.47,0,0,1-.46.6.83.83,0,0,1-.37-.08c-.35-.14-.7-.3-1.05-.47-.16-.08-.26-.06-.35.1s-.12.33.07.48.55.47.81.72a.69.69,0,0,1,.19.75.72.72,0,0,1-.74.23l-.1-.05c-.33-.1-.67-.19-1-.32s-.25,0-.35.13a.28.28,0,0,0,.06.39c.15.13.34.22.5.34s.41.3.6.47a.5.5,0,0,1,.13.6.55.55,0,0,1-.54.31,1.67,1.67,0,0,1-.38-.06l-1.24-.23c-.09,0-.18-.06-.26,0a.32.32,0,0,0-.19.17s0,.14.08.17c.25.16.51.3.77.44h0c.25.15.52.28.76.44a.65.65,0,0,1,.34.7.62.62,0,0,1-.67.35l-1.37-.08a1.6,1.6,0,0,0-.38,0,.23.23,0,0,0-.15.14.24.24,0,0,0,.07.18,6.32,6.32,0,0,0,.74.36c.3.13.61.22.92.35a.76.76,0,0,1,.38.68.63.63,0,0,1-.5.39c-.1,0-.21,0-.32,0l-1.54.09c-.11,0-.2,0-.19.2s0,.21.17.24.39.08.58.14c.4.12.8.24,1.2.39a.51.51,0,0,1,.38.48c0,.24-.22.38-.42.48a.79.79,0,0,1-.26.08c-.31,0-.62.07-.92.12a4.28,4.28,0,0,0-.64.16.39.39,0,0,0-.2.22s.11.15.18.17a4.08,4.08,0,0,0,.59.11l1.14.17a.54.54,0,0,1,.5.45.81.81,0,0,1-.24.52.79.79,0,0,1-.39.18l-1.38.39c-.12,0-.27.05-.24.23a.26.26,0,0,0,.27.23l.55,0,1.2.07a.53.53,0,0,1,.48.4c.07.16-.1.49-.29.59s-.43.19-.65.29-.71.29-1.06.45a.26.26,0,0,0-.12.21.35.35,0,0,0,.17.19.63.63,0,0,0,.27,0l1.53-.1a.63.63,0,0,1,.61.3c.13.21,0,.38-.15.55a.61.61,0,0,1-.23.22l-.62.35c-.26.14-.52.27-.77.43a.33.33,0,0,0-.13.25c0,.15.14.2.28.19l.11,0,1.29-.27a2.12,2.12,0,0,1,.44,0,.53.53,0,0,1,.49.29.68.68,0,0,1-.17.66c-.08.07-.18.12-.27.19l-1,.71a.8.8,0,0,0-.23.22.29.29,0,0,0,0,.25.25.25,0,0,0,.22.09,3.83,3.83,0,0,0,.58-.16c.41-.12.8-.28,1.21-.36s.71.16.61.62a.5.5,0,0,1-.17.26l-1.19,1.13c-.12.11-.29.21-.14.4s.28.09.44,0,.56-.27.85-.39.46-.22.7-.31a.56.56,0,0,1,.6.18.42.42,0,0,1,0,.52,4.7,4.7,0,0,1-.38.53c-.27.32-.56.62-.83.95a.34.34,0,0,0,0,.3c.05.13.19.16.33.09a1.61,1.61,0,0,0,.28-.17c.4-.25.81-.51,1.22-.75a.64.64,0,0,1,.72.06.54.54,0,0,1,0,.62,9,9,0,0,1-.53.83l-.48.74c-.06.1-.1.22,0,.28a.37.37,0,0,0,.29,0,2.23,2.23,0,0,0,.41-.27c.36-.28.72-.57,1.1-.83a.45.45,0,0,1,.75.4,1.66,1.66,0,0,1-.15.57c-.16.33-.36.64-.54,1-.05.1-.1.2-.16.3a.27.27,0,0,0,.12.37C-147.18-320.86-147-320.92-146.95-321Zm.77-7.42a10.7,10.7,0,0,1-3.15-4.11,10.15,10.15,0,0,1-.8-4.89,8.84,8.84,0,0,1,1.12-3.85c.2-.32.38-.65.57-1a10.1,10.1,0,0,1,2.44-2.65c.13-.11.2-.06.28.06l2.34,3.87c.46.75.92,1.49,1.36,2.24a3.18,3.18,0,0,1,.37.94,4.07,4.07,0,0,1-.4,3c-.47.77-.9,1.55-1.34,2.33h0c-.42.72-.82,1.46-1.25,2.18s-.77,1.2-1.14,1.81C-145.91-328.27-146-328.28-146.18-328.4Z" transform="translate(380.92 1009)"/></g></g><g id="Calendar"><g id="BKG-9" data-name="BKG"><rect class="cls-19" x="663.54" y="284.35" width="179.95" height="179.95" rx="31.57" ry="31.57"/><rect class="cls-20" x="663.54" y="284.35" width="179.95" height="168.52" rx="31.57" ry="31.57"/></g><path id="Shadow-9" data-name="Shadow" class="cls-4" d="M462.57-587.7v-18.77L405.8-662.63l-.9.88-6.2-5.6L391-668.48l-40.5.15,1.58,42.77,8,8-16.46,16.22,45.24,45.23H431A31.65,31.65,0,0,0,462.57-587.7Z" transform="translate(380.92 1009)"/><g id="Icon-9" data-name="Icon"><path class="cls-5" d="M395.4-668.72H349.79a4.76,4.76,0,0,0-4.74,4.74v45.6a4.76,4.76,0,0,0,4.74,4.74H395.4a4.75,4.75,0,0,0,4.74-4.74V-664A4.75,4.75,0,0,0,395.4-668.72ZM355-664a1.9,1.9,0,0,1-1.91-1.91,1.91,1.91,0,0,1,1.91-1.92,1.92,1.92,0,0,1,1.92,1.92A1.91,1.91,0,0,1,355-664Zm35.19,0a1.91,1.91,0,0,1-1.92-1.91,1.92,1.92,0,0,1,1.92-1.92,1.92,1.92,0,0,1,1.92,1.92A1.91,1.91,0,0,1,390.2-664Z" transform="translate(380.92 1009)"/><path class="cls-5" d="M345-600.63h55.59a1.69,1.69,0,0,0,1.68-1.79L400.2-632H345.06l-1.71,29.57A1.69,1.69,0,0,0,345-600.63Z" transform="translate(380.92 1009)"/><path class="cls-3" d="M340.49-663.11h64.22a1.68,1.68,0,0,1,1.65,2l-6.21,29.32H345.08l-6.24-29.32A1.67,1.67,0,0,1,340.49-663.11Z" transform="translate(380.92 1009)"/><path class="cls-2" d="M362.48-630.68l.74,0h.71a9,9,0,0,1,4.93,1.16q1.77,1.15,1.77,4a4.89,4.89,0,0,1-1.68,3.84,6.54,6.54,0,0,1-4.47,1.49q-3.59,0-5-2.21a9,9,0,0,1-1-4h-3.68a10.11,10.11,0,0,0,2.24,6.65c1.49,1.82,3.9,2.73,7.21,2.73s5.74-.84,7.51-2.53a8.63,8.63,0,0,0,2.64-6.54,7.15,7.15,0,0,0-1.24-4.24,5.84,5.84,0,0,0-1.9-1.7h-8.81Z" transform="translate(380.92 1009)"/><path class="cls-2" d="M371.75-633.82a4.26,4.26,0,0,0,1-3.51,6,6,0,0,0-2.9-4.63,12.63,12.63,0,0,0-6.82-1.6q-5.43,0-7.2,3.28a7.22,7.22,0,0,0-.73,4.46h3.49a5.57,5.57,0,0,1,.48-3.09c.75-1.31,2.29-2,4.64-2a6.8,6.8,0,0,1,3.58,1,3.48,3.48,0,0,1,1.81,2.7,2.88,2.88,0,0,1-1.85,3.28,8.12,8.12,0,0,1-3.19.53l-.81,0c-.25,0-.55,0-.92-.07l.17,1.52h8.82a8.89,8.89,0,0,0-1.63-.53A5.27,5.27,0,0,0,371.75-633.82Z" transform="translate(380.92 1009)"/><path class="cls-2" d="M391.2-643.43h-2.78c-.63,1.81-1.46,3-2.5,3.45a17.43,17.43,0,0,1-5.41,1l-.16,2.26H387l-.35,4.7h3.76Z" transform="translate(380.92 1009)"/><rect class="cls-2" x="767.53" y="377.02" width="3.76" height="14.24"/></g></g><g id="Calculator"><g id="BKG-10" data-name="BKG"><rect class="cls-21" x="156.43" y="284.35" width="179.95" height="179.95" rx="31.57" ry="31.57"/><rect class="cls-22" x="156.43" y="284.35" width="179.95" height="168.52" rx="31.57" ry="31.57"/></g><g id="Shadow-10" data-name="Shadow"><path class="cls-22" d="M-124.37-650.79l-.64-7.1,2.35-5.65,8.76-4.32,9.84,2.61,59.52,59.52v-87.35a31.67,31.67,0,0,0-31.57-31.57H-192.92a31.67,31.67,0,0,0-31.57,31.57V-587.7a31.66,31.66,0,0,0,31.57,31.57H-117l-48.34-48.33-1.73-4.1-.64-7.11,2.35-5.64,8.76-4.33,9.84,2.62,66.9,66.89h3.77l1.53,0-90.36-90.36-1.73-4.1-.64-7.1,2.35-5.65,8.76-4.32,9.84,2.61,42.27,42.27h0l53.53,53.53a30.11,30.11,0,0,0,2.06-3.24l-74.18-74.17Z" transform="translate(380.92 1009)"/><path class="cls-22" d="M-122.63-604.24l-1.74-4.1-.64-7.11,2.36-5.64,8.75-4.33,9.81,2.61-42.27-42.27-9.84-2.61-8.76,4.32-2.35,5.65.64,7.1,1.73,4.1,90.36,90.36h0Z" transform="translate(380.92 1009)"/><path class="cls-23" d="M-122.63-604.24l-1.74-4.1-.64-7.11,2.36-5.64,8.75-4.33,9.81,2.61-42.27-42.27-9.84-2.61-8.76,4.32-2.35,5.65.64,7.1,1.73,4.1,90.36,90.36h0Z" transform="translate(380.92 1009)"/><polygon class="cls-22" points="224.3 383.36 215.54 387.69 213.19 393.33 213.83 400.44 215.56 404.54 263.9 452.88 301.04 452.88 234.14 385.98 224.3 383.36"/><polygon class="cls-23" points="224.3 383.36 215.54 387.69 213.19 393.33 213.83 400.44 215.56 404.54 263.9 452.88 301.04 452.88 234.14 385.98 224.3 383.36"/><path class="cls-22" d="M-44.54-605.73l-59.52-59.52-9.84-2.61-8.76,4.32-2.35,5.65.64,7.1,1.73,4.11,74.18,74.17a31.24,31.24,0,0,0,3.92-15.19Z" transform="translate(380.92 1009)"/><path class="cls-23" d="M-44.54-605.73l-59.52-59.52-9.84-2.61-8.76,4.32-2.35,5.65.64,7.1,1.73,4.11,74.18,74.17a31.24,31.24,0,0,0,3.92-15.19Z" transform="translate(380.92 1009)"/><path class="cls-22" d="M-104.09-622.81l53.56,53.56v0L-104-622.8Z" transform="translate(380.92 1009)"/><path class="cls-23" d="M-104.09-622.81l53.56,53.56v0L-104-622.8Z" transform="translate(380.92 1009)"/><path class="cls-22" d="M-122.65-621.09l-2.36,5.64.64,7.11,1.74,4.1,48.07,48.08a31.64,31.64,0,0,0,24-13.09l-53.56-53.56-9.81-2.61Z" transform="translate(380.92 1009)"/><path class="cls-23" d="M-122.65-621.09l-2.36,5.64.64,7.11,1.74,4.1,48.07,48.08a31.64,31.64,0,0,0,24-13.09l-53.56-53.56-9.81-2.61Z" transform="translate(380.92 1009)"/><path class="cls-23" d="M-122.65-621.09l-2.36,5.64.64,7.11,1.74,4.1,48.07,48.08a31.64,31.64,0,0,0,24-13.09l-53.56-53.56-9.81-2.61Z" transform="translate(380.92 1009)"/></g><g id="Icon-10" data-name="Icon"><path class="cls-24" d="M-113.27-626.56a13.13,13.13,0,0,0-13.13,13.13,13.12,13.12,0,0,0,13.13,13.12,13.11,13.11,0,0,0,13.12-13.12A13.12,13.12,0,0,0-113.27-626.56Zm7.36,18.09h-14.73v-4.11h14.73Zm0-5.82h-14.73v-4.11h14.73Z" transform="translate(380.92 1009)"/><path class="cls-3" d="M-155.76-669a13.12,13.12,0,0,0-13.12,13.13,13.11,13.11,0,0,0,13.12,13.12,13.12,13.12,0,0,0,13.13-13.12A13.13,13.13,0,0,0-155.76-669Zm7.37,15.18h-14.73V-658h14.73Z" transform="translate(380.92 1009)"/><path class="cls-3" d="M-155.76-626.56a13.12,13.12,0,0,0-13.12,13.13,13.11,13.11,0,0,0,13.12,13.12,13.12,13.12,0,0,0,13.13-13.12A13.13,13.13,0,0,0-155.76-626.56Zm6.67,16.88-2.91,2.91-3.76-3.75-3.75,3.75-2.91-2.91,3.75-3.75-3.75-3.76,2.91-2.91,3.75,3.76,3.76-3.76,2.91,2.91-3.76,3.76Z" transform="translate(380.92 1009)"/><path class="cls-3" d="M-113.27-669a13.13,13.13,0,0,0-13.13,13.13,13.12,13.12,0,0,0,13.13,13.12,13.11,13.11,0,0,0,13.12-13.12A13.12,13.12,0,0,0-113.27-669Zm7.36,15.18h-5.31v5.31h-4.11v-5.31h-5.31V-658h5.31v-5.31h4.11V-658h5.31Z" transform="translate(380.92 1009)"/></g></g><g id="Contacts"><g id="BKG-11" data-name="BKG"><rect class="cls-25" x="918.51" y="283.35" width="179.95" height="179.95" rx="31.57" ry="31.57"/><rect class="cls-26" x="918.51" y="283.35" width="179.95" height="168.52" rx="31.57" ry="31.57"/></g><path id="Shadow-11" data-name="Shadow" class="cls-4" d="M717.39-585.63,636.9-666.12l-30.57,64.83,44.16,44.16H686A31.67,31.67,0,0,0,717.39-585.63Z" transform="translate(380.92 1009)"/><g id="Icon-11" data-name="Icon"><circle class="cls-5" cx="1008.49" cy="352.09" r="13.13"/><path class="cls-5" d="M999.43,365.21h18.12a12.18,12.18,0,0,1,12.18,12.18v30.3a0,0,0,0,1,0,0H987.25a0,0,0,0,1,0,0v-30.3A12.18,12.18,0,0,1,999.43,365.21Z"/><rect class="cls-5" x="1003.83" y="361.04" width="9.3" height="10.19"/></g></g><g id="Photos"><g id="BKG-12" data-name="BKG"><rect class="cls-2" x="156.43" y="1179.39" width="179.95" height="179.95" rx="31.57" ry="31.57"/><rect class="cls-3" x="156.43" y="1179.39" width="179.95" height="168.52" rx="31.57" ry="31.57"/></g><path id="Shadow-12" data-name="Shadow" class="cls-4" d="M-44.54,307.35v-5.23L-110,236.64A10.67,10.67,0,0,1-109.2,250a10.64,10.64,0,0,1,8.8,10.45A10.66,10.66,0,0,1-109.3,271a10.64,10.64,0,0,1-1.17,13.61,10.65,10.65,0,0,1-13.7,1.12,10.63,10.63,0,0,1-10.45,8.79h0a10.66,10.66,0,0,1-10.47-8.89,10.66,10.66,0,0,1-13.61-1.17l54.51,54.51h28.08A31.67,31.67,0,0,0-44.54,307.35Z" transform="translate(380.92 1009)"/><g id="Icon-12" data-name="Icon"><rect class="cls-27" x="-132.62" y="256.72" width="21.22" height="32.62" rx="10.61" ry="10.61" transform="translate(365.69 1561.37) rotate(135)"/><rect class="cls-28" x="-157.79" y="256.56" width="21.22" height="32.62" rx="10.61" ry="10.61" transform="translate(-63.27 1370.76) rotate(-135)"/><rect class="cls-29" x="-132.47" y="231.56" width="21.22" height="32.62" rx="10.61" ry="10.61" transform="translate(520.5 1167.76) rotate(45)"/><rect class="cls-30" x="-157.63" y="231.4" width="21.22" height="32.62" rx="10.61" ry="10.61" transform="translate(162.7 977.6) rotate(-45)"/><rect class="cls-31" x="235.9" y="1235.27" width="21.22" height="32.62" rx="10.61" ry="10.61"/><rect class="cls-32" x="-162.92" y="243.95" width="21.22" height="32.62" rx="10.61" ry="10.61" transform="translate(-31.65 1116.95) rotate(-90)"/><rect class="cls-33" x="-127.34" y="244.17" width="21.22" height="32.62" rx="10.61" ry="10.61" transform="translate(524.68 1386.2) rotate(90)"/><rect class="cls-34" x="-145.24" y="261.85" width="21.22" height="32.62" rx="10.61" ry="10.61" transform="translate(111.67 1565.32) rotate(180)"/></g></g><g id="Notes"><g id="BKG-13" data-name="BKG"><rect class="cls-35" x="664.53" y="581.35" width="179.95" height="179.95" rx="31.57" ry="31.57"/><rect class="cls-36" x="664.53" y="581.35" width="179.95" height="168.52" rx="31.57" ry="31.57"/></g><path id="Shadow-13" data-name="Shadow" class="cls-4" d="M400.49-372l-53.77,8.62,28.75,28.74L346.72-303.3l44.18,44.17H432a31.66,31.66,0,0,0,31.57-31.57V-309Z" transform="translate(380.92 1009)"/><g id="Icon-13" data-name="Icon"><rect class="cls-5" x="727.63" y="646.97" width="53.76" height="58.72"/><rect class="cls-35" x="727.63" y="636.96" width="53.76" height="8.61"/><path class="cls-35" d="M374.57-356.91c.57-.14,1.08-.1,1.18.09l-.25-1a1.12,1.12,0,0,0-1.36-.82,1.11,1.11,0,0,0-.82,1.35l.24,1C373.62-356.54,374-356.78,374.57-356.91Z" transform="translate(380.92 1009)"/><path class="cls-35" d="M374.83-355.83c-.53.13-.94.37-1,.58l9.36,38.48c.15.6,2.47,7.59,3.08,7.91.36-.51-.75-7.84-.9-8.44L376-355.74C375.91-355.93,375.41-356,374.83-355.83Z" transform="translate(380.92 1009)"/></g></g><g id="Weather"><g id="BKG-14" data-name="BKG"><rect class="cls-15" x="918.51" y="581.35" width="179.95" height="179.95" rx="31.57" ry="31.57"/><rect class="cls-16" x="918.51" y="581.35" width="179.95" height="168.52" rx="31.57" ry="31.57"/></g><path id="Shadow-14" data-name="Shadow" class="cls-4" d="M714.91-278.11l-69.56-69.56-49.08,29.83L655-259.13h31A31.69,31.69,0,0,0,714.91-278.11Z" transform="translate(380.92 1009)"/><g id="Icon-14" data-name="Icon"><circle class="cls-36" cx="987.27" cy="662.28" r="13.13"/><path class="cls-5" d="M648.93-335a9.39,9.39,0,0,1,6-.38,10.13,10.13,0,0,1,6.88,10.67c-.61,5.35-4.37,9.18-9.12,9.19-8.54,0-17.08,0-25.63,0-1.24,0-1.54-.33-1.54-1.66,0-10.41-1.81-18.72-1.83-29.14-1.4-2.6,4-5.79,4.77-6.08,10.18-3.94,23.43,6.48,20.43,17.39C649-334.73,648.86-335.43,648.93-335Z" transform="translate(380.92 1009)"/><path class="cls-5" d="M606.26-335a9.39,9.39,0,0,0-6-.38,10.13,10.13,0,0,0-6.88,10.67c.61,5.35,4.37,9.18,9.12,9.19,8.54,0,17.08,0,25.63,0,1.24,0,1.54-.33,1.54-1.66q0-15.61,0-31.25c0-.91-.56,3.28-1.17,2.72-8.31-7.75-20.49-1.33-22,9.73C606.38-335.7,606.33-335.43,606.26-335Z" transform="translate(380.92 1009)"/></g></g><g id="SoundCloud"><g id="BKG-15" data-name="BKG"><rect class="cls-37" x="410.65" y="879.34" width="179.95" height="179.95" rx="31.57" ry="31.57"/><rect class="cls-24" x="410.65" y="879.34" width="179.95" height="168.52" rx="31.57" ry="31.57"/></g><path id="Shadow-15" data-name="Shadow" class="cls-4" d="M208.05,17.28,151.74-39l-14.67-.72L120.69-51.89l-.16,8L117-46.44l-.54.91-3.16-2.8-.41,1.93-3.19-2.39-.55,4.34L106-47.1,104.85-42l-2.53-2.08-.7,7.4-2.93-2.94L98.28-37l-3.23-3.7-.33,5.42-3.44-3.86-1.35,5.92-2.19-2.53-1-.36-.65.2L85.77-30l68.9,68.9h23.44A31.69,31.69,0,0,0,208.05,17.28Z" transform="translate(380.92 1009)"/><g id="Icon-15" data-name="Icon"><path class="cls-5" d="M142.57-41a9,9,0,0,1,5.32-.31,8.25,8.25,0,0,1,6,8.68,8.13,8.13,0,0,1-8,7.47q-11.26,0-22.52,0c-1.09,0-1.36-.26-1.35-1.34,0-8.47,0-16.94,0-25.41a1.23,1.23,0,0,1,.94-1.34,14.5,14.5,0,0,1,19.43,11.46Z" transform="translate(380.92 1009)"/><rect class="cls-5" x="499.27" y="956.8" width="2.82" height="27.01" rx="1.41" ry="1.41"/><rect class="cls-5" x="495.58" y="962.28" width="2.82" height="21.54" rx="1.41" ry="1.41"/><rect class="cls-5" x="480.87" y="964.57" width="2.82" height="19.24" rx="1.41" ry="1.41"/><rect class="cls-5" x="477.2" y="969" width="2.82" height="14.66" rx="1.41" ry="1.41"/><rect class="cls-5" x="473.56" y="967.93" width="2.82" height="15.32" rx="1.41" ry="1.41"/><rect class="cls-5" x="469.97" y="969.67" width="2.82" height="12.63" rx="1.41" ry="1.41"/><rect class="cls-5" x="466.36" y="972.99" width="2.82" height="6.47" rx="1.41" ry="1.41"/><rect class="cls-5" x="491.88" y="960.39" width="2.82" height="23.43" rx="1.41" ry="1.41"/><rect class="cls-5" x="484.52" y="961.55" width="2.82" height="22.26" rx="1.41" ry="1.41"/><rect class="cls-5" x="488.23" y="959.88" width="2.82" height="23.94" rx="1.41" ry="1.41"/></g></g><g id="Mail"><g id="BKG-16" data-name="BKG"><rect class="cls-38" x="664.43" y="880.34" width="179.95" height="179.95" rx="31.57" ry="31.57"/><rect class="cls-39" x="664.43" y="880.34" width="179.95" height="168.52" rx="31.57" ry="31.57"/></g><path id="Shadow-16" data-name="Shadow" class="cls-4" d="M463.46,8.29V-1l-55.94-56-1.93-1.69-55.37,6.54-10.46-4.85-.4,36.72,60.08,60.08h32.45A31.67,31.67,0,0,0,463.46,8.29Z" transform="translate(380.92 1009)"/><g id="Icon-16" data-name="Icon"><path class="cls-5" d="M375.53-46.83,384-39.77,405.69-58a.35.35,0,0,0-.23-.62h-63.7a.35.35,0,0,0-.22.62l21.74,18.24,8.41-7.06A3,3,0,0,1,375.53-46.83Z" transform="translate(380.92 1009)"/><path class="cls-5" d="M375.53-30.55a3,3,0,0,1-3.84,0l-8.41-7.06L341.54-19.37a.35.35,0,0,0,.22.62h63.7a.35.35,0,0,0,.23-.62L384-37.61Z" transform="translate(380.92 1009)"/><path class="cls-5" d="M375.53-32.7,384-39.77l-8.42-7.06a3,3,0,0,0-3.84,0l-8.41,7.06,8.41,7.07A3,3,0,0,0,375.53-32.7Z" transform="translate(380.92 1009)"/><path class="cls-5" d="M339.86-57,361.71-38.8l-22,18.38a.35.35,0,0,1-.58-.27l.19-36.07A.35.35,0,0,1,339.86-57Z" transform="translate(380.92 1009)"/><path class="cls-5" d="M407.11-56.91,385.26-38.69l22,18.38a.35.35,0,0,0,.58-.27l-.19-36.07A.35.35,0,0,0,407.11-56.91Z" transform="translate(380.92 1009)"/></g></g><g id="Camera"><g id="BKG-17" data-name="BKG"><rect class="cls-17" x="918.51" y="880.34" width="179.95" height="179.95" rx="31.57" ry="31.57"/><rect class="cls-18" x="918.51" y="880.34" width="179.95" height="168.52" rx="31.57" ry="31.57"/></g><path id="Shadow-17" data-name="Shadow" class="cls-4" d="M717.54,8.29V-9.19l-59-59.06-60.92,60,48.07,48.07H686A31.66,31.66,0,0,0,717.54,8.29Z" transform="translate(380.92 1009)"/><g id="Icon-17" data-name="Icon"><rect class="cls-5" x="974.12" y="935.94" width="68.74" height="68.74" rx="14.08" ry="14.08"/><path class="cls-3" d="M646.44-53.36A5.49,5.49,0,0,1,641-58.85a5.49,5.49,0,0,1,5.49-5.48,5.49,5.49,0,0,1,5.48,5.48A5.49,5.49,0,0,1,646.44-53.36Z" transform="translate(380.92 1009)"/><path class="cls-2" d="M646.44-63.86a5,5,0,0,1,5,5,5,5,0,0,1-5,5,5,5,0,0,1-5-5,5,5,0,0,1,5-5m0-1a6,6,0,0,0-6,6,6,6,0,0,0,6,6,6,6,0,0,0,6-6,6,6,0,0,0-6-6Z" transform="translate(380.92 1009)"/><circle class="cls-3" cx="1008.49" cy="970.31" r="14.07"/><path class="cls-2" d="M627.57-51.82a13.12,13.12,0,0,1,13.12,13.13,13.12,13.12,0,0,1-13.12,13.13,13.13,13.13,0,0,1-13.13-13.13,13.13,13.13,0,0,1,13.13-13.13m0-1.89a15,15,0,0,0-15,15,15,15,0,0,0,15,15,15,15,0,0,0,15-15,15,15,0,0,0-15-15Z" transform="translate(380.92 1009)"/></g></g><g id="Elevations"><g id="BKG-18" data-name="BKG"><rect class="cls-37" x="410.78" y="1178.51" width="179.95" height="179.95" rx="31.57" ry="31.57"/><rect class="cls-24" x="410.78" y="1178.51" width="179.95" height="168.52" rx="31.57" ry="31.57"/></g><path id="Shadow-18" data-name="Shadow" class="cls-4" d="M209.81,306.46v-11.6L153.5,238.55,143,245l-8.75,7.87-19.91.76,11.4,10.95-25.84-2.06,14.18,12.43-27.85-1.59L151,338h27.28A31.65,31.65,0,0,0,209.81,306.46Z" transform="translate(380.92 1009)"/><g id="Icon-18" data-name="Icon"><path class="cls-5" d="M114.3,249.13l18.15,2.78c6.41-5.15,13.06-10.25,21-13.36-15.54,10-25.59,24.56-34,40.73l-33.23-6v-6.6l30.14,5,3.43-5.38-19.9-3.83v-5.63L123.94,261l4-4.7-13.68-2.68Z" transform="translate(380.92 1009)"/><path class="cls-5" d="M149.26,244c-10.12,10.53-16.67,23.32-23.25,36.4l-3.72-.55C129.4,266,137.75,253.81,149.26,244Z" transform="translate(380.92 1009)"/></g></g><g id="Twitch"><g id="BKG-19" data-name="BKG"><rect class="cls-40" x="665.72" y="1179.37" width="179.95" height="179.95" rx="31.57" ry="31.57"/><rect class="cls-41" x="665.72" y="1179.37" width="179.95" height="168.52" rx="31.57" ry="31.57"/></g><path id="Shadow-19" data-name="Shadow" class="cls-4" d="M464.75,307.32V283.45L407.46,226.1l-2.88,2.66-30.32.29-26.62.73-1.12,51.62-4.45,4,53.08,53.5h38A31.65,31.65,0,0,0,464.75,307.32Z" transform="translate(380.92 1009)"/><g id="Icon-19" data-name="Icon"><path class="cls-5" d="M374.35,261.48H369V243.82c1.73-.09,3.5,0,5.31,0Z" transform="translate(380.92 1009)"/><path class="cls-5" d="M385.2,261.45V243.83h5.25c.18,1.06.24,13.53.08,17.62Z" transform="translate(380.92 1009)"/><path class="cls-5" d="M367.75,294.59H359v-9.2H342.07V237.16l4.42-11.06h61v41.72L390,285.35H377Zm33.58-62.32H352.1c-.2,4.92-.12,42,.1,43.14h13.72v8.77a.18.18,0,0,0,.06.1l.13.07,9-9h16l10.23-10.23Z" transform="translate(380.92 1009)"/></g></g><g id="Parkmobile"><g id="BKG-20" data-name="BKG"><rect class="cls-42" x="918.59" y="1178.38" width="179.95" height="179.95" rx="31.57" ry="31.57"/><rect class="cls-43" x="918.59" y="1178.38" width="179.95" height="168.52" rx="31.57" ry="31.57"/></g><path id="Shadow-20" data-name="Shadow" class="cls-4" d="M717.62,306.34V302l-62.83-62.83-12.58-5-14.54-3.68-19.92,5L596.59,257l3.23,21.76L659,337.91h27A31.67,31.67,0,0,0,717.62,306.34Z" transform="translate(380.92 1009)"/><path id="Icon-20" data-name="Icon" class="cls-5" d="M622.07,284.27c.95.14,1.88.32,2.83.41A26.3,26.3,0,0,0,639.71,282a24,24,0,0,0,12.94-16.61,25.54,25.54,0,0,0-4.9-22.27A24.36,24.36,0,0,0,631,233.68,26.34,26.34,0,0,0,603.92,248a25.3,25.3,0,0,0,1.77,25.62c.1.15.18.31.31.51l-6.16,4.64c-7.55-9.68-9.84-27.07,1.35-40.63,11.44-13.84,32.44-16.35,46.95-5.57a33.07,33.07,0,0,1,7.68,45.74A34.4,34.4,0,0,1,613.92,290V242.4c.26,0,.47-.05.68-.05,6.13,0,12.25,0,18.38,0a8.61,8.61,0,0,1,4.09,1.3,14.26,14.26,0,0,1,7.85,12.78A14.62,14.62,0,0,1,636,270.23a9.05,9.05,0,0,1-3.79.81c-3.13-.05-6.25,0-9.38,0l-.73,0Zm0-35v14.38l.47,0h8a2.94,2.94,0,0,0,.51-.05,7.17,7.17,0,0,0,5.64-5.06,6.92,6.92,0,0,0-1.8-7.28,6.36,6.36,0,0,0-5-2.07c-2.4.07-4.8,0-7.2,0Z" transform="translate(380.92 1009)"/></g><g id="Ballz"><g id="BKG-21" data-name="BKG"><rect class="cls-21" x="156.43" y="1476.25" width="179.95" height="179.95" rx="31.57" ry="31.57"/><rect class="cls-22" x="156.43" y="1476.25" width="179.95" height="168.52" rx="31.57" ry="31.57"/></g><g id="Shadow-21" data-name="Shadow" class="cls-4"><path class="cls-5" d="M-44.54,604.21V604l-81.94-81.93-.77,21.33-6.64-6.62-.92,17.32-6.35-6.34-1.43,15.42,11.33,11.33-12.54,13.36,47.92,47.93h19.77A31.67,31.67,0,0,0-44.54,604.21Z" transform="translate(380.92 1009)"/></g><g id="Icon-21" data-name="Icon"><circle class="cls-5" cx="246.4" cy="1587.47" r="13.13"/><path class="cls-5" d="M-141.71,563.5a1.11,1.11,0,0,1-1.11-1.11V548.68a1.11,1.11,0,0,1,1.11-1.1,1.1,1.1,0,0,1,1.1,1.1v13.71A1.11,1.11,0,0,1-141.71,563.5Z" transform="translate(380.92 1009)"/><path class="cls-5" d="M-134.52,563.5a1.11,1.11,0,0,1-1.1-1.11V537.64a1.11,1.11,0,0,1,1.1-1.11,1.11,1.11,0,0,1,1.11,1.11v24.75A1.11,1.11,0,0,1-134.52,563.5Z" transform="translate(380.92 1009)"/><path class="cls-5" d="M-127.17,563.29a1.1,1.1,0,0,1-1.1-1.1V522.86a1.1,1.1,0,0,1,1.1-1.1,1.11,1.11,0,0,1,1.11,1.1v39.33A1.11,1.11,0,0,1-127.17,563.29Z" transform="translate(380.92 1009)"/></g></g><path d="M804.56-950.93c-22.27-21.83-64.58-47.86-139.71-47.86H-166.53c-75.08,0-117.39,26-139.66,47.86-48.66,47.7-57.22,94.91-57.22,176.47V1275c0,81.56,8.56,128.76,57.21,176.47,22.28,21.83,64.57,47.86,139.72,47.86H665c75,0,117.26-26,139.53-47.86,48.66-47.71,57.23-94.91,57.23-176.47V-774.46C861.79-856,853.22-903.23,804.56-950.93ZM796.64,1275c0,68.64-5.69,98.59-37.68,130-13.6,13.33-41,29.23-94.08,29.23H-166.48c-53.13,0-80.5-15.9-94.1-29.23-32-31.36-37.69-61.31-37.69-130V-774.46c0-68.64,5.69-98.59,37.68-129.95,13.61-13.34,41-29.23,94.08-29.23h97.32c4.83.61,11.83,3.51,12.52,15.09,1,15.9,2.91,36.86,18.66,53A60.8,60.8,0,0,0,6.21-847.22H494.63a60.78,60.78,0,0,0,44.21-18.34c15.76-16.13,17.71-37.09,18.67-53,.69-11.58,7.69-14.48,12.52-15.09h94.82c53.13,0,80.5,15.89,94.11,29.23,32,31.36,37.68,61.31,37.68,129.95Z" transform="translate(380.92 1009)"/><path class="cls-44" d="M403.9-909.78a19.18,19.18,0,0,1-19.18,19.18,19.18,19.18,0,0,1-19.17-19.18,19.17,19.17,0,0,1,19.17-19.17A19.18,19.18,0,0,1,403.9-909.78Z" transform="translate(380.92 1009)"/><path class="cls-44" d="M326-909.78a10.24,10.24,0,0,1-10.24,10.24H181.6a10.24,10.24,0,0,1-10.24-10.24h0A10.24,10.24,0,0,1,181.6-920H315.73A10.24,10.24,0,0,1,326-909.78Z" transform="translate(380.92 1009)"/><path class="cls-5" d="M-175.78-861.14c.42,1.41,2.17,2.88,5.11,2.88,5.59,0,7.67-5.4,7.49-12h-.28c-.94,2.48-3.49,4.67-7.72,4.67-5.55,0-10.1-3.81-10.1-10.51s4.83-10.75,11.17-10.75c5.72,0,11.48,3.4,11.48,15.81,0,11.21-3.9,17-12.13,17-6.05,0-9.31-3.46-9.71-7Zm5.41-21.59c-3.42,0-6.24,2.45-6.24,6.59,0,4.32,2.94,6.44,6.33,6.44a6,6,0,0,0,6.33-6.35C-163.95-880.3-166.71-882.73-170.37-882.73Z" transform="translate(380.92 1009)"/><path class="cls-5" d="M-148.22-876.86a3.48,3.48,0,0,1,3.58,3.6,3.45,3.45,0,0,1-3.58,3.54,3.44,3.44,0,0,1-3.47-3.54A3.44,3.44,0,0,1-148.22-876.86Zm0,15.48a3.47,3.47,0,0,1,3.58,3.61,3.43,3.43,0,0,1-3.58,3.51,3.42,3.42,0,0,1-3.47-3.51A3.44,3.44,0,0,1-148.22-861.38Z" transform="translate(380.92 1009)"/><path class="cls-5" d="M-118.64-886.22v21.08h4v4.27h-4v6.2h-4.5v-6.2h-15.32v-4.34c3.88-7,8.48-14,12.87-21Zm-4.5,21.08v-17h-.26c-3.53,5.3-7.3,11.17-10.49,16.76v.21Z" transform="translate(380.92 1009)"/><path class="cls-5" d="M-101.59-854.67V-881h-.24l-7.28,5.2v-4.9l7.52-5.48h4.69v31.55Z" transform="translate(380.92 1009)"/><path class="cls-5" d="M609.08-856.09a1.43,1.43,0,0,1-1.42,1.42h-4.28a1.42,1.42,0,0,1-1.42-1.42v-28.69a1.42,1.42,0,0,1,1.42-1.43h4.28a1.43,1.43,0,0,1,1.42,1.43Z" transform="translate(380.92 1009)"/><path class="cls-5" d="M971.28,130.49h4.28a1.42,1.42,0,0,1,1.42,1.42v21a1.43,1.43,0,0,1-1.43,1.43h-4.27a1.43,1.43,0,0,1-1.43-1.43v-21A1.42,1.42,0,0,1,971.28,130.49Z"/><path class="cls-5" d="M958.26,136.9h4.28a1.42,1.42,0,0,1,1.42,1.42v14.58a1.42,1.42,0,0,1-1.42,1.42h-4.27a1.43,1.43,0,0,1-1.43-1.43V138.32A1.42,1.42,0,0,1,958.26,136.9Z"/><path class="cls-5" d="M945.24,142h4.28a1.42,1.42,0,0,1,1.42,1.42v9.45a1.42,1.42,0,0,1-1.42,1.42h-4.27a1.43,1.43,0,0,1-1.43-1.43v-9.45A1.42,1.42,0,0,1,945.24,142Z"/><path class="cls-45" d="M630.6-871.82l-5.68-5.54c11.64-11.86,32-12.31,44.26,0l-5.59,5.64a23.49,23.49,0,0,0-16.5-6.7A23.26,23.26,0,0,0,630.6-871.82Z" transform="translate(380.92 1009)"/><path class="cls-45" d="M638.7-863.58l-5.62-5.51c7.27-7.48,20.34-7.69,27.82-.07l-5.5,5.61Q647-870.07,638.7-863.58Z" transform="translate(380.92 1009)"/><path class="cls-45" d="M652.5-860.76,647-855.21l-5.5-5.49C643.91-863.33,649.35-863.8,652.5-860.76Z" transform="translate(380.92 1009)"/><path class="cls-46" d="M740.08-887H691.46a7.09,7.09,0,0,0-7.08,7.08v19a7.08,7.08,0,0,0,7.08,7.08h48.62a7.09,7.09,0,0,0,7.08-7.08v-19A7.09,7.09,0,0,0,740.08-887Zm4.25,26a4.25,4.25,0,0,1-4.25,4.25H691.46a4.25,4.25,0,0,1-4.25-4.25v-19a4.25,4.25,0,0,1,4.25-4.25h48.62a4.25,4.25,0,0,1,4.25,4.25Z" transform="translate(380.92 1009)"/><path class="cls-5" d="M1072.37,127.66H1121a1.43,1.43,0,0,1,1.43,1.43v19a1.42,1.42,0,0,1-1.42,1.42h-48.62a1.43,1.43,0,0,1-1.43-1.43v-19A1.42,1.42,0,0,1,1072.37,127.66Z"/><path class="cls-5" d="M753.93-870.44a3.81,3.81,0,0,1-3.81,3.81v-7.62A3.81,3.81,0,0,1,753.93-870.44Z" transform="translate(380.92 1009)"/></svg>