<svg id="Layer_1" data-name="Layer 1" xmlns="http://www.w3.org/2000/svg" viewBox="0 0 495 494.98"><defs><style>.cls-1,.cls-3,.cls-6{fill:#fff;}.cls-2,.cls-4,.cls-5{fill:none;}.cls-3,.cls-4,.cls-5,.cls-6{stroke:#fff;stroke-miterlimit:10;}.cls-4,.cls-5{stroke-width:4px;}.cls-5{stroke-linecap:round;}.cls-6{stroke-width:3px;}</style></defs><title>Trials Wheel GW BentSpoke</title><g id="Lettering"><path class="cls-1" d="M161.51,246.27a63.66,63.66,0,0,1-11.4-1.06,36.45,36.45,0,0,1-10.85-3.64,59.57,59.57,0,0,1-9.3-6,76.13,76.13,0,0,1-8.12-7.47c-2.19-2.33-4.35-4.7-6.42-7a57.72,57.72,0,0,1-11.64,5.14,46.65,46.65,0,0,1-14,2.06c-6,0-11.1-.93-15.1-2.76a22.43,22.43,0,0,1-9.11-7,15.86,15.86,0,0,1-3.07-9.4,16.18,16.18,0,0,1,3-9.38,22,22,0,0,1,8.61-7,31.44,31.44,0,0,1,13.95-2.78,33.41,33.41,0,0,1,13.41,2.59,59.58,59.58,0,0,1,10,5.58,241.08,241.08,0,0,0,13.63-20.16c5-8.11,10.2-16.57,15.59-25.13s11.19-17.15,17.22-25.52a168.59,168.59,0,0,1,16.23-19.32,104.66,104.66,0,0,0-20,6.37,65.35,65.35,0,0,0-14.2,8.22,57.44,57.44,0,0,0-9.91,9.67,38.89,38.89,0,0,0-5.82,9.94,28.16,28.16,0,0,0-2,8.89,11.76,11.76,0,0,0,1.46,6.48,7.05,7.05,0,0,0,4.41,3.35l2.26.62-7.38,9.12-.79-.06c-6.26-.44-11.57-2-15.79-4.51A23.46,23.46,0,0,1,97,156.06a25.25,25.25,0,0,1-2.21-13.43,33.91,33.91,0,0,1,5.31-14.82,58.84,58.84,0,0,1,13-14.21,83.86,83.86,0,0,1,20.81-12A101.7,101.7,0,0,1,147.78,97a137.09,137.09,0,0,1,14.63-2.9A114.53,114.53,0,0,1,177.15,93h1.12a92.93,92.93,0,0,1,12.43.81,77.37,77.37,0,0,1,17.58-9.06,60.06,60.06,0,0,1,20.31-3.43h1.53V91.84h-1.53A25.65,25.65,0,0,0,218,94.09,41.23,41.23,0,0,0,209.93,99a40.48,40.48,0,0,1,9.65,6.08,22.55,22.55,0,0,1,7,10.91,25.62,25.62,0,0,1,1,9.12,30.42,30.42,0,0,1-2,8.79,38.72,38.72,0,0,1-4.47,8.2,59.14,59.14,0,0,1-5.18,6.29,29.18,29.18,0,0,1,8,10.82,42.29,42.29,0,0,1,3.3,15.58,62.39,62.39,0,0,1-2.11,17.44,78.68,78.68,0,0,1-7,17.51,80.92,80.92,0,0,1-11.35,15.88A65.16,65.16,0,0,1,191.37,238a62.21,62.21,0,0,1-19.06,7.18A54.87,54.87,0,0,1,161.51,246.27ZM128.45,211.7A109.47,109.47,0,0,0,140.81,220a43.42,43.42,0,0,0,16.89,5.21,64.38,64.38,0,0,0,6.83.38,47.25,47.25,0,0,0,16.17-2.69,53.43,53.43,0,0,0,17.54-10.27,51.86,51.86,0,0,0,11.66-15A49.82,49.82,0,0,0,215.23,181a35,35,0,0,0-1.29-15.16,18.67,18.67,0,0,0-6.92-9.72A85.44,85.44,0,0,1,195,163.6a70.58,70.58,0,0,1-13.32,5.28,42.63,42.63,0,0,1-11.2,1.66l-.94,0a16.48,16.48,0,0,1-8-2.06c-5,8.2-10.31,16.16-15.67,23.68A117.9,117.9,0,0,1,128.45,211.7ZM86,199.62c-4.68,0-8.1.94-10.19,2.79s-3.06,3.77-3.06,5.93,1,4.1,3.06,5.93,5.19,2.79,9.24,2.79a18.8,18.8,0,0,0,9.33-2.66,42.88,42.88,0,0,0,8.5-6.58,46,46,0,0,0-7.64-5.71A18,18,0,0,0,86,199.62Zm114.49-91.69A142,142,0,0,0,187,126c-3.78,6-7.67,12.27-11.58,18.8,1.86-.76,3.81-1.48,5.83-2.16a36.67,36.67,0,0,1,11.54-1.9,40,40,0,0,1,13,2,36.05,36.05,0,0,0,3.82-4.2,32.33,32.33,0,0,0,3.72-6,25.64,25.64,0,0,0,2.1-6.38,13.12,13.12,0,0,0-.13-5.77,16.29,16.29,0,0,0-5.37-7.79A26.53,26.53,0,0,0,200.49,107.93Z" transform="translate(-2.5 -2.51)"/><path class="cls-2" d="M228.59,82.83V90.3a27.09,27.09,0,0,0-11.2,2.39A43.84,43.84,0,0,0,207,99.37a40.05,40.05,0,0,1,11.61,6.83,20.93,20.93,0,0,1,6.52,10.18,24,24,0,0,1,1,8.58,28.53,28.53,0,0,1-1.91,8.35,36.93,36.93,0,0,1-4.29,7.86,56.21,56.21,0,0,1-6.2,7.32,27.56,27.56,0,0,1,8.82,11.28,40.74,40.74,0,0,1,3.18,15,60.49,60.49,0,0,1-2.06,17A76.45,76.45,0,0,1,216.75,209a78.68,78.68,0,0,1-11.13,15.58,63.73,63.73,0,0,1-15,12.16,60.34,60.34,0,0,1-18.6,7,52.49,52.49,0,0,1-10.49,1,62.56,62.56,0,0,1-11.13-1,35.23,35.23,0,0,1-10.41-3.5,57.67,57.67,0,0,1-9.06-5.88,75.1,75.1,0,0,1-8-7.31q-3.73-4-7.23-8a57.25,57.25,0,0,1-12.4,5.64,44.93,44.93,0,0,1-13.52,2c-5.82,0-10.65-.88-14.46-2.62a20.85,20.85,0,0,1-8.51-6.52,14.36,14.36,0,0,1-2.78-8.51,14.62,14.62,0,0,1,2.7-8.5,20.56,20.56,0,0,1,8-6.52,29.93,29.93,0,0,1,13.28-2.62,31.72,31.72,0,0,1,12.79,2.46,58.63,58.63,0,0,1,10.89,6.28,234.74,234.74,0,0,0,14.63-21.46q7.47-12.24,15.58-25.12t17.16-25.43a162,162,0,0,1,19.56-22.57,100.68,100.68,0,0,0-25.12,7.31A66.86,66.86,0,0,0,139,121.3a58.7,58.7,0,0,0-10.17,9.94,40.21,40.21,0,0,0-6,10.33,29.56,29.56,0,0,0-2.15,9.38,13.14,13.14,0,0,0,1.67,7.31,8.61,8.61,0,0,0,5.33,4.06L122.24,169q-9.06-.63-15.1-4.29a21.92,21.92,0,0,1-8.74-9.3,23.81,23.81,0,0,1-2.07-12.64,32.2,32.2,0,0,1,5.09-14.14,57,57,0,0,1,12.64-13.83A81.67,81.67,0,0,1,134.48,103a101.52,101.52,0,0,1,13.68-4.53,133.9,133.9,0,0,1,14.46-2.86,111.88,111.88,0,0,1,14.55-1.11h1.1a90.31,90.31,0,0,1,12.81.88,75.4,75.4,0,0,1,17.72-9.22,58.28,58.28,0,0,1,19.79-3.34m-56.91,65.34a86.33,86.33,0,0,1,10.1-4.06,34.91,34.91,0,0,1,11.05-1.82,37.6,37.6,0,0,1,13.35,2.22,35.17,35.17,0,0,0,4.69-5,33.6,33.6,0,0,0,3.89-6.27,27.62,27.62,0,0,0,2.23-6.76,14.64,14.64,0,0,0-.16-6.44,17.69,17.69,0,0,0-5.88-8.58,28.69,28.69,0,0,0-11-5.25,141.75,141.75,0,0,0-14.23,19q-6.92,10.89-14.07,23M170.44,169l-.9,0a13.85,13.85,0,0,1-8.51-2.7q-8,13-16.45,25a114.11,114.11,0,0,1-18.52,20.51,108.58,108.58,0,0,0,14,9.53,44.6,44.6,0,0,0,17.48,5.41,65.09,65.09,0,0,0,7,.39,48.51,48.51,0,0,0,16.69-2.78,54.63,54.63,0,0,0,18-10.57,53.08,53.08,0,0,0,12-15.42,51.13,51.13,0,0,0,5.48-17.17,36.29,36.29,0,0,0-1.35-15.81A20,20,0,0,0,207,154.21a84.61,84.61,0,0,1-12.71,8,68.36,68.36,0,0,1-13,5.16A40.8,40.8,0,0,1,170.44,169M85.05,218.59a20.13,20.13,0,0,0,10.09-2.86,45.59,45.59,0,0,0,9.94-7.95,48.31,48.31,0,0,0-9.07-7,19.46,19.46,0,0,0-10-2.71q-7.64,0-11.21,3.18a9.36,9.36,0,0,0-3.57,7.08c0,2.6,1.19,4.95,3.57,7.07s5.8,3.18,10.26,3.18M231.66,79.77h-3.07a61.3,61.3,0,0,0-20.82,3.52,78.15,78.15,0,0,0-17.45,8.91,94.51,94.51,0,0,0-12-.75h-1.14a116.13,116.13,0,0,0-14.94,1.14,138.06,138.06,0,0,0-14.79,2.92,106.72,106.72,0,0,0-14.09,4.67,85.76,85.76,0,0,0-21.19,12.22A60.32,60.32,0,0,0,98.82,127a35.52,35.52,0,0,0-5.54,15.49,26.87,26.87,0,0,0,2.36,14.24,25,25,0,0,0,9.92,10.59c4.42,2.68,10,4.27,16.47,4.73l1.59.11,1-1.24,5.41-6.68L133,160.6l-4.53-1.24a5.54,5.54,0,0,1-3.49-2.65,10.12,10.12,0,0,1-1.25-5.64,26.83,26.83,0,0,1,2-8.4,37.59,37.59,0,0,1,5.59-9.54,55.85,55.85,0,0,1,9.65-9.41,63.86,63.86,0,0,1,13.88-8,107.08,107.08,0,0,1,14.69-5.1,171.45,171.45,0,0,0-12.83,15.76c-6.06,8.39-11.87,17-17.28,25.59s-10.63,17-15.6,25.16c-4.29,7-8.55,13.36-12.67,18.87a59.36,59.36,0,0,0-9-4.9,34.82,34.82,0,0,0-14-2.72,33.06,33.06,0,0,0-14.63,2.93,23.66,23.66,0,0,0-9.19,7.52A17.67,17.67,0,0,0,61,209.05a17.45,17.45,0,0,0,3.35,10.29,23.9,23.9,0,0,0,9.72,7.52c4.2,1.92,9.5,2.9,15.74,2.9a48.07,48.07,0,0,0,14.43-2.13A58.66,58.66,0,0,0,115.09,223c1.83,2.05,3.72,4.1,5.64,6.14a77.23,77.23,0,0,0,8.28,7.62,61.16,61.16,0,0,0,9.54,6.19,38.23,38.23,0,0,0,11.31,3.81,66.18,66.18,0,0,0,11.65,1.07,56.39,56.39,0,0,0,11.1-1.09,63.68,63.68,0,0,0,19.53-7.35,67.35,67.35,0,0,0,15.74-12.74,82.47,82.47,0,0,0,11.56-16.19,80.11,80.11,0,0,0,7.11-17.85,63.6,63.6,0,0,0,2.16-17.87,44.07,44.07,0,0,0-3.42-16.15,31,31,0,0,0-7.19-10.32,59.65,59.65,0,0,0,4.25-5.29,40.43,40.43,0,0,0,4.64-8.53,31.42,31.42,0,0,0,2.11-9.23,26.9,26.9,0,0,0-1.07-9.68,23.91,23.91,0,0,0-7.45-11.62,40,40,0,0,0-7.68-5.18,37.55,37.55,0,0,1,5.74-3.23,24.22,24.22,0,0,1,10-2.11h3.07V79.77Zm-52.6,62c3.13-5.18,6.24-10.19,9.28-15A142.51,142.51,0,0,1,201,109.68a24.16,24.16,0,0,1,8,4.14,14.6,14.6,0,0,1,4.87,7.06,11.61,11.61,0,0,1,.1,5,24.82,24.82,0,0,1-2,6,31,31,0,0,1-3.54,5.71,36.9,36.9,0,0,1-3,3.4,42.17,42.17,0,0,0-12.61-1.8,38,38,0,0,0-12,2l-1.75.6Zm-8.62,30.26A44.31,44.31,0,0,0,182,170.36a71.49,71.49,0,0,0,13.62-5.4A86.87,86.87,0,0,0,207,158a17.22,17.22,0,0,1,5.48,8.29,33.53,33.53,0,0,1,1.22,14.5,48,48,0,0,1-5.17,16.13,50.29,50.29,0,0,1-11.32,14.54,52.06,52.06,0,0,1-17.05,10A45.86,45.86,0,0,1,164.53,224a61.6,61.6,0,0,1-6.67-.38,41.91,41.91,0,0,1-16.29-5,104.88,104.88,0,0,1-10.72-7A119.82,119.82,0,0,0,147.07,193c5.12-7.18,10.15-14.75,15-22.55a19.18,19.18,0,0,0,7.4,1.57l1,0ZM85.05,215.53c-3.66,0-6.43-.81-8.22-2.41a5.76,5.76,0,0,1,0-9.57c1.79-1.59,4.88-2.4,9.17-2.4a16.29,16.29,0,0,1,8.47,2.28,43.33,43.33,0,0,1,6.14,4.43,38.94,38.94,0,0,1-7,5.21,17.24,17.24,0,0,1-8.57,2.46Z" transform="translate(-2.5 -2.51)"/><path class="cls-1" d="M251.43,217.42a25.76,25.76,0,0,1-12.07-2.64,19.42,19.42,0,0,1-7.84-7.33,22.26,22.26,0,0,1-2.92-10.83,33.22,33.22,0,0,1,2.49-12.92c4.11-10.49,9.7-18.6,16.61-24.09A36.69,36.69,0,0,1,271,151.25c4.75,0,8.43,1.3,10.95,3.88a14.53,14.53,0,0,1,4.16,9.21,22.5,22.5,0,0,1-2.19,11.08,29.23,29.23,0,0,1-8,10.32A26.86,26.86,0,0,1,258.43,192h-9c-.88,3.81-.37,6.88,1.54,9.39,2.1,2.75,5.31,4.09,9.83,4.09a21.89,21.89,0,0,0,6.46-1.05,33.77,33.77,0,0,0,6.54-2.81,31,31,0,0,0,5.68-4.09,25.28,25.28,0,0,0,4.2-4.87l1.33-2,4.4,7.24-.36.75c-2.79,5.91-7.62,10.59-14.38,13.91A52.27,52.27,0,0,1,251.43,217.42Zm4.45-34.54a7.56,7.56,0,0,0,5.2-1.84,20.21,20.21,0,0,0,4.4-6.35,44.81,44.81,0,0,0,2.95-6.52,20.57,20.57,0,0,0,1.19-5,3,3,0,0,0-.39-2.11.55.55,0,0,0-.26,0,4.07,4.07,0,0,0-1.39.34,10.27,10.27,0,0,0-3.2,2.51,38.55,38.55,0,0,0-4.2,5.35c-1.46,2.18-3,4.66-4.47,7.36a69.61,69.61,0,0,0-3.1,6.31Z" transform="translate(-2.5 -2.51)"/><path class="cls-2" d="M272.63,152.78q6.51,0,9.85,3.42a13,13,0,0,1,3.74,8.26,21.09,21.09,0,0,1-2.07,10.34,27.54,27.54,0,0,1-7.55,9.77,25.28,25.28,0,0,1-16.53,5.88H249.89q-2.07,7.16,1.51,11.85t11,4.69a23,23,0,0,0,6.92-1.12,35.28,35.28,0,0,0,6.83-2.94,31.91,31.91,0,0,0,6-4.29,26.18,26.18,0,0,0,4.46-5.17l2.7,4.46q-4,8.41-13.67,13.19t-22.58,4.77a24,24,0,0,1-11.36-2.47,17.83,17.83,0,0,1-7.24-6.75,20.69,20.69,0,0,1-2.7-10.1,31.61,31.61,0,0,1,2.39-12.32q6-15.41,16.13-23.44a35,35,0,0,1,22.34-8M252,184.41h5.56a9.09,9.09,0,0,0,6.2-2.22,21.24,21.24,0,0,0,4.77-6.84,44.09,44.09,0,0,0,3-6.67,21.35,21.35,0,0,0,1.27-5.41A4.2,4.2,0,0,0,272,160a1.78,1.78,0,0,0-1.38-.54,5.62,5.62,0,0,0-2,.46,12,12,0,0,0-3.73,2.86,39.93,39.93,0,0,0-4.37,5.57q-2.24,3.33-4.54,7.47a73.1,73.1,0,0,0-4,8.58m20.67-34.69a38.17,38.17,0,0,0-24.24,8.69c-7.13,5.67-12.88,14-17.08,24.73a34.74,34.74,0,0,0-2.6,13.52,23.62,23.62,0,0,0,3.13,11.57,21,21,0,0,0,8.44,7.91A27.4,27.4,0,0,0,253.07,219,53.87,53.87,0,0,0,277,213.87c7.07-3.48,12.15-8.41,15.09-14.64l.7-1.49-.85-1.4-2.71-4.45-2.53-4.18-2.65,4.1a23.88,23.88,0,0,1-3.95,4.57,29,29,0,0,1-5.39,3.88,32.83,32.83,0,0,1-6.25,2.69,20.19,20.19,0,0,1-6,1c-4,0-6.82-1.14-8.61-3.48a8.74,8.74,0,0,1-1.5-6.92h7.73a28.41,28.41,0,0,0,18.48-6.58,30.77,30.77,0,0,0,8.39-10.89,24,24,0,0,0,2.33-11.84,16.06,16.06,0,0,0-4.6-10.15c-2.81-2.88-6.86-4.34-12-4.34Zm-16,31.63c.65-1.37,1.34-2.72,2.07-4,1.49-2.67,3-5.11,4.4-7.26a37,37,0,0,1,4-5.14,9.24,9.24,0,0,1,2.62-2.12,2.44,2.44,0,0,1,0,.26,18.84,18.84,0,0,1-1.11,4.6,41.59,41.59,0,0,1-2.81,6.22l0,.07,0,.07a18.57,18.57,0,0,1-4,5.86,6.07,6.07,0,0,1-4.19,1.47Z" transform="translate(-2.5 -2.51)"/><path class="cls-1" d="M323.44,217.42a17.27,17.27,0,0,1-7.23-1.41,10.5,10.5,0,0,1-4.91-4.46,13.41,13.41,0,0,1-1.47-7.17,27.26,27.26,0,0,1,2.35-9.27l10.33-24.8c.29-.73.57-1.74.2-2.31a1.71,1.71,0,0,0-1.56-.74H321a10.6,10.6,0,0,0-3.7.85A13.09,13.09,0,0,0,313,171c-.15.38-.28.76-.4,1.17s-.37,1.13-.6,1.71c-.63,1.68-1.52,3.88-2.71,6.71s-2.29,5.5-3.41,8.31-2.18,5.4-3.2,7.75-1.64,3.86-1.95,4.7c-.68,1.78-.82,3.17-.39,4s2,1.06,3.24,1.06h4l-4.51,9.67-.71.18c-.86.22-1.77.43-2.73.65a32.64,32.64,0,0,1-6.22.51c-6.66,0-10.95-2-12.75-5.81s-1.11-9.17,2-16.65l11.29-27.5c.78-1.73.94-3,.51-3.93s-2-1.11-3.23-1.11h-4l4.5-9.68.71-.18,2.74-.64a22.67,22.67,0,0,1,3-.51,31.91,31.91,0,0,1,3.26-.16c8,0,11.39,3,12.75,6.28a31.68,31.68,0,0,1,7-4.17,24.79,24.79,0,0,1,9.83-2.11c5.74,0,9.82,2,12.12,5.83s2,9.26-1,16.47c-.52,1.35-1.26,3.24-2.22,5.63s-2,4.86-3,7.41-2,4.92-2.93,7.14-1.56,3.8-2,4.81-.69,2-.13,2.48a3.06,3.06,0,0,0,2,.59,7.18,7.18,0,0,0,1.17-.11,12.78,12.78,0,0,0,5.3-2.57,16.54,16.54,0,0,0,4.79-6.12l1.22-2.54,4.57,7.53-.3.71a28.13,28.13,0,0,1-4.62,7.48,34.54,34.54,0,0,1-6.49,5.91,33.88,33.88,0,0,1-7.66,4A23.87,23.87,0,0,1,323.44,217.42Z" transform="translate(-2.5 -2.51)"/><path class="cls-2" d="M332.55,152.78q7.8,0,10.81,5.09T342.25,173q-.79,2.07-2.22,5.64T337,186c-1.06,2.55-2.05,4.93-2.94,7.16s-1.57,3.81-2,4.77q-1.27,3,.32,4.29a4.59,4.59,0,0,0,2.94.92,8.25,8.25,0,0,0,1.43-.13,14.25,14.25,0,0,0,6-2.86,17.63,17.63,0,0,0,5.24-6.68l2.71,4.46a26.73,26.73,0,0,1-4.37,7.07,33.35,33.35,0,0,1-6.2,5.64,32.29,32.29,0,0,1-7.32,3.82,22.28,22.28,0,0,1-7.71,1.43,15.84,15.84,0,0,1-6.59-1.27,9,9,0,0,1-4.22-3.82,11.87,11.87,0,0,1-1.27-6.36,26,26,0,0,1,2.23-8.74l10.33-24.8c.64-1.59.66-2.83.08-3.73a3.26,3.26,0,0,0-2.78-1.44h-.27a11.85,11.85,0,0,0-4.26,1,14.84,14.84,0,0,0-5,3.42c-.21.53-.4,1.06-.56,1.59s-.34,1.06-.55,1.59c-.64,1.69-1.54,3.92-2.7,6.67s-2.31,5.54-3.42,8.35-2.18,5.38-3.18,7.71-1.67,3.92-2,4.77c-.85,2.22-.95,4-.32,5.24s2.17,1.91,4.61,1.91h1.59l-3.18,6.84q-1.28.32-2.7.63a30.42,30.42,0,0,1-5.88.48q-9.06,0-11.37-4.93t2-15.42L297,168q1.43-3.18.47-5.17t-4.61-2h-1.59l3.18-6.84,2.71-.64a19.36,19.36,0,0,1,2.78-.47,28.45,28.45,0,0,1,3.1-.16q10.8,0,11.92,7.47a29.74,29.74,0,0,1,8.43-5.48,23,23,0,0,1,9.21-2m0-3.06A26.39,26.39,0,0,0,322.12,152a33.51,33.51,0,0,0-5.84,3.27c-1.94-3-5.81-5.5-13.29-5.5-1.15,0-2.3.06-3.42.17a23.75,23.75,0,0,0-3.17.54c-1,.22-1.9.44-2.74.65l-1.42.35-.61,1.33-3.18,6.83-2,4.36h6.39a3.85,3.85,0,0,1,1.87.3,3.92,3.92,0,0,1-.53,2.53l0,.05,0,0-11.28,27.5c-3.23,7.9-3.86,13.74-1.93,17.88C283,216.7,287.73,219,295,219a33.4,33.4,0,0,0,6.48-.54h.07l2.77-.65,1.42-.36.62-1.32,3.18-6.84.56-1.21a12.76,12.76,0,0,0,1.47,4.28,11.91,11.91,0,0,0,5.61,5.1,18.75,18.75,0,0,0,7.86,1.55,25.24,25.24,0,0,0,8.77-1.62,35.13,35.13,0,0,0,8-4.18,35.84,35.84,0,0,0,6.77-6.16,29.74,29.74,0,0,0,4.87-7.89l.6-1.43-.81-1.33-2.7-4.46-2.93-4.82-2.44,5.09a14.88,14.88,0,0,1-4.33,5.55,11.28,11.28,0,0,1-4.64,2.29,5.18,5.18,0,0,1-.91.09,2.18,2.18,0,0,1-.73-.1,5,5,0,0,1,.28-.84c.45-1,1.13-2.64,2-4.83s1.83-4.49,2.93-7.13,2.13-5.15,3-7.43,1.67-4.2,2.23-5.65c3.16-7.67,3.45-13.49.9-17.8s-7.12-6.58-13.45-6.58Zm-16.61,22.11a11.48,11.48,0,0,1,3.51-2.29,8.82,8.82,0,0,1,3.14-.75h.14l.26,0a3.71,3.71,0,0,1-.27.94L312.4,194.52a29,29,0,0,0-2.46,9.8c0,.19,0,.37,0,.56h-4.72a4.29,4.29,0,0,1-1.9-.29,4.53,4.53,0,0,1,.47-2.71c.22-.58.73-1.85,1.94-4.65,1-2.35,2.1-5,3.21-7.79s2.26-5.61,3.4-8.28,2.08-5,2.73-6.77c.25-.61.46-1.23.64-1.82.07-.25.15-.49.24-.74Z" transform="translate(-2.5 -2.51)"/><path class="cls-1" d="M355.24,217.42A17.32,17.32,0,0,1,348,216a10.5,10.5,0,0,1-4.91-4.46,13.37,13.37,0,0,1-1.47-7.17,27.74,27.74,0,0,1,2.35-9.27l18.19-44h-9.35L358.94,140h7.82l1.83-4.58L391.28,131,387.57,140h14.61L396,151.13H383.13l-19.48,47.38c-.38.9-.71,2.06-.15,2.51a3.06,3.06,0,0,0,2,.59,7.18,7.18,0,0,0,1.17-.11,12.78,12.78,0,0,0,5.3-2.57,16.54,16.54,0,0,0,4.79-6.12l1.22-2.54,4.57,7.53-.3.71a28.13,28.13,0,0,1-4.62,7.48,34.23,34.23,0,0,1-6.49,5.91,33.67,33.67,0,0,1-7.66,4A23.86,23.86,0,0,1,355.24,217.42Z" transform="translate(-2.5 -2.51)"/><path class="cls-2" d="M390.42,133.07l-3.5,8.42h14.31l-4.45,8.11h-13l-19.87,48.33q-1.28,3,.32,4.29a4.59,4.59,0,0,0,2.94.92,8.17,8.17,0,0,0,1.43-.13,14.25,14.25,0,0,0,6-2.86,17.75,17.75,0,0,0,5.25-6.68l2.7,4.46A26.73,26.73,0,0,1,378.1,205a33.35,33.35,0,0,1-6.2,5.64,32.29,32.29,0,0,1-7.32,3.82,22.27,22.27,0,0,1-7.7,1.43,15.86,15.86,0,0,1-6.6-1.27,8.91,8.91,0,0,1-4.21-3.82,11.77,11.77,0,0,1-1.28-6.36A26,26,0,0,1,347,195.7l19.07-46.1H357l4.45-8.11h7.95l1.91-4.77,19.08-3.65m5-4.08-5.59,1.07-19.08,3.66-1.64.31-.62,1.56-1.14,2.84h-7.69L358.8,140l-4.45,8.11-2.49,4.53h9.65l-17.32,41.87a28.85,28.85,0,0,0-2.46,9.78,14.91,14.91,0,0,0,1.67,8,12,12,0,0,0,5.61,5.1,18.76,18.76,0,0,0,7.87,1.55,25.23,25.23,0,0,0,8.76-1.62,35.13,35.13,0,0,0,8-4.18,36.21,36.21,0,0,0,6.78-6.16,29.8,29.8,0,0,0,4.86-7.89l.6-1.43-.8-1.33-2.71-4.46-2.92-4.82L377,192.14a14.83,14.83,0,0,1-4.33,5.56A11.28,11.28,0,0,1,368,200a5.18,5.18,0,0,1-.91.09,2.18,2.18,0,0,1-.73-.1,4.71,4.71,0,0,1,.29-.86l19.1-46.46h12.8l.87-1.59,4.45-8.1,2.49-4.54H391.51l1.74-4.19,2.18-5.25Z" transform="translate(-2.5 -2.51)"/><path class="cls-1" d="M150.41,397a65.61,65.61,0,0,1-10.4-.86c-7.6-1.19-13.62-3.59-17.86-7.15a25.72,25.72,0,0,1-8.5-12.35,28,28,0,0,1-.33-14.5,38,38,0,0,1,6.27-13.76A37,37,0,0,1,131.11,338,30.73,30.73,0,0,1,146.65,334a9.6,9.6,0,0,1,6.46,2,7.51,7.51,0,0,1,2.6,5.11,13.46,13.46,0,0,1-1,6.08,19.43,19.43,0,0,1-3.63,5.89,20.16,20.16,0,0,1-5.87,4.55,16.46,16.46,0,0,1-7.64,1.81c-2.86,0-4.93-1-6.16-3.09a8.69,8.69,0,0,1-1.17-4.5,17.09,17.09,0,0,0-4,4,18.81,18.81,0,0,0-3.13,7.06,21,21,0,0,0-.18,7.75,18.13,18.13,0,0,0,2.9,7.23,20.53,20.53,0,0,0,6.11,5.81,24.12,24.12,0,0,0,9.52,3.28,37.92,37.92,0,0,0,5.15.36,32.53,32.53,0,0,0,7.89-.95,30.57,30.57,0,0,0,19-14A34.72,34.72,0,0,0,178,360.17a45.76,45.76,0,0,0,.06-14.61,60.46,60.46,0,0,0-5.15-16.46,50.29,50.29,0,0,1-4.56-15.23,37.13,37.13,0,0,1,.56-12.72,108.78,108.78,0,0,0-12.76-1.3c-1.07,0-2.15-.07-3.21-.07a70.31,70.31,0,0,0-10.64.8,53,53,0,0,0-12.68,3.56,34.92,34.92,0,0,0-10.44,6.8,19.83,19.83,0,0,0-6.28,16,16.89,16.89,0,0,0,2.18,7.08,12.38,12.38,0,0,0,4.59,4.66l2.13,1.18-8.08,3.95-.36,0a14.22,14.22,0,0,1-6.12-2.29,28.5,28.5,0,0,1-6-5.11,35.69,35.69,0,0,1-4.94-7.19,30.65,30.65,0,0,1-3-8.58,26,26,0,0,1,0-9.3A23.08,23.08,0,0,1,97.52,302a26.06,26.06,0,0,1,10.2-8.52,43.78,43.78,0,0,1,12.8-3.63,72.63,72.63,0,0,1,9.29-.59c1.58,0,3.19.05,4.8.15,4.78.29,9.55.73,14.17,1.31s9,1.13,13.12,1.67a66.12,66.12,0,0,0,8.41.6l1.47,0a38.82,38.82,0,0,1,6.63-9.83A44,44,0,0,1,188.53,275a50.2,50.2,0,0,1,12.69-5.21,57.51,57.51,0,0,1,14.66-1.83c5.64,0,10.43,1.09,14.23,3.25a22.15,22.15,0,0,1,8.58,8.27,21,21,0,0,1,2.7,11,24.17,24.17,0,0,1-3.06,11.28,28.33,28.33,0,0,1-8.66,9.4,31.74,31.74,0,0,1-14.1,5.23,38.15,38.15,0,0,1-5.43.42,19.73,19.73,0,0,1-7.4-1.25,13.43,13.43,0,0,1-7.13-5.75,11.75,11.75,0,0,1-1-8.57,16.64,16.64,0,0,1,2.42-5.51c-1,.35-2.15.74-3.38,1.13s-2.44.76-3.75,1.12a33.69,33.69,0,0,0,0,11.26,46.61,46.61,0,0,0,5,14.19,56.43,56.43,0,0,1,6.39,20,48.1,48.1,0,0,1-1.41,18.54,46.35,46.35,0,0,1-8,15.76,47.83,47.83,0,0,1-13.47,11.82A54.28,54.28,0,0,1,160.67,396,55.94,55.94,0,0,1,150.41,397Zm69.12-110.08-1.65.18a12.83,12.83,0,0,0-5.8,2.2,20,20,0,0,0-4.82,4.53,17.63,17.63,0,0,0-2.83,5.42,8.65,8.65,0,0,0-.24,4.79,4.66,4.66,0,0,0,2.62,3,9.2,9.2,0,0,0,4.08.75,23,23,0,0,0,2.86-.19,21.34,21.34,0,0,0,9.51-3.37,18.58,18.58,0,0,0,5.85-6.18,16.47,16.47,0,0,0,2.13-7.35,13.2,13.2,0,0,0-1.58-7,13.57,13.57,0,0,0-5.5-5.31,19.63,19.63,0,0,0-9.64-2.12,21.59,21.59,0,0,0-6.36,1,26.89,26.89,0,0,0-6.25,2.89,27.27,27.27,0,0,0-5.55,4.66,24.75,24.75,0,0,0-2.71,3.6c2.39-.78,4.67-1.59,6.81-2.43,3-1.17,5.59-2.26,7.72-3.25,2.53-1.14,4.83-2.29,6.83-3.41l1.29-.72Z" transform="translate(-2.5 -2.51)"/><path class="cls-2" d="M214.61,269.21q8.16,0,13.6,3.09a20.92,20.92,0,0,1,8.1,7.79,19.78,19.78,0,0,1,2.53,10.33,23,23,0,0,1-2.9,10.69,26.94,26.94,0,0,1-8.29,9,30.18,30.18,0,0,1-13.54,5,35.75,35.75,0,0,1-5.24.42,18.68,18.68,0,0,1-6.93-1.16,12.31,12.31,0,0,1-6.5-5.19,10.52,10.52,0,0,1-.86-7.67,17.71,17.71,0,0,1,4.82-8.28l-3.58,1.11c-1.16.41-2.44.85-3.84,1.3s-2.88.89-4.45,1.3a34.15,34.15,0,0,0-.18,12.48A47.31,47.31,0,0,0,192.48,324a54.83,54.83,0,0,1,6.24,19.54,46.59,46.59,0,0,1-1.36,18.05,45,45,0,0,1-7.79,15.33,46.13,46.13,0,0,1-13.1,11.5,53,53,0,0,1-17.31,6.37,55.11,55.11,0,0,1-10,.91,64.16,64.16,0,0,1-10.19-.85q-11.13-1.74-17.24-6.86a24.5,24.5,0,0,1-8.1-11.75,26.68,26.68,0,0,1-.31-13.85,36.3,36.3,0,0,1,6.06-13.29,35.4,35.4,0,0,1,11.12-9.95,29.23,29.23,0,0,1,14.9-3.9A8.37,8.37,0,0,1,151,336.9a6.27,6.27,0,0,1,2.16,4.27,12,12,0,0,1-.86,5.5,18.34,18.34,0,0,1-3.4,5.5,18.78,18.78,0,0,1-5.51,4.27,15.07,15.07,0,0,1-7,1.67q-3.58,0-5.07-2.48a8.7,8.7,0,0,1-.74-6.3A19.17,19.17,0,0,0,124,355a20,20,0,0,0-3.34,7.54,22.27,22.27,0,0,0-.18,8.22,19.25,19.25,0,0,0,3.09,7.73,21.75,21.75,0,0,0,6.49,6.18,25.31,25.31,0,0,0,10,3.46,39.13,39.13,0,0,0,5.34.38,33,33,0,0,0,8.19-1A32.1,32.1,0,0,0,165,382.22a32.6,32.6,0,0,0,8.41-9.28A35.81,35.81,0,0,0,178,360.39a46.59,46.59,0,0,0,.06-15,60.91,60.91,0,0,0-5.25-16.81,48.76,48.76,0,0,1-4.45-14.84,35.54,35.54,0,0,1,.86-13.6A109,109,0,0,0,155,298.58c-1.09-.05-2.18-.07-3.26-.07a71.72,71.72,0,0,0-10.83.81,53.53,53.53,0,0,0-13,3.65,36.15,36.15,0,0,0-10.82,7,21.16,21.16,0,0,0-6.68,17.06,18.11,18.11,0,0,0,2.35,7.61,13.44,13.44,0,0,0,5.07,5.13l-5.56,2.72a13.17,13.17,0,0,1-5.57-2.1,27,27,0,0,1-5.68-4.89,33.35,33.35,0,0,1-4.76-6.92,29.28,29.28,0,0,1-2.85-8.22,24.77,24.77,0,0,1,0-8.84,21.8,21.8,0,0,1,3.9-8.84,24.64,24.64,0,0,1,9.7-8.1,42.36,42.36,0,0,1,12.43-3.52,70,70,0,0,1,9.13-.58c1.55,0,3.13.05,4.72.14q7.17.43,14.09,1.3l13.11,1.67a66.94,66.94,0,0,0,8.58.62c.79,0,1.56,0,2.3-.06a37.31,37.31,0,0,1,6.73-10.2,43.05,43.05,0,0,1,9.83-7.92A49,49,0,0,1,200.27,271a56.23,56.23,0,0,1,14.34-1.79m-24.85,21.27q5.31-1.61,9.89-3.4c3-1.2,5.64-2.29,7.79-3.28q3.83-1.73,6.92-3.46l2.1,5.44a14.11,14.11,0,0,0-6.36,2.41A21.27,21.27,0,0,0,205,293a18.51,18.51,0,0,0-3,5.81,9.72,9.72,0,0,0-.25,5.51A5.88,5.88,0,0,0,205,308.1a10.53,10.53,0,0,0,4.65.88,25.58,25.58,0,0,0,3-.2,22.49,22.49,0,0,0,10.08-3.59,19.71,19.71,0,0,0,6.24-6.61,17.81,17.81,0,0,0,2.29-7.92,14.48,14.48,0,0,0-1.73-7.66,14.83,14.83,0,0,0-6-5.81,20.71,20.71,0,0,0-10.26-2.29,22.75,22.75,0,0,0-6.74,1.05,27.5,27.5,0,0,0-6.55,3,28.37,28.37,0,0,0-5.81,4.88,25.69,25.69,0,0,0-4.39,6.62m24.85-23.82a58.69,58.69,0,0,0-15,1.88,51.16,51.16,0,0,0-13,5.34,45.4,45.4,0,0,0-10.41,8.38,40.22,40.22,0,0,0-6.51,9.43H169a65.34,65.34,0,0,1-8.25-.59q-6.19-.81-13.12-1.67c-4.65-.58-9.45-1-14.26-1.31-1.63-.1-3.27-.15-4.87-.15a73.47,73.47,0,0,0-9.46.6,45,45,0,0,0-13.17,3.73,27.43,27.43,0,0,0-10.7,8.92,24.47,24.47,0,0,0-4.34,9.89,27.13,27.13,0,0,0,0,9.76A31.58,31.58,0,0,0,94,329.8a35.82,35.82,0,0,0,5.12,7.45,29.42,29.42,0,0,0,6.23,5.34,15.53,15.53,0,0,0,6.68,2.48l.71.07.65-.32,5.56-2.72L123.3,340l-4.25-2.38a10.8,10.8,0,0,1-4.11-4.18,15.67,15.67,0,0,1-2-6.55,18.59,18.59,0,0,1,5.91-15,33.74,33.74,0,0,1,10-6.54,52.47,52.47,0,0,1,12.38-3.47,69.06,69.06,0,0,1,10.44-.78c1,0,2.1,0,3.16.07a106.67,106.67,0,0,1,11.3,1.08,38.8,38.8,0,0,0-.31,11.82,51.36,51.36,0,0,0,4.67,15.61,58.88,58.88,0,0,1,5,16.1A44.73,44.73,0,0,1,175.5,360a33.42,33.42,0,0,1-4.3,11.66,30.23,30.23,0,0,1-7.75,8.56A29.79,29.79,0,0,1,153,385.06a30.9,30.9,0,0,1-7.57.92,35.89,35.89,0,0,1-5-.36,22.94,22.94,0,0,1-9-3.08,19.3,19.3,0,0,1-5.74-5.46,16.74,16.74,0,0,1-2.69-6.71,19.57,19.57,0,0,1,.16-7.28,17.48,17.48,0,0,1,2.92-6.59,15.28,15.28,0,0,1,1.95-2.24,9.48,9.48,0,0,0,1.08,2.69c1,1.69,3.1,3.71,7.26,3.71a17.64,17.64,0,0,0,8.22-2,21.44,21.44,0,0,0,6.24-4.84,20.71,20.71,0,0,0,3.87-6.28,14.66,14.66,0,0,0,1-6.65,8.74,8.74,0,0,0-3-5.95,10.81,10.81,0,0,0-7.3-2.3,31.87,31.87,0,0,0-16.17,4.24,38,38,0,0,0-11.92,10.66,39.31,39.31,0,0,0-6.48,14.22,29.28,29.28,0,0,0,.35,15.15,27,27,0,0,0,8.91,13c4.42,3.71,10.64,6.21,18.49,7.43a66.52,66.52,0,0,0,10.58.88,56.72,56.72,0,0,0,10.5-1,55.6,55.6,0,0,0,18.14-6.67,49.43,49.43,0,0,0,13.82-12.13,47.65,47.65,0,0,0,8.22-16.2,49.44,49.44,0,0,0,1.45-19,57.51,57.51,0,0,0-6.52-20.44A45,45,0,0,1,189.87,309a32.78,32.78,0,0,1-.12-10.06c1-.3,2.05-.6,3-.91l.3-.1a17.5,17.5,0,0,0-1,3,13.05,13.05,0,0,0,1.12,9.48,14.79,14.79,0,0,0,7.78,6.32,21.21,21.21,0,0,0,7.88,1.34,39.51,39.51,0,0,0,5.62-.44,33,33,0,0,0,14.64-5.45,29.59,29.59,0,0,0,9-9.82,25.57,25.57,0,0,0,3.22-11.87,22.32,22.32,0,0,0-2.86-11.63,23.44,23.44,0,0,0-9.06-8.75c-4-2.28-9-3.43-14.86-3.43Zm-18.75,19.12a1.54,1.54,0,0,1,.17-.19,25.39,25.39,0,0,1,11.23-7.2,20.42,20.42,0,0,1,6-.94l1,0-1.15.64c-2,1.11-4.23,2.24-6.72,3.37-2.13,1-4.7,2.06-7.67,3.22-.93.37-1.88.72-2.86,1.08Zm13.76,20.64a8.19,8.19,0,0,1-3.51-.61,3.29,3.29,0,0,1-2-2.16,7.26,7.26,0,0,1,.23-4.08,16.35,16.35,0,0,1,2.62-5,18.68,18.68,0,0,1,4.52-4.24,11.42,11.42,0,0,1,5.22-2L220,288l-1.2-3.09-2.1-5.44-.7-1.83a16.25,16.25,0,0,1,6.22,1.82,12.33,12.33,0,0,1,5,4.81,11.81,11.81,0,0,1,1.42,6.33,15.28,15.28,0,0,1-2,6.78,17.28,17.28,0,0,1-5.46,5.76,20.06,20.06,0,0,1-8.95,3.15,22.19,22.19,0,0,1-2.69.18Z" transform="translate(-2.5 -2.51)"/><path class="cls-1" d="M226.25,387.2c-5.24,0-8.56-1.57-9.89-4.67-1.27-2.95-.72-7.21,1.66-13l1.85-4.57q1.37-3.33,3.09-7.66t3.72-9.1q2-4.76,3.7-9t3-7.4c.82-2.09,1.41-3.55,1.76-4.32a3.49,3.49,0,0,0,.34-2.91c-.37-.71-1.57-.86-2.52-.86h-3.11l3.57-7.68.59-.15,2.14-.5a15.84,15.84,0,0,1,2.31-.39,23.6,23.6,0,0,1,2.54-.13c6.41,0,9.1,2.4,10.15,5a29.74,29.74,0,0,1,5.72-3.36,18,18,0,0,1,7.25-1.65,12.77,12.77,0,0,1,7.61,2.15,12,12,0,0,1,4.29,5.87,18.87,18.87,0,0,1,.74,8.35A36.63,36.63,0,0,1,274,341c-3.71,8.67-8.31,15.12-13.7,19.2s-11.21,6.19-17.15,6.19a10.19,10.19,0,0,1-6.73-2.2l-4.21,10.31c-.59,1.31-.7,2.28-.36,2.95s1.1.85,2.39.85h3.28L233.81,386l-.58.14-2.13.51a17.32,17.32,0,0,1-2.31.39A23.87,23.87,0,0,1,226.25,387.2Zm13.37-30.5a3.31,3.31,0,0,0,2,.5,9.5,9.5,0,0,0,3.76-.76,12.16,12.16,0,0,0,3.68-2.63,30.94,30.94,0,0,0,4-5.11c1.37-2.12,2.88-4.81,4.52-8a56.27,56.27,0,0,0,2.7-6.61,20.91,20.91,0,0,0,1.11-5.24,4.75,4.75,0,0,0-.58-2.92c-.24-.35-.7-.8-2-.8a8.79,8.79,0,0,0-3.88,1,22.43,22.43,0,0,0-4.26,2.85q-.23.83-.48,1.56c-.21.59-.44,1.21-.69,1.88Z" transform="translate(-2.5 -2.51)"/><path class="cls-2" d="M251.57,316.07a11.47,11.47,0,0,1,6.87,1.92,10.65,10.65,0,0,1,3.83,5.25A17.57,17.57,0,0,1,263,331a35.21,35.21,0,0,1-2.6,9.52q-5.43,12.74-13.29,18.67t-16.38,5.93a8.51,8.51,0,0,1-7.17-3.21l-4.95,12.12c-.74,1.64-.84,3-.3,4s1.71,1.55,3.52,1.55H223l-2.6,5.32-2.1.49a14.61,14.61,0,0,1-2.17.37,23.52,23.52,0,0,1-2.41.13q-7.05,0-8.71-3.9t1.67-12c.33-.83.94-2.35,1.85-4.58s1.94-4.78,3.09-7.66,2.39-5.92,3.71-9.09,2.55-6.18,3.71-9,2.14-5.31,3-7.41,1.4-3.53,1.73-4.27c.74-1.65.84-3,.31-4s-1.76-1.54-3.65-1.54h-1.11l2.47-5.32c.66-.16,1.36-.33,2.1-.49a16.1,16.1,0,0,1,2.16-.38,23.91,23.91,0,0,1,2.42-.12c5.76,0,8.9,2,9.39,5.94a30.06,30.06,0,0,1,7-4.39,16.76,16.76,0,0,1,6.73-1.55m-22.5,42.41a10.76,10.76,0,0,0,4.27-.87,13,13,0,0,0,4.08-2.9,31.59,31.59,0,0,0,4.14-5.32q2.1-3.27,4.58-8.1a55.2,55.2,0,0,0,2.78-6.8,21.9,21.9,0,0,0,1.17-5.56,5.93,5.93,0,0,0-.8-3.71,3.4,3.4,0,0,0-3-1.36,10,10,0,0,0-4.45,1.17,24.39,24.39,0,0,0-4.82,3.28c-.17.66-.36,1.28-.56,1.86s-.43,1.19-.68,1.85l-10.14,25a4,4,0,0,0,3.46,1.49m22.5-45a19.38,19.38,0,0,0-7.76,1.76,31,31,0,0,0-4.76,2.65c-1.49-2.31-4.52-4.41-10.59-4.41a26.12,26.12,0,0,0-2.68.14,17.93,17.93,0,0,0-2.49.42l-2.13.5-1.18.3-.51,1.1L217,321.3l-1.68,3.63h5.11a3.24,3.24,0,0,1,1.4.21,2.9,2.9,0,0,1-.39,1.75c-.35.8-1,2.27-1.78,4.39s-1.81,4.56-3,7.38-2.4,5.88-3.7,9-2.55,6.21-3.72,9.12-2.18,5.43-3.08,7.65-1.53,3.76-1.86,4.59c-2.51,6.14-3.06,10.72-1.65,14,1.55,3.61,5.27,5.44,11.06,5.44a26.73,26.73,0,0,0,2.68-.14,19.09,19.09,0,0,0,2.48-.42l2.13-.51,1.16-.28.52-1.07,2.6-5.32,1.79-3.67h-5.32a2.83,2.83,0,0,1-1.27-.2,2.78,2.78,0,0,1,.38-1.77l0,0,0,0,3.6-8.83a12,12,0,0,0,6.15,1.52c6.23,0,12.26-2.17,17.92-6.45s10.31-10.84,14.1-19.71a38,38,0,0,0,2.79-10.24,20.19,20.19,0,0,0-.81-8.91,13.22,13.22,0,0,0-4.75-6.48,14,14,0,0,0-8.36-2.4Zm-12.33,16.24a20.31,20.31,0,0,1,3.71-2.44,7.53,7.53,0,0,1,3.31-.91c.34,0,.78,0,.92.25a3.64,3.64,0,0,1,.36,2.14,19.61,19.61,0,0,1-1,4.9,53.45,53.45,0,0,1-2.64,6.46c-1.61,3.13-3.1,5.77-4.44,7.85a28.83,28.83,0,0,1-3.8,4.89,10.56,10.56,0,0,1-3.26,2.36,8.23,8.23,0,0,1-3.28.67h-.27L238.11,333l0,0v0l.69-1.89c.15-.41.28-.83.41-1.27Z" transform="translate(-2.5 -2.51)"/><path class="cls-1" d="M289.18,366.43a15,15,0,0,1-8.24-2.12,12.37,12.37,0,0,1-4.81-5.84,18.91,18.91,0,0,1-1.15-8.42,34.15,34.15,0,0,1,2.38-10c3.2-8,7.5-14.27,12.8-18.64a28,28,0,0,1,18.18-6.65,15.05,15.05,0,0,1,8.16,2.11,12.33,12.33,0,0,1,4.89,5.85,19.34,19.34,0,0,1,1.21,8.34,32.67,32.67,0,0,1-2.31,9.91,48.17,48.17,0,0,1-5.59,10.61,42.05,42.05,0,0,1-7.34,8,30.92,30.92,0,0,1-8.64,5.09A26.82,26.82,0,0,1,289.18,366.43Zm17.43-43.64a4.29,4.29,0,0,0-2.5,1.29,24.15,24.15,0,0,0-3.58,4,54,54,0,0,0-3.68,6,65.52,65.52,0,0,0-3.27,7.13c-1,2.43-1.79,4.77-2.44,7a27.55,27.55,0,0,0-1.12,5.71,8.25,8.25,0,0,0,.34,3.56c.27.68.59.74.92.74a4.14,4.14,0,0,0,2.44-1.23,22.12,22.12,0,0,0,3.44-3.9,56.89,56.89,0,0,0,3.63-5.85,64.25,64.25,0,0,0,3.28-6.95,72.29,72.29,0,0,0,2.36-7.13,36.73,36.73,0,0,0,1.13-5.88,10.09,10.09,0,0,0-.19-3.76C307.15,322.79,306.86,322.79,306.61,322.79Z" transform="translate(-2.5 -2.51)"/><path class="cls-2" d="M295.84,316.07a13.72,13.72,0,0,1,7.48,1.92,11.06,11.06,0,0,1,4.39,5.25,18.05,18.05,0,0,1,1.11,7.79,31.17,31.17,0,0,1-2.23,9.52,45.38,45.38,0,0,1-5.44,10.32A39.79,39.79,0,0,1,294,358.6a29.41,29.41,0,0,1-8.28,4.89,25.45,25.45,0,0,1-9.09,1.66,13.63,13.63,0,0,1-7.54-1.91A11.09,11.09,0,0,1,264.8,358a17.66,17.66,0,0,1-1.05-7.85,32.66,32.66,0,0,1,2.29-9.58q4.69-11.74,12.42-18.11a26.62,26.62,0,0,1,17.38-6.37m-17.07,43.4a5.24,5.24,0,0,0,3.28-1.54,23.71,23.71,0,0,0,3.65-4.13,60.84,60.84,0,0,0,3.71-6,67.61,67.61,0,0,0,3.34-7.08,73.57,73.57,0,0,0,2.41-7.28,38.46,38.46,0,0,0,1.17-6.09,11.39,11.39,0,0,0-.25-4.26,2,2,0,0,0-2-1.6,5.43,5.43,0,0,0-3.34,1.6,24.39,24.39,0,0,0-3.77,4.26,54.58,54.58,0,0,0-3.78,6.09,67.21,67.21,0,0,0-3.33,7.28q-1.49,3.69-2.48,7.08a28.82,28.82,0,0,0-1.17,6,9.57,9.57,0,0,0,.43,4.13,2.14,2.14,0,0,0,2.1,1.54m17.07-46a29.24,29.24,0,0,0-19,7c-5.46,4.5-9.89,10.94-13.17,19.13A35.38,35.38,0,0,0,261.21,350a20.12,20.12,0,0,0,1.23,9,13.57,13.57,0,0,0,5.31,6.43,16.22,16.22,0,0,0,8.92,2.33,28,28,0,0,0,10-1.84,32.22,32.22,0,0,0,9-5.3,43,43,0,0,0,7.56-8.21,49.1,49.1,0,0,0,5.75-10.9,33.81,33.81,0,0,0,2.39-10.29,20.63,20.63,0,0,0-1.3-8.89,13.51,13.51,0,0,0-5.39-6.45,16.32,16.32,0,0,0-8.84-2.31ZM279,356.87a7.37,7.37,0,0,1-.21-2.89,27,27,0,0,1,1.07-5.44c.64-2.17,1.44-4.48,2.4-6.85a61.83,61.83,0,0,1,3.21-7,53.69,53.69,0,0,1,3.59-5.81,22.38,22.38,0,0,1,3.37-3.81,5.45,5.45,0,0,1,1.29-.88,9.92,9.92,0,0,1,.07,3,34.27,34.27,0,0,1-1.1,5.67,68.2,68.2,0,0,1-2.32,7,64,64,0,0,1-3.2,6.79,55.88,55.88,0,0,1-3.55,5.71,20.41,20.41,0,0,1-3.23,3.68,4.16,4.16,0,0,1-1.39.88Z" transform="translate(-2.5 -2.51)"/><path class="cls-1" d="M351.12,366.43c-4.52,0-7.72-1.63-9.52-4.86a9.17,9.17,0,0,1-1.11-3.57l-3.43,7.38-.59.15-2.13.5a25.19,25.19,0,0,1-4.86.4c-5.3,0-8.69-1.54-10.06-4.58s-.8-7.17,1.59-13c.33-.82,1-2.36,1.92-4.6s2-4.78,3.14-7.64,2.39-5.94,3.72-9.15,2.55-6.25,3.7-9.09,2.14-5.3,3-7.4,1.42-3.55,1.76-4.32a3.62,3.62,0,0,0,.38-2.95c-.32-.68-1.5-.82-2.43-.82h-3.24l3.62-7.77.7-.09a18,18,0,0,0,2-.35,17.32,17.32,0,0,1,2.31-.39,23.87,23.87,0,0,1,2.54-.13c5.22,0,8.57,1.54,9.94,4.58s.8,7.24-1.58,13.24l-9.94,24.35,8.25-2.86a7,7,0,0,1-.59-2.7,12.93,12.93,0,0,1,1-5.15,17.6,17.6,0,0,1,5.14-7.56,11.85,11.85,0,0,1,7.67-2.76,5.93,5.93,0,0,1,5.87,3.61c1,2.25.75,4.85-.64,7.74-2.08,4.42-4.72,7.54-7.83,9.28a30.25,30.25,0,0,1-4.73,2.14,6.26,6.26,0,0,1,2.44,3.59c.7,2.64.26,5.91-1.34,10-.2.48-.6,1.55-.18,1.9a2.09,2.09,0,0,0,1.4.42h0a5,5,0,0,0,.9-.09,9.8,9.8,0,0,0,4.08-2,13.61,13.61,0,0,0,3.84-4.76l1.08-2.07,3.44,6-.21.56a19.67,19.67,0,0,1-3.5,5.88,26.2,26.2,0,0,1-5.14,4.62,28.23,28.23,0,0,1-6,3.11A18.18,18.18,0,0,1,351.12,366.43ZM335.36,353.9a4.09,4.09,0,0,0-.29,3c.34.68,1.68.78,2.45.78h2.94a19.12,19.12,0,0,1,1.82-8.75,4.71,4.71,0,0,0,.47-2.42,2.15,2.15,0,0,0-.6-1.33,1.57,1.57,0,0,0-1.14-.35h-.16a4.31,4.31,0,0,0-2.05.75Z" transform="translate(-2.5 -2.51)"/><path class="cls-2" d="M332.84,295.42q7.05,0,8.78,3.84T340,311.5l-11,26.95,12.49-4.33a4.75,4.75,0,0,1-1.3-3.4,11.61,11.61,0,0,1,.93-4.63,16.26,16.26,0,0,1,4.76-7,10.54,10.54,0,0,1,6.86-2.47,4.65,4.65,0,0,1,4.7,2.84c.82,1.9.62,4.12-.62,6.68q-3,6.3-7.3,8.71a24.89,24.89,0,0,1-8.4,3q4.58.62,5.5,4.14t-1.3,9.21c-.66,1.57-.6,2.68.19,3.34a3.32,3.32,0,0,0,2.23.72,6.24,6.24,0,0,0,1.1-.1,11,11,0,0,0,4.64-2.23,14.75,14.75,0,0,0,4.2-5.19l2,3.46a18.38,18.38,0,0,1-3.27,5.51,24.76,24.76,0,0,1-4.89,4.38,26.57,26.57,0,0,1-5.68,3,16.86,16.86,0,0,1-5.94,1.11q-6.06,0-8.41-4.2c-1.56-2.8-1.32-6.63.75-11.5a5.85,5.85,0,0,0,.55-3.09,3.33,3.33,0,0,0-1-2.1,2.83,2.83,0,0,0-2-.68h-.21a5.84,5.84,0,0,0-3,1.17L323,353.41q-1,2.59-.24,4.08c.49,1,1.68,1.48,3.58,1.48h1.11l-2.47,5.32c-.66.16-1.36.33-2.1.49a23.64,23.64,0,0,1-4.58.37q-7.17,0-8.9-3.83t1.61-12q.5-1.23,1.92-4.58t3.15-7.66q1.73-4.33,3.71-9.15t3.71-9.09q1.73-4.26,3-7.42c.83-2.1,1.4-3.52,1.74-4.26.74-1.65.86-3,.37-4s-1.69-1.54-3.59-1.54h-1.24l2.48-5.32c.66-.08,1.36-.21,2.1-.37a14.69,14.69,0,0,1,2.16-.37,23.68,23.68,0,0,1,2.41-.13m0-2.55a26.38,26.38,0,0,0-2.67.14,19.26,19.26,0,0,0-2.49.42,17.68,17.68,0,0,1-1.82.33l-1.41.17-.6,1.28-2.47,5.32-1.69,3.63h5.24a3.37,3.37,0,0,1,1.31.18,3.25,3.25,0,0,1-.42,1.78c-.36.8-.94,2.23-1.78,4.38s-1.82,4.58-3,7.39-2.39,5.87-3.7,9.08-2.55,6.24-3.72,9.17-2.2,5.41-3.13,7.61-1.59,3.76-1.94,4.63c-2.52,6.16-3,10.74-1.56,14,1.6,3.54,5.37,5.34,11.22,5.34a26.38,26.38,0,0,0,5.08-.42h.06l2.16-.5,1.18-.3.51-1.1,1.73-3.72c.09.19.19.37.29.55,1.4,2.51,4.38,5.51,10.63,5.51a19.33,19.33,0,0,0,6.83-1.28,29.15,29.15,0,0,0,6.23-3.25,27.52,27.52,0,0,0,5.39-4.84,20.88,20.88,0,0,0,3.72-6.26l.42-1.12-.59-1-2-3.46-2.32-4.07-2.16,4.16a12.51,12.51,0,0,1-3.47,4.32,8.61,8.61,0,0,1-3.54,1.76,4.36,4.36,0,0,1-.67.06h-.25c0-.13.1-.3.18-.5l0,0v0c1.7-4.34,2.15-7.87,1.39-10.79a8,8,0,0,0-1.35-2.79c1-.44,2-.93,3-1.5,3.34-1.86,6.16-5.18,8.36-9.86,1.55-3.21,1.78-6.17.65-8.78a7.21,7.21,0,0,0-7-4.38,13.12,13.12,0,0,0-8.48,3.05,18.88,18.88,0,0,0-5.53,8.12,14.16,14.16,0,0,0-1.09,5.62,9.19,9.19,0,0,0,.24,1.87l-4.38,1.52,8.87-21.73c2.52-6.35,3-11,1.57-14.25-1.6-3.54-5.34-5.34-11.11-5.34Zm-4.26,53.62a2.7,2.7,0,0,1,1.1-.36h.1a1.19,1.19,0,0,1,.3,0,1.24,1.24,0,0,1,.17.55,3.57,3.57,0,0,1-.37,1.74,22.22,22.22,0,0,0-1.95,8h-1.64a3.77,3.77,0,0,1-1.33-.17,3.87,3.87,0,0,1,.36-1.9l3.26-7.86Z" transform="translate(-2.5 -2.51)"/><path class="cls-1" d="M385.36,366.43a20.13,20.13,0,0,1-9.43-2.06,15.17,15.17,0,0,1-6.13-5.74,17.37,17.37,0,0,1-2.28-8.46,26.07,26.07,0,0,1,1.94-10.08c3.2-8.17,7.56-14.49,13-18.77a28.59,28.59,0,0,1,18.16-6.52c3.72,0,6.61,1,8.58,3a11.43,11.43,0,0,1,3.27,7.21,17.72,17.72,0,0,1-1.72,8.67,22.74,22.74,0,0,1-6.21,8,21,21,0,0,1-13.69,4.88h-6.92c-.65,2.9-.26,5.25,1.2,7.16,1.61,2.12,4.09,3.15,7.58,3.15a17.1,17.1,0,0,0,5-.81,27,27,0,0,0,5.07-2.18,24.16,24.16,0,0,0,4.4-3.17,19.66,19.66,0,0,0,3.25-3.77l1.11-1.71,3.51,5.79-.29.62a23.2,23.2,0,0,1-11.23,10.86A40.71,40.71,0,0,1,385.36,366.43Zm3.47-27a5.75,5.75,0,0,0,4-1.42,15.47,15.47,0,0,0,3.4-4.91A34.12,34.12,0,0,0,398.5,328a15.22,15.22,0,0,0,.92-3.87,2.23,2.23,0,0,0-.28-1.58H399a3,3,0,0,0-1,.27,7.92,7.92,0,0,0-2.47,1.93,29.45,29.45,0,0,0-3.25,4.15c-1.13,1.68-2.3,3.61-3.47,5.72-.86,1.54-1.65,3.15-2.36,4.78Z" transform="translate(-2.5 -2.51)"/><path class="cls-2" d="M389.34,316.07q5.07,0,7.67,2.66a10.08,10.08,0,0,1,2.9,6.43,16.32,16.32,0,0,1-1.6,8,21.44,21.44,0,0,1-5.88,7.61,19.62,19.62,0,0,1-12.85,4.57h-7.92q-1.61,5.56,1.18,9.21t8.59,3.65a18.33,18.33,0,0,0,5.38-.86,28.09,28.09,0,0,0,5.32-2.29,25.26,25.26,0,0,0,4.63-3.34,20.57,20.57,0,0,0,3.46-4l2.11,3.46a22,22,0,0,1-10.64,10.27,39.36,39.36,0,0,1-17.55,3.7,18.74,18.74,0,0,1-8.84-1.91,13.83,13.83,0,0,1-5.63-5.26,15.94,15.94,0,0,1-2.1-7.85,24.52,24.52,0,0,1,1.85-9.58q4.71-12,12.55-18.24a27.29,27.29,0,0,1,17.37-6.24m-16.07,24.61h4.33a7.05,7.05,0,0,0,4.82-1.74,16.59,16.59,0,0,0,3.71-5.31,35.27,35.27,0,0,0,2.35-5.2,17.28,17.28,0,0,0,1-4.2,3.3,3.3,0,0,0-.62-2.53,1.39,1.39,0,0,0-1.07-.42,4.4,4.4,0,0,0-1.53.35,9.47,9.47,0,0,0-2.9,2.23,30.7,30.7,0,0,0-3.4,4.33c-1.16,1.73-2.33,3.67-3.53,5.81a55.87,55.87,0,0,0-3.15,6.68m16.07-27.16a29.91,29.91,0,0,0-19,6.8c-5.56,4.42-10.05,10.92-13.33,19.3a27.11,27.11,0,0,0-2,10.58,18.64,18.64,0,0,0,2.45,9.09,16.53,16.53,0,0,0,6.64,6.21,21.46,21.46,0,0,0,10,2.21,42.11,42.11,0,0,0,18.68-4,24.46,24.46,0,0,0,11.81-11.47l.59-1.24-.71-1.17-2.1-3.46-2.12-3.48-2.21,3.41a17.82,17.82,0,0,1-3,3.52,22.25,22.25,0,0,1-4.16,3,25.41,25.41,0,0,1-4.83,2.08,15.52,15.52,0,0,1-4.62.75c-3.06,0-5.21-.87-6.56-2.64a6.59,6.59,0,0,1-1.15-5.11h5.86a22.26,22.26,0,0,0,14.48-5.16,24.09,24.09,0,0,0,6.57-8.53,18.91,18.91,0,0,0,1.83-9.29,12.7,12.7,0,0,0-3.62-8c-2.23-2.28-5.42-3.43-9.5-3.43Zm-12.18,24.6c.47-1,1-1.94,1.49-2.88,1.16-2.08,2.31-4,3.42-5.64a29.41,29.41,0,0,1,3.12-4,9.19,9.19,0,0,1,1.72-1.48,14.81,14.81,0,0,1-.84,3.44,33.16,33.16,0,0,1-2.18,4.82l0,0,0,.06a14.25,14.25,0,0,1-3.09,4.5,4.51,4.51,0,0,1-3.14,1.1Z" transform="translate(-2.5 -2.51)"/></g><g id="Wheel"><g id="Nipples"><rect class="cls-3" x="344.8" y="66.14" width="3.7" height="16.3" rx="0.2" ry="0.2" transform="translate(76.22 -160.38) rotate(28.81)"/><rect class="cls-3" x="308.66" y="50.66" width="3.7" height="16.3" rx="0.2" ry="0.2" transform="translate(29.72 -93.47) rotate(17.56)"/><rect class="cls-3" x="270.2" y="42.53" width="3.7" height="16.3" rx="0.2" ry="0.2" transform="translate(4.72 -32.12) rotate(6.31)"/><rect class="cls-3" x="230.89" y="42.06" width="3.7" height="16.3" rx="0.2" ry="0.2" transform="translate(-5.96 17.71) rotate(-4.94)"/><rect class="cls-3" x="192.24" y="49.26" width="3.7" height="16.3" rx="0.2" ry="0.2" transform="translate(-10.81 53.87) rotate(-16.19)"/><rect class="cls-3" x="155.74" y="63.87" width="3.7" height="16.3" rx="0.2" ry="0.2" transform="translate(-17.96 78.21) rotate(-27.44)"/><rect class="cls-3" x="122.8" y="85.32" width="3.7" height="16.3" rx="0.2" ry="0.2" transform="translate(-33.57 95.91) rotate(-38.69)"/><rect class="cls-3" x="94.67" y="112.78" width="3.7" height="16.3" rx="0.2" ry="0.2" transform="translate(-60.66 114.46) rotate(-49.94)"/><rect class="cls-3" x="72.44" y="145.2" width="3.7" height="16.3" rx="0.2" ry="0.2" transform="translate(-98.38 142.03) rotate(-61.19)"/><rect class="cls-3" x="56.96" y="181.34" width="3.7" height="16.3" rx="0.2" ry="0.2" transform="translate(-142.09 185.87) rotate(-72.44)"/><rect class="cls-3" x="48.83" y="219.8" width="3.7" height="16.3" rx="0.2" ry="0.2" transform="matrix(0.11, -0.99, 0.99, 0.11, -183.96, 250.75)"/><rect class="cls-3" x="48.35" y="259.11" width="3.7" height="16.3" rx="0.2" ry="0.2" transform="translate(-214.24 337.77) rotate(-94.94)"/><rect class="cls-3" x="55.56" y="297.76" width="3.7" height="16.3" rx="0.2" ry="0.2" transform="translate(-222.86 443.81) rotate(-106.19)"/><rect class="cls-3" x="70.17" y="334.26" width="3.7" height="16.3" rx="0.2" ry="0.2" transform="translate(-201.18 561.59) rotate(-117.44)"/><rect class="cls-3" x="91.62" y="367.2" width="3.7" height="16.3" rx="0.2" ry="0.2" transform="translate(-143.6 680.42) rotate(-128.69)"/><rect class="cls-3" x="119.08" y="395.33" width="3.7" height="16.3" rx="0.2" ry="0.2" transform="translate(-48.71 787.6) rotate(-139.94)"/><rect class="cls-3" x="151.5" y="417.56" width="3.7" height="16.3" rx="0.2" ry="0.2" transform="translate(80.05 870.12) rotate(-151.19)"/><rect class="cls-3" x="187.64" y="433.04" width="3.7" height="16.3" rx="0.2" ry="0.2" transform="translate(234.52 916.48) rotate(-162.44)"/><rect class="cls-3" x="226.1" y="441.17" width="3.7" height="16.3" rx="0.2" ry="0.2" transform="translate(402.62 918.47) rotate(-173.69)"/><rect class="cls-3" x="265.41" y="441.64" width="3.7" height="16.3" rx="0.2" ry="0.2" transform="translate(569.74 872.4) rotate(175.06)"/><rect class="cls-3" x="304.05" y="434.44" width="3.7" height="16.3" rx="0.2" ry="0.2" transform="translate(720.57 779.84) rotate(163.81)"/><rect class="cls-3" x="340.55" y="419.83" width="3.7" height="16.3" rx="0.2" ry="0.2" transform="translate(841 647.53) rotate(152.56)"/><rect class="cls-3" x="373.5" y="398.38" width="3.7" height="16.3" rx="0.2" ry="0.2" transform="matrix(-0.78, 0.63, -0.63, -0.78, 919.95, 486.73)"/><rect class="cls-3" x="401.63" y="370.92" width="3.7" height="16.3" rx="0.2" ry="0.2" transform="translate(950.79 311.74) rotate(130.06)"/><rect class="cls-3" x="423.86" y="338.5" width="3.7" height="16.3" rx="0.2" ry="0.2" transform="translate(932.11 138.19) rotate(118.81)"/><rect class="cls-3" x="439.34" y="302.36" width="3.7" height="16.3" rx="0.2" ry="0.2" transform="translate(867.86 -18.93) rotate(107.56)"/><rect class="cls-3" x="447.47" y="263.9" width="3.7" height="16.3" rx="0.2" ry="0.2" transform="translate(766.63 -147.15) rotate(96.31)"/><rect class="cls-3" x="447.94" y="224.59" width="3.7" height="16.3" rx="0.2" ry="0.2" transform="translate(640.46 -237.93) rotate(85.06)"/><rect class="cls-3" x="440.73" y="185.95" width="3.7" height="16.3" rx="0.2" ry="0.2" transform="translate(503.1 -287.57) rotate(73.81)"/><rect class="cls-3" x="426.13" y="149.45" width="3.7" height="16.3" rx="0.2" ry="0.2" transform="translate(368.14 -297.37) rotate(62.56)"/><rect class="cls-3" x="404.68" y="116.5" width="3.7" height="16.3" rx="0.2" ry="0.2" transform="translate(247.22 -273.1) rotate(51.31)"/><rect class="cls-3" x="377.22" y="88.37" width="3.7" height="16.3" rx="0.2" ry="0.2" transform="translate(148.57 -223.84) rotate(40.06)"/></g><path id="Tire" class="cls-3" d="M472.68,356.71c1.52-3.18,3-6.39,4.39-9.66.35-.83.68-1.66,1-2.49L475,343.05l.73-1.78,3.28,1.1q2.5-6.19,4.66-12.46l-3.2-1.31c.21-.61.4-1.22.61-1.83l3.34.9q2.1-6.35,3.85-12.74l-3.28-1.1c.17-.62.35-1.24.51-1.86l3.39.68q1.71-6.47,3.05-12.95l-3.34-.89c.13-.64.25-1.27.37-1.9l3.43.46q1.29-6.56,2.21-13.12l-3.39-.68c.08-.63.18-1.27.26-1.91l3.46.24q.85-6.61,1.37-13.23l-3.43-.46.12-1.93,3.46,0q.44-6.65.52-13.29l-3.45-.24c0-.65,0-1.29,0-1.94l3.45-.19q0-6.67-.34-13.3l-3.46,0c0-.65-.07-1.29-.11-1.94l3.43-.41q-.4-6.65-1.17-13.25l-3.45.2c-.07-.64-.16-1.28-.24-1.92l3.4-.63q-.84-6.62-2-13.15l-3.43.41c-.12-.63-.23-1.27-.35-1.9l3.36-.84c-.83-4.36-1.79-8.69-2.85-13l-3.41.63c-.15-.62-.31-1.24-.47-1.87l3.29-1.05q-1.67-6.45-3.65-12.79l-3.36.84c-.19-.61-.39-1.23-.59-1.84l3.22-1.26q-2.07-6.33-4.47-12.53L477,162.08c-.23-.6-.46-1.21-.7-1.8l3.14-1.47q-2.46-6.18-5.24-12.23L471,147.85c-.27-.59-.55-1.17-.83-1.75l3-1.66c-1.9-4-3.89-8-6-11.87L464.1,134l-.93-1.7,2.92-1.84q-3.21-5.82-6.74-11.47l-3,1.66-1-1.64,2.8-2c-2.39-3.73-4.86-7.41-7.45-11l-2.92,1.85-1.15-1.56,2.67-2.2q-3.92-5.37-8.14-10.53l-2.8,2c-.4-.5-.8-1-1.22-1.5l2.52-2.37q-4.25-5.1-8.79-10l-2.67,2.2-1.33-1.41L429.18,80q-4.57-4.83-9.4-9.41L417.26,73c-.47-.45-.95-.88-1.42-1.32L418,69q-4.86-4.52-10-8.78l-2.37,2.52-1.49-1.23,2-2.81q-5.14-4.18-10.53-8.13l-2.2,2.67c-.52-.38-1.05-.74-1.58-1.12l1.84-2.93q-5.38-3.84-11-7.43l-2,2.8c-.54-.34-1.08-.7-1.63-1l1.65-3q-5.61-3.49-11.48-6.71l-1.84,2.92-1.7-.91,1.45-3.14q-5.82-3.12-11.88-6l-1.65,3-1.75-.83,1.26-3.22c-2-.92-4-1.83-6.08-2.7s-4.1-1.72-6.15-2.53l-1.46,3.14c-.6-.24-1.2-.46-1.81-.69l1.06-3.3q-6.26-2.4-12.54-4.45l-1.26,3.22c-.61-.2-1.22-.41-1.84-.6l.84-3.36c-4.24-1.34-8.51-2.56-12.78-3.65L310.06,14l-1.89-.46.63-3.4q-6.48-1.59-13-2.83L295,10.67l-1.91-.37.41-3.44q-6.57-1.17-13.15-2l-.62,3.41-1.93-.22L278,4.6q-6.63-.75-13.25-1.15l-.41,3.43-1.93-.11,0-3.46C257.9,3.09,253.46,3,249,3l-.19,3.46-1.94,0L246.66,3q-6.66.09-13.28.53l0,3.46c-.65,0-1.29.1-1.94.15L231,3.76q-6.64.51-13.23,1.39L218,8.6l-1.92.25-.69-3.39c-4.39.62-8.76,1.38-13.11,2.24l.47,3.42-1.89.39L200,8.17q-6.53,1.35-13,3.05l.69,3.39-1.87.5-1.11-3.27c-4.27,1.17-8.52,2.47-12.72,3.87l.89,3.34-1.83.61-1.31-3.2q-6.3,2.16-12.46,4.66l1.11,3.28-1.78.74L155.13,22Q149,24.58,143,27.46l1.31,3.2-1.74.84-1.7-3q-6,2.92-11.77,6.19l1.51,3.11-1.68,1L127,35.86q-5.76,3.3-11.36,6.91l1.71,3-1.61,1.07-2.08-2.77q-5.54,3.66-10.9,7.63l1.9,2.89-1.56,1.15-2.24-2.63q-5.3,4-10.38,8.32l2.07,2.76L91.1,65.46,88.69,63q-5,4.32-9.85,8.94l2.25,2.63c-.47.44-.92.9-1.38,1.35l-2.57-2.32q-4.74,4.64-9.24,9.56l2.41,2.48c-.44.48-.88.95-1.31,1.43l-2.71-2.16Q61.87,89.83,57.68,95l2.56,2.33L59,98.87l-2.83-2q-4.11,5.2-8,10.66L51,109.7c-.37.53-.75,1-1.11,1.58l-3-1.8q-3.77,5.46-7.25,11.16l2.84,2c-.34.55-.67,1.1-1,1.65l-3.06-1.61q-3.4,5.69-6.54,11.59l2.95,1.8-.9,1.7-3.15-1.41q-3,5.88-5.79,12L28,149.93l-.78,1.76L24,150.49c-.36.82-.74,1.63-1.09,2.46-1.4,3.27-2.7,6.56-3.95,9.85l3.16,1.41c-.23.6-.47,1.2-.69,1.8l-3.31-1q-2.31,6.28-4.25,12.61l3.25,1.21c-.19.61-.37,1.23-.55,1.84l-3.37-.78q-1.91,6.41-3.45,12.85l3.31,1c-.15.63-.31,1.26-.46,1.88L9.21,195q-1.49,6.51-2.61,13l3.37.79c-.11.63-.21,1.27-.32,1.91l-3.44-.36Q5.13,217,4.42,223.6l3.41.57c-.07.64-.13,1.29-.2,1.93L4.18,226c-.44,4.43-.74,8.85-.94,13.27l3.45.35c0,.65-.06,1.29-.08,1.94l-3.46.08q-.23,6.66-.1,13.3l3.46.14c0,.64,0,1.28.06,1.93l-3.45.3q.21,6.66.76,13.28l3.46-.08c.06.64.1,1.28.16,1.92l-3.42.52c.41,4.43,1,8.83,1.61,13.21l3.45-.3c.09.63.2,1.27.3,1.9l-3.38.74c.69,4.38,1.5,8.75,2.42,13.08L11.9,301l.42,1.88-3.32,1q1.46,6.5,3.26,12.9l3.38-.74c.17.62.34,1.24.52,1.85L12.9,319q1.86,6.39,4.07,12.67l3.33-.95c.21.6.43,1.21.65,1.81l-3.18,1.36c1.51,4.17,3.12,8.31,4.85,12.39l3.26-1.16c.25.59.5,1.18.76,1.77l-3.09,1.56q2.65,6.11,5.64,12.06l3.18-1.37c.28.58.57,1.15.86,1.72l-3,1.76q3,5.92,6.37,11.68l3.09-1.57c.32.56.66,1.11,1,1.66l-2.86,1.94q3.41,5.72,7.1,11.25l3-1.75,1.07,1.6-2.73,2.11q3.75,5.49,7.81,10.78l2.86-1.94,1.18,1.52-2.59,2.29q4.08,5.24,8.46,10.27l2.73-2.12c.42.48.86,1,1.29,1.44l-2.45,2.44q4.41,5,9.11,9.7l2.59-2.29L78.6,423l-2.29,2.6Q81,430.3,86,434.72l2.44-2.45,1.46,1.27-2.12,2.74q5,4.35,10.27,8.46l2.28-2.6,1.52,1.18L100,446.19q5.26,4,10.79,7.78l2.12-2.74,1.59,1.07-1.75,3q5.52,3.68,11.26,7.09l1.94-2.87,1.66,1L126,463.57q5.73,3.31,11.7,6.35l1.75-3,1.71.86L139.8,471q5.92,3,12.07,5.61l1.56-3.08.88.39.89.36L154,477.52q6.17,2.61,12.4,4.84l1.36-3.18,1.81.64-1,3.33q6.32,2.22,12.67,4.06l1.16-3.25,1.85.53-.74,3.38q6.43,1.8,12.91,3.24l.94-3.33,1.89.41-.52,3.42c4.35.93,8.72,1.74,13.08,2.43l.73-3.38,1.91.28-.3,3.45q6.62,1,13.21,1.57l.52-3.42,1.92.17-.08,3.46q6.65.56,13.28.74l.3-3.45,1.93,0,.14,3.46q6.67.12,13.31-.12l.08-3.46,1.92-.06.36,3.44q6.66-.31,13.27-1l-.14-3.46,1.92-.21.57,3.42c4.42-.49,8.81-1.08,13.19-1.8l-.36-3.44,1.9-.33.79,3.36c4.37-.76,8.72-1.65,13-2.64l-.58-3.41,1.88-.43,1,3.31q6.47-1.56,12.85-3.47l-.79-3.36,1.83-.57,1.21,3.24c4.24-1.31,8.45-2.72,12.61-4.26l-1-3.31,1.8-.67,1.41,3.16q6.23-2.37,12.31-5.06l-1.21-3.24,1.76-.78,1.61,3.06q6.06-2.75,12-5.81l-1.41-3.16,1.69-.9,1.81,2.95q5.87-3.12,11.58-6.56L376,458.34l1.65-1,2,2.83q5.65-3.48,11.13-7.29l-1.8-2.95,1.58-1.1,2.16,2.7c3.62-2.56,7.18-5.2,10.66-8l-2-2.83,1.5-1.22,2.32,2.56q5.17-4.17,10.13-8.63l-2.16-2.7c.47-.43,1-.85,1.44-1.29l2.48,2.41q4.89-4.49,9.55-9.27l-2.33-2.56,1.34-1.39,2.63,2.25q4.59-4.8,8.95-9.85l-2.49-2.4,1.26-1.47,2.77,2.07q4.27-5.07,8.29-10.41l-2.64-2.24c.39-.52.78-1,1.16-1.55l2.9,1.9q3.93-5.34,7.62-10.91L453.36,384c.35-.53.69-1.08,1-1.62l3,1.7q3.58-5.56,6.9-11.37l-2.89-1.89c.31-.56.64-1.12.95-1.68l3.11,1.51q3.24-5.78,6.18-11.78l-3-1.71c.29-.57.55-1.16.83-1.74ZM170.4,436.23c-102.85-44-150.59-163-106.63-265.82s163-150.6,265.83-106.64,150.59,163,106.63,265.83S273.26,480.19,170.4,436.23Z" transform="translate(-2.5 -2.51)"/><g id="Valve"><line class="cls-1" x1="250.61" y1="59.8" x2="251.18" y2="64.57"/><line class="cls-4" x1="250.61" y1="59.8" x2="251.18" y2="64.57"/><line class="cls-1" x1="250.85" y1="61.83" x2="251.17" y2="64.51"/><line class="cls-5" x1="250.85" y1="61.83" x2="251.17" y2="64.51"/><line id="Valve-2" data-name="Valve" class="cls-6" x1="249.25" y1="44.81" x2="251.03" y2="63.58"/></g><path id="Rim" class="cls-3" d="M333.86,53.79C225.5,7.47,100.1,57.77,53.79,166.14s4,233.76,112.35,280.07,233.76-4,280.07-112.35S442.23,100.1,333.86,53.79ZM171.32,434.09C69.66,390.63,22.46,273,65.92,171.32S227,22.46,328.68,65.92,477.54,227,434.08,328.68,273,477.54,171.32,434.09Z" transform="translate(-2.5 -2.51)"/><g id="Bottom_Spokes" data-name="Bottom Spokes"><line class="cls-3" x1="100.02" y1="123.69" x2="253.08" y2="221.03"/><line class="cls-3" x1="127.09" y1="97.22" x2="220.98" y2="252.42"/><line class="cls-3" x1="55.68" y1="264.24" x2="232.73" y2="224.85"/><line class="cls-3" x1="56.1" y1="226.39" x2="232.23" y2="269.74"/><line class="cls-3" x1="123.71" y1="394.98" x2="221.05" y2="241.93"/><line class="cls-3" x1="97.24" y1="367.91" x2="252.44" y2="274.03"/><line class="cls-3" x1="264.26" y1="439.32" x2="224.86" y2="262.27"/><line class="cls-3" x1="226.41" y1="438.9" x2="269.76" y2="262.77"/><line class="cls-3" x1="395" y1="371.3" x2="241.95" y2="273.96"/><line class="cls-3" x1="367.93" y1="397.76" x2="274.05" y2="242.57"/><line class="cls-3" x1="439.34" y1="230.75" x2="262.29" y2="270.14"/><line class="cls-3" x1="388.15" y1="264.77" x2="262.79" y2="225.25"/><path class="cls-3" d="M438.28,282.29" transform="translate(-2.5 -2.51)"/><line class="cls-3" x1="371.31" y1="100.01" x2="273.97" y2="253.06"/><line class="cls-3" x1="397.78" y1="127.07" x2="242.58" y2="220.96"/><line class="cls-3" x1="230.76" y1="55.66" x2="270.16" y2="232.72"/><line class="cls-3" x1="268.62" y1="56.09" x2="225.26" y2="232.21"/><line class="cls-3" x1="340.32" y1="78.97" x2="274.05" y2="242.48"/><line class="cls-3" x1="193.98" y1="62.7" x2="262.74" y2="225.17"/><line class="cls-3" x1="63.78" y1="189.18" x2="224.94" y2="262.3"/><line class="cls-3" x1="78.99" y1="154.67" x2="242.49" y2="220.94"/><line class="cls-3" x1="62.71" y1="301.01" x2="225.18" y2="232.25"/><line class="cls-3" x1="189.19" y1="431.21" x2="262.31" y2="270.05"/><line class="cls-3" x1="154.68" y1="416" x2="220.95" y2="252.49"/><line class="cls-3" x1="301.02" y1="432.28" x2="232.26" y2="269.8"/><line class="cls-3" x1="431.22" y1="305.8" x2="270.06" y2="232.68"/><line class="cls-3" x1="416.01" y1="340.31" x2="252.51" y2="274.04"/><line class="cls-3" x1="432.29" y1="193.97" x2="269.82" y2="262.72"/><line class="cls-3" x1="79.03" y1="154.59" x2="242.53" y2="220.86"/><line class="cls-3" x1="154.64" y1="415.89" x2="220.92" y2="252.38"/><line class="cls-3" x1="415.94" y1="340.27" x2="252.43" y2="274"/><g id="Spoke_Ends_Bottom" data-name="Spoke Ends, Bottom"><circle class="cls-3" cx="253.04" cy="221.04" r="1.02"/><circle class="cls-3" cx="232.71" cy="224.87" r="1.02"/><circle class="cls-3" cx="221.05" cy="241.95" r="1.02"/><circle class="cls-3" cx="224.88" cy="262.27" r="1.02"/><circle class="cls-3" cx="241.96" cy="273.94" r="1.02"/><circle class="cls-3" cx="262.29" cy="270.1" r="1.02"/><circle class="cls-3" cx="273.95" cy="253.02" r="1.02"/><circle class="cls-3" cx="270.11" cy="232.7" r="1.02"/></g></g><path id="Hub" class="cls-3" d="M266.59,225.63a29.49,29.49,0,1,0,7.78,41A29.47,29.47,0,0,0,266.59,225.63ZM223.64,256a1,1,0,1,1,.81-1.19A1,1,0,0,1,223.64,256Zm.91-11.34a1,1,0,1,1-.79-1.2A1,1,0,0,1,224.55,244.68Zm3.4,21a1,1,0,0,1-1.41-.29,1,1,0,1,1,1.7-1.12A1,1,0,0,1,228,265.65Zm.57-30.3a1,1,0,1,1-.27-1.42A1,1,0,0,1,228.52,235.35Zm16.27-12.9a1,1,0,1,1-.81,1.19A1,1,0,0,1,244.79,222.45Zm-9.17,50.45a1,1,0,0,1-1.42.27,1,1,0,0,1,1.15-1.69A1,1,0,0,1,235.62,272.9Zm.14-44.65a1,1,0,0,1-1.41-.3,1,1,0,0,1,1.71-1.12A1,1,0,0,1,235.76,228.25Zm9.71,48.41a1,1,0,1,1-.79-1.21A1,1,0,0,1,245.47,276.66ZM250,255.24a5.24,5.24,0,1,1,5.24-5.24A5.25,5.25,0,0,1,250,255.24Zm5.21,22.31a1,1,0,1,1,.81-1.19A1,1,0,0,1,255.21,277.55Zm1.31-53.79a1,1,0,1,1-.79-1.21A1,1,0,0,1,256.52,223.76Zm8.84,49.7a1,1,0,1,1,.29-1.41A1,1,0,0,1,265.36,273.46Zm.71-45.21a1,1,0,1,1-.27-1.41A1,1,0,0,1,266.07,228.25Zm7.09,37.55a1,1,0,0,1-1.41.27,1,1,0,0,1-.27-1.42,1,1,0,0,1,1.42-.27A1,1,0,0,1,273.16,265.8Zm0-29.74a1,1,0,1,1,.29-1.41A1,1,0,0,1,273.17,236.06Zm3.19,7.92a1,1,0,1,1-.81,1.19A1,1,0,0,1,276.36,244Zm1.09,11.75a1,1,0,1,1-.79-1.2A1,1,0,0,1,277.45,255.73Z" transform="translate(-2.5 -2.51)"/><g id="Top_Spokes" data-name="Top Spokes"><line class="cls-3" x1="76.36" y1="336.17" x2="242.02" y2="273.91"/><line class="cls-3" x1="189.16" y1="431.1" x2="262.28" y2="269.94"/><line class="cls-3" x1="336.18" y1="418.63" x2="273.92" y2="252.97"/><line class="cls-3" x1="431.15" y1="305.76" x2="269.99" y2="232.64"/><line class="cls-3" x1="418.64" y1="158.81" x2="252.98" y2="221.06"/><line class="cls-3" x1="305.81" y1="63.77" x2="232.69" y2="224.93"/><line class="cls-3" x1="158.82" y1="76.35" x2="221.07" y2="242.01"/><line class="cls-3" x1="63.82" y1="189.11" x2="224.98" y2="262.23"/><g id="Spoke_Ends_Top" data-name="Spoke Ends, Top"><circle class="cls-3" cx="274.05" cy="242.48" r="1.24"/><circle class="cls-3" cx="262.79" cy="225.15" r="1.24"/><circle class="cls-3" cx="242.53" cy="220.95" r="1.24"/><circle class="cls-3" cx="225.16" cy="232.27" r="1.24"/><circle class="cls-3" cx="220.95" cy="252.5" r="1.24"/><circle class="cls-3" cx="232.26" cy="269.79" r="1.24"/><circle class="cls-3" cx="252.49" cy="274" r="1.24"/><circle class="cls-3" cx="269.81" cy="262.69" r="1.24"/></g></g><g id="Bent_Spoke" data-name="Bent Spoke"><line class="cls-3" x1="441" y1="268.99" x2="388" y2="264.73"/><path class="cls-3" d="M390.5,267.5" transform="translate(-2.5 -2.51)"/></g></g></svg>