<svg id="Layer_1" data-name="Layer 1" xmlns="http://www.w3.org/2000/svg" viewBox="0 0 473 237.57"><defs><style>.cls-1{fill:#0e714a;}.cls-2{fill:#231f20;}</style></defs><title>ES Basketball</title><path class="cls-1" d="M130.89,139.09a33.5,33.5,0,0,1-33,25.7,34,34,0,0,1-34.44-34C63.42,114.1,76.32,97,97.69,97c20.49,0,31.44,15.8,33.2,26.05H113.41c-1.86-4.86-6.8-11.39-15.81-11.39-11.22,0-17.49,9.8-17.49,19.07,0,9.89,6.72,19.43,17.58,19.43,10.42,0,14.66-8.74,15.72-11Z" transform="translate(-13.5 -75.93)"/><path class="cls-1" d="M135.93,97.62H153v25.12h21.87V97.62H192v66.87H174.87V137.74H153v26.75H135.93Z" transform="translate(-13.5 -75.93)"/><path class="cls-1" d="M231.24,97.55c19.91,0,34.15,15.55,34.15,33.54s-14.15,33.53-34.24,33.53c-20.34,0-34-16.15-34-32.75a36.54,36.54,0,0,1,2.53-13.8A33.59,33.59,0,0,1,231.24,97.55Zm.26,52.57c11.71,0,17.38-10.65,17.38-19s-5.67-19.12-17.55-19.12c-11.44,0-17.64,9.78-17.64,18.86C213.69,140.87,220.41,150.12,231.5,150.12Z" transform="translate(-13.5 -75.93)"/><path class="cls-1" d="M270.41,97.81h17.08v51.87h26l-7.74,15H270.41Z" transform="translate(-13.5 -75.93)"/><path class="cls-1" d="M382.67,98.12h21.14c11.75,0,16.27,1.44,20.61,4.79,5.51,4.33,8.22,11.38,8.22,18.25,0,7.68-4,19-16.63,21.05L434.18,165H414.66l-15.45-21.59H399V165H382.67ZM399,131.73h6.05c10,0,11.21-6.32,11.21-9.58,0-6.05-4.43-9-11-9H399Z" transform="translate(-13.5 -75.93)"/><path class="cls-1" d="M468.47,118c-.35-2.18-.87-6.28-5.93-6.28-2.89,0-5.68,2-5.68,5.06,0,3.84,1.75,4.63,13.36,9.87,12,5.41,15.1,11,15.1,18.51,0,9.43-5.41,19.81-22.52,19.81-18.69,0-23.31-12.22-23.31-20.51v-2.1H455.9c0,7.51,4.63,8.82,6.72,8.82a6.23,6.23,0,0,0,6.29-6.2c0-4.28-2.71-5.32-12.66-9.52-4.54-1.83-15.8-6.37-15.8-18.5s11.78-19,22.61-19c6.37,0,13.27,2.36,17.46,7.34,3.84,4.71,4.11,9.08,4.28,12.74Z" transform="translate(-13.5 -75.93)"/><path class="cls-1" d="M43,117.28c-.35-2.22-.88-6.39-6-6.39-2.92,0-5.76,2-5.76,5.15,0,3.9,1.77,4.7,13.57,10,12.24,5.5,15.34,11.17,15.34,18.8,0,9.57-5.5,20.13-22.88,20.13-19,0-23.68-12.42-23.68-20.84V142H30.26c0,7.63,4.7,9,6.83,9a6.34,6.34,0,0,0,6.39-6.3c0-4.35-2.75-5.41-12.86-9.67-4.61-1.86-16-6.47-16-18.8s12-19.33,23-19.33c6.47,0,13.47,2.39,17.73,7.45,3.9,4.79,4.17,9.22,4.35,13Z" transform="translate(-13.5 -75.93)"/><path class="cls-1" d="M337.34,155.09l-4.9,9.61-21.58-.06,36.43-66.75h30.32l-.05,66.86H359.22v-9.66ZM359.16,113l-13.94,27h14Z" transform="translate(-13.5 -75.93)"/><path class="cls-2" d="M143.69,192.86c-.35-2.15-.86-6.18-5.84-6.18-2.84,0-5.59,2-5.59,5,0,3.78,1.72,4.55,13.15,9.7,11.85,5.33,14.85,10.83,14.85,18.21,0,9.28-5.32,19.5-22.16,19.5-18.38,0-22.93-12-22.93-20.18v-2.07h16.15c0,7.39,4.55,8.68,6.61,8.68a6.13,6.13,0,0,0,6.19-6.1c0-4.21-2.67-5.24-12.46-9.36-4.46-1.81-15.54-6.27-15.54-18.21s11.59-18.72,22.24-18.72c6.27,0,13.06,2.32,17.18,7.21,3.78,4.64,4,8.93,4.21,12.54Z" transform="translate(-13.5 -75.93)"/><path class="cls-2" d="M269.34,189.43H255.05V175.17h45.38v14.26H285.58v49.3H269.34Z" transform="translate(-13.5 -75.93)"/><path class="cls-2" d="M303.93,175.3h19.59c10.73,0,15.71,1,20.35,6.18A14.7,14.7,0,0,1,347.65,192a14.34,14.34,0,0,1-7.39,12.8c10.22,3.61,10.48,12.11,10.48,14.77,0,5.07-2,10.65-5.84,13.83-5.84,4.9-10,5.5-20.78,5.5H303.93Zm15.55,24.14h5.75c2.24,0,6.87,0,6.87-5.07,0-4.81-4.38-4.81-6.87-4.81h-5.75Zm0,25.16h7.64c2.06,0,8.08,0,8.08-6.1,0-5.49-5.5-5.49-8.08-5.49h-7.64Z" transform="translate(-13.5 -75.93)"/><path class="cls-2" d="M450.35,175h16.23v49.29h18.81v14.26h-35Z" transform="translate(-13.5 -75.93)"/><polygon class="cls-2" points="238.3 113.48 238.3 99.23 206.25 99.23 203 104.12 203 156.21 207.63 162.78 238.3 162.78 238.3 148.53 218.55 148.53 218.55 137.62 237.7 137.62 237.7 123.36 218.55 123.36 218.55 113.48 238.3 113.48"/><path class="cls-2" d="M58.21,210.21a15.18,15.18,0,0,0-8.38-6.44A14.36,14.36,0,0,0,57.22,191a14.7,14.7,0,0,0-3.78-10.48c-4.64-5.15-9.62-6.18-20.36-6.18H13.5v63.56H33.68a74.88,74.88,0,0,0,9.67-.44ZM29.05,188.57H34.8c2.49,0,6.87,0,6.87,4.81,0,5.06-4.64,5.06-6.87,5.06H29.05Zm0,35V212h7.64c2.58,0,8.07,0,8.07,5.5,0,6.1-6,6.1-8.07,6.1Z" transform="translate(-13.5 -75.93)"/><polygon class="cls-2" points="414.59 148.34 414.59 99.04 398.35 99.04 398.35 144.35 408.48 162.59 433.4 162.59 433.4 148.34 414.59 148.34"/><path class="cls-2" d="M72,228.79l-4.66,9.14-20.51-.06,34.63-63.45h28.82l0,63.56H92.75v-9.19Zm20.74-40L79.44,214.45H92.73Z" transform="translate(-13.5 -75.93)"/><path class="cls-2" d="M165.1,175.12h16.23v28.6h.18l18-28.6h17l-21,31.69,22.42,31.87h-19l-17.34-27.49h-.18v27.49H165.1Z" transform="translate(-13.5 -75.93)"/><path class="cls-2" d="M372.28,229.51v9.19H354.84l0-63.55h28.82L418.4,238.7l-20.67,0-4.66-9.14Zm0-14.34h13.29l-13.26-25.69Z" transform="translate(-13.5 -75.93)"/><rect class="cls-2" x="266.5" y="172.7" width="205.35" height="10.64"/><rect class="cls-2" x="0.01" y="172.7" width="205.99" height="10.64"/><rect class="cls-1" x="1.15" width="471.85" height="10.64"/><path d="M251.65,307.89V294.56h5.87V300c5.49-1.59,11.73-8.31,12.4-15.94H251.69V255.15c9.6.14,19.29,7.18,22.57,15.87h-7a20.26,20.26,0,0,0-9.65-8.18v15.25H276.2C278.37,291.34,268.54,306.7,251.65,307.89Z" transform="translate(-13.5 -75.93)"/><path d="M230,284a20.55,20.55,0,0,0,11.7,15.9v-5.26h5.91V307.8c-9.69-.29-22.34-8.65-23.92-23.33a26.43,26.43,0,0,1,23.89-29.32V269h-5.85v-5.66c-5.24,2-10.57,8-11.5,14.83h10.64V284Z" transform="translate(-13.5 -75.93)"/><path d="M250,252a29.41,29.41,0,1,1-29.41,29.41A29.41,29.41,0,0,1,250,252m0-2.71a32.13,32.13,0,1,0,32.13,32.12A32.17,32.17,0,0,0,250,249.25Z" transform="translate(-13.5 -75.93)"/></svg>