<svg id="Layer_1" data-name="Layer 1" xmlns="http://www.w3.org/2000/svg" viewBox="0 0 494 494"><defs><style>.cls-1{fill:#0f714a;}</style></defs><title>ES Circle</title><path class="cls-1" d="M263,454.16V351.69h45.14v41.49c42.2-12.21,90.13-63.87,95.31-122.53H263.27v-222c73.84,1.15,148.32,55.24,173.58,122H382.79c-17.9-28.37-42.13-49.69-74.23-62.91V225H451.75C468.43,326.94,392.83,445,263,454.16Z" transform="translate(-3.31 -3.31)"/><path class="cls-1" d="M96.68,270.52c9.53,56.65,39,96.63,90,122.23V352.31h45.38V453.47c-74.47-2.18-171.74-66.53-183.89-179.34C34.88,150.86,128.82,56.54,231.83,48.69V154.78H186.89V111.24c-40.29,15.08-81.31,62-88.41,114h81.77v45.24Z" transform="translate(-3.31 -3.31)"/><path class="cls-1" d="M250.31,24.19c124.88,0,226.11,101.24,226.11,226.12S375.19,476.42,250.31,476.42,24.19,375.19,24.19,250.31,125.43,24.19,250.31,24.19m0-20.88c-136.2,0-247,110.8-247,247s110.8,247,247,247,247-110.81,247-247-110.81-247-247-247Z" transform="translate(-3.31 -3.31)"/></svg>