<svg id="Layer_1" data-name="Layer 1" xmlns="http://www.w3.org/2000/svg" viewBox="0 0 151.69 306.67"><defs><style>.cls-1{fill:#f9ede4;stroke:#000;stroke-miterlimit:10;stroke-width:3px;}</style></defs><title>ES Tee</title><circle class="cls-1" cx="75.83" cy="75.68" r="72.94"/><path id="Tee" d="M161.51,196.7V302L166,314.61v0L170.49,302V196.7L187,176.94v-11.7s-3.55.45-6,.55c-5.19.23-24.39.16-29.58-.07-2.89-.13-6.49-.48-6.49-.48v11.7" transform="translate(-90.16 -8)"/><path d="M169.9,146.44V115h13.86v12.74c13-3.75,27.68-19.62,29.27-37.63H170V21.92c22.67.36,45.54,17,53.3,37.47h-16.6a47.9,47.9,0,0,0-22.79-19.31v36h44C233,107.37,209.76,143.64,169.9,146.44Z" transform="translate(-90.16 -8)"/><path d="M118.83,90.05c2.92,17.39,12,29.67,27.63,37.53V115.16h13.93v31.07c-22.86-.67-52.73-20.43-56.46-55.07-4.08-37.85,24.77-66.81,56.4-69.23V54.51h-13.8V41.14c-12.37,4.63-25,19-27.15,35h25.11V90.05Z" transform="translate(-90.16 -8)"/><path d="M166,14.41A69.43,69.43,0,1,1,96.57,83.84,69.43,69.43,0,0,1,166,14.41M166,8a75.85,75.85,0,1,0,75.84,75.84A75.92,75.92,0,0,0,166,8Z" transform="translate(-90.16 -8)"/></svg>