<svg id="Layer_1" data-name="Layer 1" xmlns="http://www.w3.org/2000/svg" viewBox="0 0 1407.65 427.97"><defs><style>.cls-1{fill:#10704a;}.cls-2{fill:#fff;}.cls-3{fill:none;stroke:#10704a;stroke-miterlimit:10;stroke-width:11px;}</style></defs><title>Scholars</title><path class="cls-1" d="M1407,24.76v400.9H26.08V24.76Zm-11.13,11H37.89V415.46h1358Z" transform="translate(-11.43 -10.06)"/><path class="cls-1" d="M1211.21,237.46c-7.23,4.11-14.47,8.37-21.87,12.33a20.49,20.49,0,0,1-6.55,1.71c-17.81,2.75-27.62-7.79-21.87-24.85,5.29-15.73,12.3-30.88,18.56-46.29,1.07-2.61,2.16-5.21,3.44-8.31a74.43,74.43,0,0,1-8.83,1.24c-6.25.13-9.93-3.48-10.29-9.64-.6-10.38,9.24-24.64,19.26-27.69,4.66-1.41,10.2-2.46,13.08,2,2.17,3.33,2.74,8.51,2.18,12.62-.61,4.47-3.35,8.66-5.49,13.77h21.07c-5.1,12.32-9.9,24-14.74,35.63-3.26,7.85-6.7,15.64-9.83,23.54-2.24,5.67-.17,8.64,5.83,8,9.2-.91,14.48-7,18.84-14.61,3.73-6.5,7.65-13.09,12.59-18.65,6.31-7.1,14.8-8.66,19.74-5.07,4.68,3.4,5.16,11.37,1,19.95-5.06,10.47-12.67,17.29-25,16.71-.44,8.44,4,12.35,11.67,10.56,7-1.63,12.08-6.1,16.39-11.53A76.88,76.88,0,0,0,1265.55,195c2.39-12.47-3.32-17.91-15.86-15.73-12.29,2.13-17.84-3.7-14.23-15.82,3.11-10.44,9.09-18.79,20.68-21.19,8.47-1.76,14.39,2.79,13.2,11.26-.89,6.29-4,12.27-5.95,18,18.69-.78,26.31,6.45,28.72,27.78,6.3-.46,12.79-2.23,18.75-1.13,20.7,3.84,35.63,25.91,33.66,48.72-2.15,24.84-15.54,42.92-35.16,56.93-19.42,13.87-41.59,21.24-64.57,26.66-36.15,8.52-72.82,7.41-109.53,6.45-60.13-1.58-120.27-3.81-180.4-4-45.4-.14-90.76,3.06-135.1,14.18-32.19,8.07-62.84,19.57-88.31,41.88-3,2.61-5.85,5.35-8.81,8-3.52-4.64-6.56-9.66-10.55-13.73C699.22,370.16,683,363.64,665,362a159.88,159.88,0,0,0-31.09.11c-10.24,1.05-20.3,4-31.23,6.23,3.09-3.86,5.83-7.49,8.79-10.94,32.83-38.22,74.77-61.17,123-73.81,37.58-9.84,75.9-10.53,114.34-10.27,45.27.3,90.28,4.19,135.17,9.7,43.71,5.36,87.3,11.91,131.11,16.25,30.62,3,61.52,3.95,92.31,4.47,26.55.45,52.92-2,77.61-13.47,17.07-7.91,31.67-18.54,40.4-35.75,5.06-10,7.13-20.33,2.62-31.17-6.92-16.6-25.12-22.19-37.29-11.26a25.06,25.06,0,0,0-5.39,7.82c-11.63,24.35-33.63,33.06-57.78,31.73C1219.55,251.18,1216.05,247.58,1211.21,237.46Z" transform="translate(-11.43 -10.06)"/><path class="cls-1" d="M522.89,200.56c-11,7-14.09,7.35-23.68,0-18.17-14-27.86-32.25-24.92-55.66,2.44-19.36,19.76-35.35,42.51-40.45,19.91-4.46,39.87-2.92,59.85-.86,16.73,1.72,33.43,3.68,50.18,5.15a7.81,7.81,0,0,0,6.19-3.17c16.63-30.19,43.45-43.72,76.48-46.44,9.09-.75,18.78-.39,27.52,2,32.5,8.8,41.3,47.72,16.79,72.44-15.15,15.28-34,20.15-54.68,17.36-19.56-2.64-27-20-16.64-36.85,1.18-1.91,2.57-3.71,4.7-6.77-8,2.54-15,4.27-21.47,7.2-1.74.79-2.34,5.22-2.55,8-1.14,15.73,3.59,30.08,10,44.29,5,11.13,10.13,22.61,12.37,34.47,9,47.84-17.07,90.89-63.28,106.12a112.62,112.62,0,0,1-68.17,1.2c-35.64-10.47-49.39-39.51-35.88-74,9.82-25.1,34.74-43,60.05-43.15,13.65-.08,20,8.2,15.63,21.1-4.42,13.13-13.36,21.85-27.15,24.69-12.63,2.6-18.59-2.91-17.81-15.9-9,2.77-18,15-19.83,27.27-3.81,24.92,13,46.1,39.29,49.44,41.87,5.32,75.36-22.6,77.78-64.78,1.08-18.74-2.91-36.45-10.75-53.37-7.35-15.86-12-32.22-9.72-49.94.35-2.77.78-5.53,1.3-9.19-6.42-.78-12.51-1.68-18.63-2.23-22.32-2-44.45-1.08-65,8.74a83.57,83.57,0,0,0-23.84,16.83C503.28,161,505.14,185.75,522.89,200.56Zm147.58-99.4L718.7,81.34c1.14,3,2.42,6.22,3.69,9.49-17,6.43-26,15.22-29.33,28.52-2.61,10.36,2.37,18.1,13,18.64,16.26.83,30.27-4.52,40-18.15,14-19.66,4.73-43.88-18.47-49.12C705,65.64,679.32,78.58,670.47,101.16Z" transform="translate(-11.43 -10.06)"/><path class="cls-1" d="M362.71,168.28c-13,0-25.49.15-37.92-.19-1.66,0-3.63-2.33-4.8-4a117.51,117.51,0,0,0-46.77-40.16c-1.64-.79-3.39-1.34-5.69-2.23v86.61c2,.1,4,.29,6.05.29q46.51,0,93.05,0c9.1,0,7.55-.16,8.09,7.41,2.85,40.05-8,76-33.33,107.08-24.25,29.76-55.56,47.78-93.65,53.68-2.05.32-4.08.85-6.13,1-2.4.17-4.83,0-7.52,0V302.55h33v30.73c30.43-4.3,71.38-57.19,70.72-91.18H234.27v-164C279.89,77.78,339.39,110.68,362.71,168.28Z" transform="translate(-11.43 -10.06)"/><path class="cls-1" d="M210.67,77.94v78.19H177.49V124c-30.3,9.66-66.79,57.41-64.69,84.57h59.57v33.35H111.71c1.4,33.47,29,75.54,65.64,89.63V302.42h33.16V377c-52.7-.91-122.22-46.5-134.42-125C61.69,159.59,129.85,84.46,210.67,77.94Z" transform="translate(-11.43 -10.06)"/><path class="cls-1" d="M902.69,231.93c-9.67,11.66-20.82,19.63-36,19.82-14,.18-21.74-8.77-17.63-22.13,4.42-14.4,10.8-28.18,16.34-42.23.83-2.11,1.82-4.17,2.52-6.32,1.68-5.23-.67-8.42-6.12-7.62-6.17.9-11.44,3.41-14,9.89-5.83,14.56-12,29-17.86,43.52-3.63,8.95-2,11.67,7.41,12.83-1.66,9.29-4.59,11.68-14.84,12.1-14,.57-19.21-2.57-22.18-13.77a65.92,65.92,0,0,1-36.13,13.27c-6.92.42-14.13.56-20.83-.9-15.05-3.3-23.24-16.18-22.18-33.06,1.52-24.29,23.92-53.83,47-61.34a60,60,0,0,1,16.68-2.73c13.26-.35,21.34,8.13,20.55,21.4-.85,14.16-7.31,25.61-18.16,34.62a17.1,17.1,0,0,1-3.84,2.38c-4.67,2.08-9.54,3.35-13.89-.36-4.15-3.53-4-8.44-2.55-13.12,4.08-13.36,11.61-22.92,26.95-23,1.41-8.63-4.8-13.57-12.83-9.75A39.83,39.83,0,0,0,768.73,175c-9.5,10.87-15.48,23.74-18.58,37.77-3.74,16.91,5,27,22.19,24.57,16.7-2.36,30.25-9.93,36.9-26.93,9.78-25,20-49.8,30-74.69,3.63-9,2.24-11.41-7.41-12.68,1.73-8.62,4.28-11,12.61-12,20.78-2.4,28.18,6.45,21.7,26.3-2.28,7-5.31,13.68-8.15,20.9,4.89-1.54,9.37-3.25,14-4.29a33.41,33.41,0,0,1,10.12-.67c10.88,1,17.06,8.8,15.23,19.58a69.79,69.79,0,0,1-4.2,14.07c-4.54,11.41-9.59,22.62-14,34.07-1,2.64-1.3,8-.24,8.52,2.85,1.3,7,1.74,9.92.58,8.1-3.28,13.32-9.58,15.58-18.23,4.21-16,11.83-30.24,23.6-42,11.22-11.23,24.79-17.09,40.79-16.74,14.08.3,24,9.06,24.57,23.08,1.1,25.07-10.52,44.72-28.18,61.26a52.75,52.75,0,0,1-28.72,13.77C918.67,254,909.57,248.94,902.69,231.93Zm66.5-59.38c-.9-2-1.61-6.46-3.78-7.32s-5.91,1.67-8.8,3.07c-1.27.62-2.22,2-3.18,3.18-12.68,15.32-19.92,33.24-24.63,52.3a25,25,0,0,0-.67,9.53c.4,2.51,1.82,5.81,3.78,6.82,1.58.81,4.7-1.15,7-2.12a7.79,7.79,0,0,0,2.58-2.19C956.93,218,965.27,197.09,969.19,172.55Z" transform="translate(-11.43 -10.06)"/><path class="cls-1" d="M1123.64,158c3.33-1.25,5.46-2.66,7.63-2.74,7.53-.29,15.07-.11,23.56-.11-5,12-9.78,23.28-14.49,34.56-4.57,11-9.21,21.95-13.56,33-.73,1.85-1,5.27,0,6.11a9.67,9.67,0,0,0,7.14,1.84c7.84-1.62,13.12-7,17.23-13.71,4.86,3.8,4.58,7.6,1.39,12.14-7.47,10.65-17.12,18-29.94,20.92-12.19,2.78-19.48-.09-26.31-10.34-5.47,3-10.7,6.45-16.42,8.73-15.94,6.38-27.87,1.26-34.76-15.27a83.89,83.89,0,0,1-5.76,6.33c-8.72,7.86-18.69,12.84-30.75,12.31-11.63-.51-18-7.3-16.59-18.83.7-5.88,2.81-11.73,5.06-17.29,10.3-25.38,20.89-50.65,31.36-76,4.07-9.85,3.11-11.7-7.1-14,2.72-9.41,4.76-11.08,14.23-11.66,20.12-1.24,27,7.28,19.73,26.23-10.46,27.34-21.92,54.31-32.73,81.52-1,2.47-1.32,7.55-.36,8,2.73,1.27,6.73,1.86,9.43.77,7.62-3.08,12.63-8.51,15.17-17,7.77-25.89,20.57-48.21,48-57.76C1104.84,152.32,1115.47,150.18,1123.64,158Zm-52.53,67.81c.06,4.87,1.16,8.76,6.24,9.83,6.07,1.27,19-5.78,21.34-11.58q10.23-24.89,20.41-49.8c2.23-5.46.85-7.51-5.14-7.78-7.66-.33-13.62,3.3-18.25,8.81a121.3,121.3,0,0,0-23.81,45.28A38.4,38.4,0,0,0,1071.11,225.78Z" transform="translate(-11.43 -10.06)"/><path class="cls-2" d="M11.43,438v-428H1419.08V438ZM1407,24.76H26.08v400.9H1407Z" transform="translate(-11.43 -10.06)"/><path class="cls-2" d="M1395.88,35.78V415.46H37.89V35.78ZM1211.21,237.46c4.84,10.12,8.34,13.72,16.4,14.16,24.15,1.33,46.15-7.38,57.78-31.73a25.06,25.06,0,0,1,5.39-7.82c12.17-10.93,30.37-5.34,37.29,11.26,4.51,10.84,2.44,21.2-2.62,31.17-8.73,17.21-23.33,27.84-40.4,35.75-24.69,11.43-51.06,13.92-77.61,13.47-30.79-.52-61.69-1.43-92.31-4.47-43.81-4.34-87.4-10.89-131.11-16.25-44.89-5.51-89.9-9.4-135.17-9.7-38.44-.26-76.76.43-114.34,10.27-48.25,12.64-90.19,35.59-123,73.81-3,3.45-5.7,7.08-8.79,10.94,10.93-2.27,21-5.18,31.23-6.23A159.88,159.88,0,0,1,665,362c18,1.66,34.2,8.18,47.07,21.32,4,4.07,7,9.09,10.55,13.73,3-2.7,5.83-5.44,8.81-8,25.47-22.31,56.12-33.81,88.31-41.88,44.34-11.12,89.7-14.32,135.1-14.18,60.13.2,120.27,2.43,180.4,4,36.71,1,73.38,2.07,109.53-6.45,23-5.42,45.15-12.79,64.57-26.66,19.62-14,33-32.09,35.16-56.93,2-22.81-13-44.88-33.66-48.72-6-1.1-12.45.67-18.75,1.13-2.41-21.33-10-28.56-28.72-27.78,2-5.69,5.06-11.67,5.95-18,1.19-8.47-4.73-13-13.2-11.26-11.59,2.4-17.57,10.75-20.68,21.19-3.61,12.12,1.94,17.95,14.23,15.82,12.54-2.18,18.25,3.26,15.86,15.73a76.88,76.88,0,0,1-15.18,33.84c-4.31,5.43-9.4,9.9-16.39,11.53-7.7,1.79-12.11-2.12-11.67-10.56,12.38.58,20-6.24,25-16.71,4.13-8.58,3.65-16.55-1-19.95-4.94-3.59-13.43-2-19.74,5.07-4.94,5.56-8.86,12.15-12.59,18.65-4.36,7.58-9.64,13.7-18.84,14.61-6,.6-8.07-2.37-5.83-8,3.13-7.9,6.57-15.69,9.83-23.54,4.84-11.65,9.64-23.31,14.74-35.63h-21.07c2.14-5.11,4.88-9.3,5.49-13.77.56-4.11,0-9.29-2.18-12.62-2.88-4.42-8.42-3.37-13.08-2-10,3-19.86,17.31-19.26,27.69.36,6.16,4,9.77,10.29,9.64a74.43,74.43,0,0,0,8.83-1.24c-1.28,3.1-2.37,5.7-3.44,8.31-6.26,15.41-13.27,30.56-18.56,46.29-5.75,17.06,4.06,27.6,21.87,24.85a20.49,20.49,0,0,0,6.55-1.71C1196.74,245.83,1204,241.57,1211.21,237.46Zm-688.32-36.9c-17.75-14.81-19.61-39.57-3.38-56.48a83.57,83.57,0,0,1,23.84-16.83c20.52-9.82,42.65-10.76,65-8.74,6.12.55,12.21,1.45,18.63,2.23-.52,3.66-1,6.42-1.3,9.19-2.28,17.72,2.37,34.08,9.72,49.94,7.84,16.92,11.83,34.63,10.75,53.37-2.42,42.18-35.91,70.1-77.78,64.78-26.26-3.34-43.1-24.52-39.29-49.44,1.87-12.25,10.78-24.5,19.83-27.27-.78,13,5.18,18.5,17.81,15.9,13.79-2.84,22.73-11.56,27.15-24.69,4.35-12.9-2-21.18-15.63-21.1-25.31.15-50.23,18.05-60.05,43.15-13.51,34.5.24,63.54,35.88,74a112.62,112.62,0,0,0,68.17-1.2c46.21-15.23,72.31-58.28,63.28-106.12-2.24-11.86-7.38-23.34-12.37-34.47-6.36-14.21-11.09-28.56-10-44.29.21-2.83.81-7.26,2.55-8,6.47-2.93,13.5-4.66,21.47-7.2-2.13,3.06-3.52,4.86-4.7,6.77-10.38,16.83-2.92,34.21,16.64,36.85,20.67,2.79,39.53-2.08,54.68-17.36,24.51-24.72,15.71-63.64-16.79-72.44-8.74-2.37-18.43-2.73-27.52-2-33,2.72-59.85,16.25-76.48,46.44a7.81,7.81,0,0,1-6.19,3.17c-16.75-1.47-33.45-3.43-50.18-5.15-20-2.06-39.94-3.6-59.85.86-22.75,5.1-40.07,21.09-42.51,40.45-2.94,23.41,6.75,41.68,24.92,55.66C508.8,207.91,511.91,207.53,522.89,200.56ZM362.71,168.28c-23.32-57.6-82.82-90.5-128.44-90.21v164H337.82c.66,34-40.29,86.88-70.72,91.18V302.55h-33V377.8c2.69,0,5.12.13,7.52,0,2-.15,4.08-.68,6.13-1,38.09-5.9,69.4-23.92,93.65-53.68,25.36-31.12,36.18-67,33.33-107.08-.54-7.57,1-7.42-8.09-7.41q-46.53,0-93.05,0c-2,0-4-.19-6.05-.29V121.67c2.3.89,4.05,1.44,5.69,2.23A117.51,117.51,0,0,1,320,164.06c1.17,1.7,3.14,4,4.8,4C337.22,168.43,349.67,168.28,362.71,168.28Zm-152-90.34c-80.82,6.52-149,81.65-134.58,174.15,12.2,78.45,81.72,124,134.42,125V302.42H177.35v29.14c-36.62-14.09-64.24-56.16-65.64-89.63h60.66V208.58H112.8c-2.1-27.16,34.39-74.91,64.69-84.57v32.12h33.18Zm692,154c6.88,17,16,22,33.78,19.34a52.75,52.75,0,0,0,28.72-13.77c17.66-16.54,29.28-36.19,28.18-61.26-.62-14-10.49-22.78-24.57-23.08-16-.35-29.57,5.51-40.79,16.74-11.77,11.77-19.39,26-23.6,42-2.26,8.65-7.48,15-15.58,18.23-2.88,1.16-7.07.72-9.92-.58-1.06-.49-.78-5.88.24-8.52,4.42-11.45,9.47-22.66,14-34.07a69.79,69.79,0,0,0,4.2-14.07c1.83-10.78-4.35-18.61-15.23-19.58A33.41,33.41,0,0,0,872,154c-4.64,1-9.12,2.75-14,4.29,2.84-7.22,5.87-13.94,8.15-20.9,6.48-19.85-.92-28.7-21.7-26.3-8.33,1-10.88,3.38-12.61,12,9.65,1.27,11,3.67,7.41,12.68-10,24.89-20.23,49.71-30,74.69-6.65,17-20.2,24.57-36.9,26.93-17.15,2.43-25.93-7.66-22.19-24.57,3.1-14,9.08-26.9,18.58-37.77a39.83,39.83,0,0,1,12.37-9.62c8-3.82,14.24,1.12,12.83,9.75-15.34.09-22.87,9.65-26.95,23-1.42,4.68-1.6,9.59,2.55,13.12,4.35,3.71,9.22,2.44,13.89.36a17.1,17.1,0,0,0,3.84-2.38c10.85-9,17.31-20.46,18.16-34.62.79-13.27-7.29-21.75-20.55-21.4A60,60,0,0,0,768.19,156c-23.1,7.51-45.5,37-47,61.34-1.06,16.88,7.13,29.76,22.18,33.06,6.7,1.46,13.91,1.32,20.83.9A65.92,65.92,0,0,0,800.31,238c3,11.2,8.21,14.34,22.18,13.77,10.25-.42,13.18-2.81,14.84-12.1-9.39-1.16-11-3.88-7.41-12.83,5.89-14.53,12-29,17.86-43.52,2.6-6.48,7.87-9,14-9.89,5.45-.8,7.8,2.39,6.12,7.62-.7,2.15-1.69,4.21-2.52,6.32-5.54,14.05-11.92,27.83-16.34,42.23-4.11,13.36,3.63,22.31,17.63,22.13C881.87,251.56,893,243.59,902.69,231.93Zm221-74c-8.17-7.79-18.8-5.65-28.88-2.14-27.4,9.55-40.2,31.87-48,57.76-2.54,8.48-7.55,13.91-15.17,17-2.7,1.09-6.7.5-9.43-.77-1-.45-.62-5.53.36-8,10.81-27.21,22.27-54.18,32.73-81.52,7.24-18.95.39-27.47-19.73-26.23-9.47.58-11.51,2.25-14.23,11.66,10.21,2.26,11.17,4.11,7.1,14-10.47,25.31-21.06,50.58-31.36,76-2.25,5.56-4.36,11.41-5.06,17.29-1.37,11.53,5,18.32,16.59,18.83,12.06.53,22-4.45,30.75-12.31a83.89,83.89,0,0,0,5.76-6.33c6.89,16.53,18.82,21.65,34.76,15.27,5.72-2.28,11-5.78,16.42-8.73,6.83,10.25,14.12,13.12,26.31,10.34,12.82-2.93,22.47-10.27,29.94-20.92,3.19-4.54,3.47-8.34-1.39-12.14-4.11,6.72-9.39,12.09-17.23,13.71a9.67,9.67,0,0,1-7.14-1.84c-1-.84-.72-4.26,0-6.11,4.35-11.07,9-22,13.56-33,4.71-11.28,9.45-22.55,14.49-34.56-8.49,0-16-.18-23.56.11C1129.1,155.31,1127,156.72,1123.64,158ZM421.19,52.68V396.55h6.22V52.68Z" transform="translate(-11.43 -10.06)"/><path class="cls-2" d="M670.47,101.16c8.85-22.58,34.57-35.52,57.06-30.44C750.73,76,760,100.18,746,119.84c-9.69,13.63-23.7,19-40,18.15-10.61-.54-15.59-8.28-13-18.64,3.36-13.3,12.32-22.09,29.33-28.52-1.27-3.27-2.55-6.54-3.69-9.49Z" transform="translate(-11.43 -10.06)"/><path class="cls-2" d="M969.19,172.55c-3.92,24.54-12.26,45.45-27.66,63.27A7.79,7.79,0,0,1,939,238c-2.34,1-5.46,2.93-7,2.12-2-1-3.38-4.31-3.78-6.82a25,25,0,0,1,.67-9.53c4.71-19.06,12-37,24.63-52.3,1-1.16,1.91-2.56,3.18-3.18,2.89-1.4,6.6-4,8.8-3.07S968.29,170.6,969.19,172.55Z" transform="translate(-11.43 -10.06)"/><path class="cls-2" d="M1071.11,225.78a38.4,38.4,0,0,1,.79-5.24,121.3,121.3,0,0,1,23.81-45.28c4.63-5.51,10.59-9.14,18.25-8.81,6,.27,7.37,2.32,5.14,7.78q-10.18,24.92-20.41,49.8c-2.38,5.8-15.27,12.85-21.34,11.58C1072.27,234.54,1071.17,230.65,1071.11,225.78Z" transform="translate(-11.43 -10.06)"/><line class="cls-3" x1="412.71" y1="42.45" x2="412.71" y2="385.83"/></svg>